G04 Generated by Ultiboard 14.0 *
%FSLAX34Y34*%
%MOMM*%

%ADD10C,0.0001*%
%ADD11C,0.0010*%
%ADD12C,0.2540*%
%ADD13C,0.1270*%
%ADD14C,0.3810*%
%ADD15C,1.6088*%
%ADD16R,0.5291X0.5291*%
%ADD17C,0.9949*%
%ADD18R,0.5718X1.1857*%
%ADD19C,0.4232*%
%ADD20C,0.6000*%
%ADD21R,0.6774X0.6774*%
%ADD22C,0.8466*%
%ADD23R,0.5718X1.7780*%
%ADD24O,1.5240X8.0000*%
%ADD25R,0.6772X0.9312*%
%ADD26C,0.5928*%
%ADD27R,3.3863X1.2062*%
%ADD28R,1.8000X1.6000*%
%ADD29R,0.5000X1.5500*%
%ADD30R,1.5500X0.5000*%


G04 ColorRGB 808000 for the following layer *
%LNCopper Top*%
%LPD*%
G54D10*
G36*
X204259Y805163D02*
X204259Y805163D01*
X1014941Y805163D01*
X1023603Y796501D01*
X1023603Y708660D01*
X195597Y708660D01*
X195597Y796501D01*
X204259Y805163D01*
D02*
G37*
G36*
X472440Y299367D02*
X472440Y299367D01*
X472440Y294993D01*
G75*
D01*
G03X471147Y274206I1269J-10513*
G01*
X471147Y274206D01*
X471147Y232728D01*
X467482Y229064D01*
G75*
D01*
G03X472440Y221297I-122J-5544*
G01*
X472440Y221297D01*
X472440Y203541D01*
X428013Y247968D01*
X428013Y459740D01*
G74*
D01*
G03X426885Y462456I3833J0*
G01*
X426885Y462456D01*
X335213Y554128D01*
X335213Y556269D01*
X466348Y556269D01*
G74*
D01*
G03X472440Y553367I7362J7610*
G01*
X472440Y553367D01*
X472440Y548993D01*
G75*
D01*
G03X472440Y527967I1266J-10513*
G01*
X472440Y527967D01*
X472440Y523593D01*
G75*
D01*
G03X472440Y502567I1266J-10513*
G01*
X472440Y502567D01*
X472440Y498193D01*
G75*
D01*
G03X472440Y477167I1266J-10513*
G01*
X472440Y477167D01*
X472440Y472793D01*
G75*
D01*
G03X467921Y453413I1269J-10513*
G01*
X467921Y453413D01*
X457203Y453413D01*
G75*
D01*
G03X454489Y452291I-4J-3833*
G01*
X454489Y452291D01*
X436709Y434511D01*
G75*
D01*
G03X435587Y431795I2711J-2710*
G01*
X435587Y431795D01*
X435587Y345451D01*
G75*
D01*
G03X436709Y342729I3833J-12*
G01*
X436709Y342729D01*
X464440Y314999D01*
G75*
D01*
G03X472440Y299367I9269J-5119*
G01*
D02*
G37*
G36*
X993140Y708660D02*
X993140Y708660D01*
X995680Y541020D01*
X828040Y708660D01*
X993140Y708660D01*
D02*
G37*
G36*
X467562Y675615D02*
G74*
D01*
G03X465328Y673862I6147J10134*
G01*
X465328Y673862D01*
X470567Y668623D01*
X470567Y668623D01*
X470567Y668623D01*
X465328Y673862D01*
G75*
D01*
G03X465328Y657098I8381J-8382*
G01*
X465328Y657098D01*
X470567Y662337D01*
X470567Y662337D01*
X470567Y662337D01*
X465328Y657098D01*
G75*
D01*
G03X482092Y657098I8382J8381*
G01*
X482092Y657098D01*
X476853Y662337D01*
X476853Y662337D01*
X476853Y662337D01*
X482092Y657098D01*
G75*
D01*
G03X482092Y673862I-8381J8382*
G01*
X482092Y673862D01*
X476853Y668623D01*
X476853Y668623D01*
X476853Y668623D01*
X482092Y673862D01*
G74*
D01*
G03X479858Y675615I8381J8381*
G01*
X479858Y675615D01*
X492760Y675615D01*
X492760Y645185D01*
X484409Y645185D01*
G75*
D01*
G03X473710Y628226I-10698J-5105*
G01*
X473710Y628226D01*
X473710Y626534D01*
G75*
D01*
G03X473710Y602826I0J-11854*
G01*
X473710Y602826D01*
X473710Y601134D01*
G75*
D01*
G03X473710Y577426I0J-11854*
G01*
X473710Y577426D01*
X473710Y575734D01*
G75*
D01*
G03X464648Y556237I-1J-11854*
G01*
X464648Y556237D01*
X334902Y556237D01*
X332710Y558429D01*
X332710Y560631D01*
G75*
D01*
G03X332710Y567129I-11399J3249*
G01*
X332710Y567129D01*
X332710Y584175D01*
X373373Y584175D01*
G75*
D01*
G03X374826Y584385I4J5105*
G01*
G74*
D01*
G03X376995Y585677I1446J4895*
G01*
X376995Y585677D01*
X466934Y675615D01*
X467562Y675615D01*
D02*
G37*
G36*
X195597Y667259D02*
X195597Y667259D01*
X195597Y708660D01*
X309880Y708660D01*
X309880Y556260D01*
X306596Y556260D01*
X195597Y667259D01*
D02*
G37*
G36*
X1023603Y150919D02*
X1023603Y150919D01*
X1023603Y708666D01*
X993140Y708666D01*
X993140Y142257D01*
X1014941Y142257D01*
X1023603Y150919D01*
D02*
G37*
G36*
X968883Y280320D02*
X968883Y280320D01*
X968883Y283848D01*
X915012Y283848D01*
X904240Y273076D01*
X904240Y267736D01*
G74*
D01*
G02X908082Y262466I1693J5270*
G01*
X908082Y262466D01*
X908082Y253154D01*
G75*
D01*
G02X904240Y247884I-5536J0*
G01*
X904240Y247884D01*
X904240Y139603D01*
X906254Y139603D01*
G74*
D01*
G02X913405Y143606I8146J6162*
G01*
X913405Y143606D01*
X913405Y139603D01*
X915395Y139603D01*
X915395Y143606D01*
G74*
D01*
G02X922546Y139603I995J10165*
G01*
X922546Y139603D01*
X938626Y139603D01*
X940532Y141508D01*
G75*
D01*
G02X942346Y142257I1808J-1807*
G01*
X942346Y142257D01*
X993182Y142257D01*
X993182Y284546D01*
X991997Y284546D01*
X991997Y280320D01*
G75*
D01*
G02X989440Y277763I-2557J0*
G01*
X989440Y277763D01*
X971440Y277763D01*
G75*
D01*
G02X968883Y280320I0J2557*
G01*
D02*
G37*
%LPC*%
G36*
X921069Y199787D02*
X921069Y199787D01*
X919205Y199787D01*
X919205Y212365D01*
X925752Y212365D01*
X925752Y204470D01*
G75*
D01*
G02X921069Y199787I-4683J0*
G01*
D02*
G37*
G36*
X910668Y204470D02*
X910668Y204470D01*
X910668Y212365D01*
X917215Y212365D01*
X917215Y199787D01*
X915351Y199787D01*
G75*
D01*
G02X910668Y204470I0J4683*
G01*
D02*
G37*
G36*
X915351Y226933D02*
X915351Y226933D01*
X917215Y226933D01*
X917215Y214355D01*
X910668Y214355D01*
X910668Y222250D01*
G75*
D01*
G02X915351Y226933I4683J0*
G01*
D02*
G37*
G36*
X921069Y226933D02*
G74*
D01*
G02X925752Y222250I0J4683*
G01*
X925752Y222250D01*
X925752Y214355D01*
X919205Y214355D01*
X919205Y226933D01*
X921069Y226933D01*
D02*
G37*
G36*
X963825Y202748D02*
X963825Y202748D01*
X961962Y202748D01*
X961962Y212365D01*
X968509Y212365D01*
X968509Y207432D01*
G75*
D01*
G02X963825Y202748I-4684J0*
G01*
D02*
G37*
G36*
X953425Y207432D02*
X953425Y207432D01*
X953425Y212365D01*
X959972Y212365D01*
X959972Y202748D01*
X958108Y202748D01*
G75*
D01*
G02X953425Y207432I1J4684*
G01*
D02*
G37*
G36*
X958108Y223972D02*
X958108Y223972D01*
X959972Y223972D01*
X959972Y214355D01*
X953425Y214355D01*
X953425Y219288D01*
G75*
D01*
G02X958108Y223972I4683J1*
G01*
D02*
G37*
G36*
X963825Y223972D02*
G74*
D01*
G02X968509Y219288I0J4684*
G01*
X968509Y219288D01*
X968509Y214355D01*
X961962Y214355D01*
X961962Y223972D01*
X963825Y223972D01*
D02*
G37*
G36*
X914411Y265475D02*
X914411Y265475D01*
X921121Y257810D01*
X914411Y250145D01*
G75*
D01*
G02X913522Y253154I4647J3009*
G01*
X913522Y253154D01*
X913522Y262466D01*
G74*
D01*
G02X914411Y265475I5536J0*
G01*
D02*
G37*
G36*
X929104Y266929D02*
X929104Y266929D01*
X922443Y259321D01*
X915783Y266929D01*
G75*
D01*
G02X919058Y268002I3275J-4462*
G01*
X919058Y268002D01*
X925829Y268002D01*
G74*
D01*
G02X929104Y266929I1J5536*
G01*
D02*
G37*
G36*
X930476Y250145D02*
X930476Y250145D01*
X923766Y257810D01*
X930476Y265475D01*
G74*
D01*
G02X931365Y262466I4647J3009*
G01*
X931365Y262466D01*
X931365Y253154D01*
G75*
D01*
G02X930476Y250145I-5536J0*
G01*
D02*
G37*
G36*
X929104Y248691D02*
G74*
D01*
G02X925829Y247618I3275J4462*
G01*
X925829Y247618D01*
X919058Y247618D01*
G75*
D01*
G02X915783Y248691I1J5536*
G01*
X915783Y248691D01*
X922443Y256299D01*
X929104Y248691D01*
D02*
G37*
G36*
X959546Y255848D02*
G75*
D01*
G02X955071Y264625I-4506J3232*
G01*
G74*
D01*
G02X955636Y264745I1209J4304*
G01*
G75*
D01*
G02X956280Y264792I647J-4424*
G01*
X956280Y264792D01*
X968883Y264792D01*
X968883Y268320D01*
G75*
D01*
G02X971440Y270877I2557J0*
G01*
X971440Y270877D01*
X989440Y270877D01*
G74*
D01*
G02X991997Y268320I0J2557*
G01*
X991997Y268320D01*
X991997Y252320D01*
G75*
D01*
G02X989440Y249763I-2557J0*
G01*
X989440Y249763D01*
X984065Y249763D01*
X984065Y223685D01*
G74*
D01*
G02X987135Y219288I1613J4396*
G01*
X987135Y219288D01*
X987135Y207432D01*
G75*
D01*
G02X982452Y202748I-4683J-1*
G01*
X982452Y202748D01*
X976735Y202748D01*
G75*
D01*
G02X972051Y207432I0J4684*
G01*
X972051Y207432D01*
X972051Y219288D01*
G74*
D01*
G02X975122Y223685I4684J1*
G01*
X975122Y223685D01*
X975122Y249763D01*
X971440Y249763D01*
G75*
D01*
G02X968883Y252320I0J2557*
G01*
X968883Y252320D01*
X968883Y255848D01*
X959546Y255848D01*
D02*
G37*
%LPD*%
G36*
X571525Y363469D02*
X571525Y363469D01*
X571525Y381426D01*
X583815Y393716D01*
X602707Y393716D01*
X619760Y376664D01*
X619760Y358743D01*
G75*
D01*
G03X619760Y352457I11430J-3143*
G01*
X619760Y352457D01*
X619760Y324719D01*
X613611Y318569D01*
G75*
D01*
G03X612115Y314948I3607J-3610*
G01*
X612115Y314948D01*
X612115Y289425D01*
G75*
D01*
G03X612115Y269375I-6324J-10025*
G01*
X612115Y269375D01*
X612115Y248494D01*
X566420Y202799D01*
X566420Y262430D01*
G74*
D01*
G03X573220Y268871I0J6810*
G01*
G75*
D01*
G03X577003Y267931I3783J7142*
G01*
X577003Y267931D01*
X583777Y267931D01*
G75*
D01*
G03X591859Y276013I0J8082*
G01*
X591859Y276013D01*
X591859Y282787D01*
G74*
D01*
G03X583777Y290869I8082J0*
G01*
X583777Y290869D01*
X577003Y290869D01*
G75*
D01*
G03X571525Y288729I0J-8082*
G01*
X571525Y288729D01*
X571525Y347731D01*
G74*
D01*
G03X572008Y347218I8868J7865*
G01*
X572008Y347218D01*
X577247Y352457D01*
X577247Y352457D01*
X577247Y352457D01*
X572008Y347218D01*
G75*
D01*
G03X588772Y347218I8382J8381*
G01*
X588772Y347218D01*
X583533Y352457D01*
X583533Y352457D01*
X583533Y352457D01*
X588772Y347218D01*
G75*
D01*
G03X588772Y363982I-8381J8382*
G01*
X588772Y363982D01*
X583533Y358743D01*
X583533Y358743D01*
X583533Y358743D01*
X588772Y363982D01*
G75*
D01*
G03X572008Y363982I-8382J-8381*
G01*
X572008Y363982D01*
X577247Y358743D01*
X577247Y358743D01*
X577247Y358743D01*
X572008Y363982D01*
G74*
D01*
G03X571525Y363469I8385J8378*
G01*
D02*
G37*
%LPC*%
G36*
X593936Y355600D02*
G75*
D01*
G03X593936Y355600I11854J0*
G01*
D02*
G37*
%LPD*%
G36*
X504213Y209746D02*
G75*
D01*
G02X496547Y209746I-3833J-4006*
G01*
X496547Y209746D01*
X496547Y221038D01*
X492579Y221038D01*
G75*
D01*
G02X482781Y221038I-4899J-2597*
G01*
X482781Y221038D01*
X472440Y221038D01*
X472440Y203541D01*
X510705Y165276D01*
G74*
D01*
G02X511833Y162560I2705J2716*
G01*
X511833Y162560D01*
X529567Y162560D01*
G74*
D01*
G02X530689Y165271I3833J1*
G01*
X530689Y165271D01*
X566420Y201001D01*
X566420Y221038D01*
X529613Y221038D01*
X529613Y184346D01*
G75*
D01*
G02X521947Y184346I-3833J-4006*
G01*
X521947Y184346D01*
X521947Y221038D01*
X516913Y221038D01*
X516913Y197046D01*
G75*
D01*
G02X509247Y197046I-3833J-4006*
G01*
X509247Y197046D01*
X509247Y221038D01*
X504213Y221038D01*
X504213Y209746D01*
D02*
G37*
G36*
X942346Y142257D02*
X942346Y142257D01*
X993140Y142257D01*
X993140Y182880D01*
X937260Y182880D01*
X937260Y139700D01*
X938723Y139700D01*
X940532Y141508D01*
G75*
D01*
G02X942346Y142257I1808J-1807*
G01*
D02*
G37*
G36*
X317526Y675666D02*
G74*
D01*
G03X311124Y669264I396J6798*
G01*
X311124Y669264D01*
X309880Y668020D01*
X309880Y708660D01*
X350520Y708660D01*
X317526Y675666D01*
D02*
G37*
G36*
X331181Y585447D02*
X331181Y585447D01*
X332740Y585447D01*
X332740Y556601D01*
X330580Y558761D01*
G75*
D01*
G03X314149Y556079I-9270J5118*
G01*
X314149Y556079D01*
X307340Y556079D01*
X307340Y589280D01*
X310721Y589280D01*
G75*
D01*
G03X331181Y585447I10589J0*
G01*
D02*
G37*
G36*
X553820Y236320D02*
G75*
D01*
G03X561240Y243740I2441J4979*
G01*
X561240Y243740D01*
X566420Y248920D01*
X566420Y220980D01*
X538480Y220980D01*
X553820Y236320D01*
D02*
G37*
G54D11*
X942346Y142257D02*
X993140Y142257D01*
X993140Y182880D01*
X937260Y182880D01*
X937260Y139700D01*
X938723Y139700D01*
X940532Y141508D01*
G75*
D01*
G02X942346Y142257I1808J-1807*
G01*
X504213Y209746D02*
G75*
D01*
G02X496547Y209746I-3833J-4006*
G01*
X496547Y221038D01*
X492579Y221038D01*
G75*
D01*
G02X482781Y221038I-4899J-2597*
G01*
X472440Y221038D01*
X472440Y203541D01*
X510705Y165276D01*
G74*
D01*
G02X511833Y162560I2705J2716*
G01*
X529567Y162560D01*
G74*
D01*
G02X530689Y165271I3833J1*
G01*
X566420Y201001D01*
X566420Y221038D01*
X529613Y221038D01*
X529613Y184346D01*
G75*
D01*
G02X521947Y184346I-3833J-4006*
G01*
X521947Y221038D01*
X516913Y221038D01*
X516913Y197046D01*
G75*
D01*
G02X509247Y197046I-3833J-4006*
G01*
X509247Y221038D01*
X504213Y221038D01*
X504213Y209746D01*
X921069Y199787D02*
X919205Y199787D01*
X919205Y212365D01*
X925752Y212365D01*
X925752Y204470D01*
G75*
D01*
G02X921069Y199787I-4683J0*
G01*
X910668Y204470D02*
X910668Y212365D01*
X917215Y212365D01*
X917215Y199787D01*
X915351Y199787D01*
G75*
D01*
G02X910668Y204470I0J4683*
G01*
X915351Y226933D02*
X917215Y226933D01*
X917215Y214355D01*
X910668Y214355D01*
X910668Y222250D01*
G75*
D01*
G02X915351Y226933I4683J0*
G01*
X921069Y226933D02*
G74*
D01*
G02X925752Y222250I0J4683*
G01*
X925752Y214355D01*
X919205Y214355D01*
X919205Y226933D01*
X921069Y226933D01*
X963825Y202748D02*
X961962Y202748D01*
X961962Y212365D01*
X968509Y212365D01*
X968509Y207432D01*
G75*
D01*
G02X963825Y202748I-4684J0*
G01*
X953425Y207432D02*
X953425Y212365D01*
X959972Y212365D01*
X959972Y202748D01*
X958108Y202748D01*
G75*
D01*
G02X953425Y207432I1J4684*
G01*
X958108Y223972D02*
X959972Y223972D01*
X959972Y214355D01*
X953425Y214355D01*
X953425Y219288D01*
G75*
D01*
G02X958108Y223972I4683J1*
G01*
X963825Y223972D02*
G74*
D01*
G02X968509Y219288I0J4684*
G01*
X968509Y214355D01*
X961962Y214355D01*
X961962Y223972D01*
X963825Y223972D01*
X914411Y265475D02*
X921121Y257810D01*
X914411Y250145D01*
G75*
D01*
G02X913522Y253154I4647J3009*
G01*
X913522Y262466D01*
G74*
D01*
G02X914411Y265475I5536J0*
G01*
X929104Y266929D02*
X922443Y259321D01*
X915783Y266929D01*
G75*
D01*
G02X919058Y268002I3275J-4462*
G01*
X925829Y268002D01*
G74*
D01*
G02X929104Y266929I1J5536*
G01*
X930476Y250145D02*
X923766Y257810D01*
X930476Y265475D01*
G74*
D01*
G02X931365Y262466I4647J3009*
G01*
X931365Y253154D01*
G75*
D01*
G02X930476Y250145I-5536J0*
G01*
X929104Y248691D02*
G74*
D01*
G02X925829Y247618I3275J4462*
G01*
X919058Y247618D01*
G75*
D01*
G02X915783Y248691I1J5536*
G01*
X922443Y256299D01*
X929104Y248691D01*
X959546Y255848D02*
G75*
D01*
G02X955071Y264625I-4506J3232*
G01*
G74*
D01*
G02X955636Y264745I1209J4304*
G01*
G75*
D01*
G02X956280Y264792I647J-4424*
G01*
X968883Y264792D01*
X968883Y268320D01*
G75*
D01*
G02X971440Y270877I2557J0*
G01*
X989440Y270877D01*
G74*
D01*
G02X991997Y268320I0J2557*
G01*
X991997Y252320D01*
G75*
D01*
G02X989440Y249763I-2557J0*
G01*
X984065Y249763D01*
X984065Y223685D01*
G74*
D01*
G02X987135Y219288I1613J4396*
G01*
X987135Y207432D01*
G75*
D01*
G02X982452Y202748I-4683J-1*
G01*
X976735Y202748D01*
G75*
D01*
G02X972051Y207432I0J4684*
G01*
X972051Y219288D01*
G74*
D01*
G02X975122Y223685I4684J1*
G01*
X975122Y249763D01*
X971440Y249763D01*
G75*
D01*
G02X968883Y252320I0J2557*
G01*
X968883Y255848D01*
X959546Y255848D01*
X968883Y280320D02*
X968883Y283848D01*
X915012Y283848D01*
X904240Y273076D01*
X904240Y267736D01*
G74*
D01*
G02X908082Y262466I1693J5270*
G01*
X908082Y253154D01*
G75*
D01*
G02X904240Y247884I-5536J0*
G01*
X904240Y139603D01*
X906254Y139603D01*
G74*
D01*
G02X913405Y143606I8146J6162*
G01*
X913405Y139603D01*
X915395Y139603D01*
X915395Y143606D01*
G74*
D01*
G02X922546Y139603I995J10165*
G01*
X938626Y139603D01*
X940532Y141508D01*
G75*
D01*
G02X942346Y142257I1808J-1807*
G01*
X993182Y142257D01*
X993182Y284546D01*
X991997Y284546D01*
X991997Y280320D01*
G75*
D01*
G02X989440Y277763I-2557J0*
G01*
X971440Y277763D01*
G75*
D01*
G02X968883Y280320I0J2557*
G01*
X472440Y299367D02*
X472440Y294993D01*
G75*
D01*
G03X471147Y274206I1269J-10513*
G01*
X471147Y232728D01*
X467482Y229064D01*
G75*
D01*
G03X472440Y221297I-122J-5544*
G01*
X472440Y203541D01*
X428013Y247968D01*
X428013Y459740D01*
G74*
D01*
G03X426885Y462456I3833J0*
G01*
X335213Y554128D01*
X335213Y556269D01*
X466348Y556269D01*
G74*
D01*
G03X472440Y553367I7362J7610*
G01*
X472440Y548993D01*
G75*
D01*
G03X472440Y527967I1266J-10513*
G01*
X472440Y523593D01*
G75*
D01*
G03X472440Y502567I1266J-10513*
G01*
X472440Y498193D01*
G75*
D01*
G03X472440Y477167I1266J-10513*
G01*
X472440Y472793D01*
G75*
D01*
G03X467921Y453413I1269J-10513*
G01*
X457203Y453413D01*
G75*
D01*
G03X454489Y452291I-4J-3833*
G01*
X436709Y434511D01*
G75*
D01*
G03X435587Y431795I2711J-2710*
G01*
X435587Y345451D01*
G75*
D01*
G03X436709Y342729I3833J-12*
G01*
X464440Y314999D01*
G75*
D01*
G03X472440Y299367I9269J-5119*
G01*
X1023603Y150919D02*
X1023603Y708666D01*
X993140Y708666D01*
X993140Y142257D01*
X1014941Y142257D01*
X1023603Y150919D01*
X993140Y708660D02*
X995680Y541020D01*
X828040Y708660D01*
X993140Y708660D01*
X195597Y667259D02*
X195597Y708660D01*
X309880Y708660D01*
X309880Y556260D01*
X306596Y556260D01*
X195597Y667259D01*
X331181Y585447D02*
X332740Y585447D01*
X332740Y556601D01*
X330580Y558761D01*
G75*
D01*
G03X314149Y556079I-9270J5118*
G01*
X307340Y556079D01*
X307340Y589280D01*
X310721Y589280D01*
G75*
D01*
G03X331181Y585447I10589J0*
G01*
X553820Y236320D02*
G75*
D01*
G03X561240Y243740I2441J4979*
G01*
X566420Y248920D01*
X566420Y220980D01*
X538480Y220980D01*
X553820Y236320D01*
X317526Y675666D02*
G74*
D01*
G03X311124Y669264I396J6798*
G01*
X309880Y668020D01*
X309880Y708660D01*
X350520Y708660D01*
X317526Y675666D01*
X204259Y805163D02*
X1014941Y805163D01*
X1023603Y796501D01*
X1023603Y708660D01*
X195597Y708660D01*
X195597Y796501D01*
X204259Y805163D01*
G54D12*
X467562Y675615D02*
G74*
D01*
G03X465328Y673862I6147J10134*
G01*
X470567Y668623D01*
X470567Y668623D01*
X465328Y673862D01*
G75*
D01*
G03X465328Y657098I8381J-8382*
G01*
X470567Y662337D01*
X470567Y662337D01*
X465328Y657098D01*
G75*
D01*
G03X482092Y657098I8382J8381*
G01*
X476853Y662337D01*
X476853Y662337D01*
X482092Y657098D01*
G75*
D01*
G03X482092Y673862I-8381J8382*
G01*
X476853Y668623D01*
X476853Y668623D01*
X482092Y673862D01*
G74*
D01*
G03X479858Y675615I8381J8381*
G01*
X492760Y675615D01*
X492760Y645185D01*
X484409Y645185D01*
G75*
D01*
G03X473710Y628226I-10698J-5105*
G01*
X473710Y626534D01*
G75*
D01*
G03X473710Y602826I0J-11854*
G01*
X473710Y601134D01*
G75*
D01*
G03X473710Y577426I0J-11854*
G01*
X473710Y575734D01*
G75*
D01*
G03X464648Y556237I-1J-11854*
G01*
X334902Y556237D01*
X332710Y558429D01*
X332710Y560631D01*
G75*
D01*
G03X332710Y567129I-11399J3249*
G01*
X332710Y584175D01*
X373373Y584175D01*
G75*
D01*
G03X374826Y584385I4J5105*
G01*
G74*
D01*
G03X376995Y585677I1446J4895*
G01*
X466934Y675615D01*
X467562Y675615D01*
X593936Y355600D02*
G75*
D01*
G03X593936Y355600I11854J0*
G01*
X571525Y363469D02*
X571525Y381426D01*
X583815Y393716D01*
X602707Y393716D01*
X619760Y376664D01*
X619760Y358743D01*
G75*
D01*
G03X619760Y352457I11430J-3143*
G01*
X619760Y324719D01*
X613611Y318569D01*
G75*
D01*
G03X612115Y314948I3607J-3610*
G01*
X612115Y289425D01*
G75*
D01*
G03X612115Y269375I-6324J-10025*
G01*
X612115Y248494D01*
X566420Y202799D01*
X566420Y262430D01*
G74*
D01*
G03X573220Y268871I0J6810*
G01*
G75*
D01*
G03X577003Y267931I3783J7142*
G01*
X583777Y267931D01*
G75*
D01*
G03X591859Y276013I0J8082*
G01*
X591859Y282787D01*
G74*
D01*
G03X583777Y290869I8082J0*
G01*
X577003Y290869D01*
G75*
D01*
G03X571525Y288729I0J-8082*
G01*
X571525Y347731D01*
G74*
D01*
G03X572008Y347218I8868J7865*
G01*
X577247Y352457D01*
X577247Y352457D01*
X572008Y347218D01*
G75*
D01*
G03X588772Y347218I8382J8381*
G01*
X583533Y352457D01*
X583533Y352457D01*
X588772Y347218D01*
G75*
D01*
G03X588772Y363982I-8381J8382*
G01*
X583533Y358743D01*
X583533Y358743D01*
X588772Y363982D01*
G75*
D01*
G03X572008Y363982I-8382J-8381*
G01*
X577247Y358743D01*
X577247Y358743D01*
X572008Y363982D01*
G74*
D01*
G03X571525Y363469I8385J8378*
G01*
X321310Y386080D02*
X322580Y386080D01*
X335280Y373380D01*
X321310Y487680D02*
X321310Y486410D01*
X321310Y513080D02*
X321310Y511810D01*
X321310Y538480D02*
X321310Y537210D01*
X321310Y563880D02*
X321310Y562610D01*
X322580Y462280D02*
X321310Y462280D01*
X473710Y309880D02*
X474980Y309880D01*
X473710Y360680D02*
X473710Y359410D01*
X473710Y386080D02*
X473710Y384810D01*
X681990Y355600D02*
X681990Y354330D01*
X642620Y314960D01*
X707390Y355600D02*
X707390Y354330D01*
X668020Y314960D01*
X656590Y355600D02*
X656590Y354330D01*
X617220Y314960D01*
X321310Y462280D02*
X321310Y461010D01*
X322580Y411480D02*
X321310Y411480D01*
X322580Y436880D02*
X321310Y436880D01*
X473710Y334010D02*
X473710Y336550D01*
X500380Y424180D02*
X464820Y424180D01*
X730400Y570360D02*
X646560Y570360D01*
X500380Y424180D01*
X473710Y309880D02*
X473710Y311150D01*
X457200Y449580D02*
X492760Y449580D01*
X629920Y586740D01*
X731520Y586740D01*
X730400Y578360D02*
X639320Y578360D01*
X497840Y436880D01*
X473710Y436880D01*
X473710Y359410D02*
X513080Y320040D01*
X473710Y384810D02*
X525780Y332740D01*
X474980Y309880D02*
X487680Y297180D01*
X473710Y334010D02*
X500380Y307340D01*
X660400Y515620D02*
X744220Y515620D01*
X755400Y526800D01*
X755400Y537360D01*
X665480Y508000D02*
X749300Y508000D01*
X763400Y522100D01*
X763400Y537360D01*
X670560Y500380D02*
X762000Y500380D01*
X779400Y517780D01*
X779400Y537360D01*
X767080Y492760D02*
X787400Y513080D01*
X787400Y537360D01*
X675640Y492760D02*
X767080Y492760D01*
X474980Y231140D02*
X474980Y283210D01*
X473710Y284480D01*
X487680Y218440D02*
X487680Y297180D01*
X500380Y205740D02*
X500380Y307340D01*
X513080Y193040D02*
X513080Y320040D01*
X525780Y180340D02*
X525780Y332740D01*
X566420Y383540D02*
X675640Y492760D01*
X556260Y386080D02*
X670560Y500380D01*
X556260Y241300D02*
X556260Y386080D01*
X546100Y388620D02*
X665480Y508000D01*
X546100Y251460D02*
X546100Y388620D01*
X535940Y391160D02*
X660400Y515620D01*
X535940Y261620D02*
X535940Y391160D01*
X656590Y355600D02*
X795400Y494410D01*
X795400Y537360D01*
X681990Y355600D02*
X803400Y477010D01*
X803400Y537360D01*
X707390Y355600D02*
X708660Y355600D01*
X844400Y491340D01*
X844400Y554360D01*
X857120Y570360D02*
X844400Y570360D01*
X758190Y355600D02*
X758190Y356870D01*
X863980Y586360D02*
X844400Y586360D01*
X844400Y602360D02*
X860680Y602360D01*
X744220Y314960D02*
X744220Y266700D01*
X736600Y259080D01*
X736600Y101060D01*
X844400Y610360D02*
X865380Y610360D01*
X787400Y332740D02*
X787400Y101060D01*
X844400Y618360D02*
X870080Y618360D01*
X844400Y626360D02*
X874780Y626360D01*
X844400Y634360D02*
X879480Y634360D01*
X807720Y325120D02*
X807720Y198120D01*
X822960Y314960D02*
X822960Y215900D01*
X878840Y477520D02*
X878840Y571500D01*
X758190Y356870D02*
X878840Y477520D01*
X878840Y571500D02*
X863980Y586360D01*
X866140Y488950D02*
X866140Y561340D01*
X857120Y570360D01*
X732790Y355600D02*
X866140Y488950D01*
X891540Y571500D02*
X891540Y462280D01*
X860680Y602360D02*
X891540Y571500D01*
X891540Y462280D02*
X744220Y314960D01*
X904240Y571500D02*
X904240Y449580D01*
X787400Y332740D01*
X865380Y610360D02*
X904240Y571500D01*
X916940Y571500D02*
X916940Y434340D01*
X870080Y618360D02*
X916940Y571500D01*
X916940Y434340D02*
X807720Y325120D01*
X929640Y571500D02*
X929640Y421640D01*
X874780Y626360D02*
X929640Y571500D01*
X929640Y421640D02*
X822960Y314960D01*
X942340Y571500D02*
X942340Y411480D01*
X879480Y634360D02*
X942340Y571500D01*
X942340Y411480D02*
X838200Y307340D01*
X508000Y162560D02*
X508000Y101060D01*
X482600Y162560D02*
X482600Y101060D01*
X457200Y162560D02*
X457200Y101060D01*
X431800Y162560D02*
X431800Y101060D01*
X406400Y162560D02*
X406400Y101060D01*
X381000Y164560D02*
X381000Y101060D01*
X355600Y164560D02*
X355600Y101060D01*
X335280Y170180D02*
X330200Y165100D01*
X335280Y373380D02*
X335280Y170180D01*
X330200Y165100D02*
X330200Y101060D01*
X347980Y386080D02*
X347980Y172180D01*
X322580Y411480D02*
X347980Y386080D01*
X347980Y172180D02*
X355600Y164560D01*
X360680Y398780D02*
X360680Y184880D01*
X322580Y436880D02*
X360680Y398780D01*
X360680Y184880D02*
X381000Y164560D01*
X373380Y408940D02*
X373380Y195580D01*
X321310Y461010D02*
X373380Y408940D01*
X373380Y195580D02*
X406400Y162560D01*
X386080Y421640D02*
X386080Y208280D01*
X431800Y162560D01*
X321310Y486410D02*
X386080Y421640D01*
X398780Y434340D02*
X398780Y220980D01*
X457200Y162560D01*
X321310Y511810D02*
X398780Y434340D01*
X411480Y447040D02*
X411480Y233680D01*
X482600Y162560D01*
X321310Y537210D02*
X411480Y447040D01*
X424180Y459740D02*
X424180Y246380D01*
X508000Y162560D01*
X321310Y562610D02*
X424180Y459740D01*
X459740Y374650D02*
X459740Y391160D01*
X473710Y360680D02*
X459740Y374650D01*
X459740Y391160D02*
X467360Y398780D01*
X449580Y360680D02*
X449580Y408940D01*
X464820Y424180D01*
X473710Y336550D02*
X449580Y360680D01*
X827400Y537360D02*
X827400Y492120D01*
X819400Y537360D02*
X819400Y514100D01*
X811400Y501780D02*
X811400Y537360D01*
X811400Y501780D02*
X812800Y500380D01*
X819400Y651360D02*
X819400Y638560D01*
X822960Y635000D01*
X828040Y635000D01*
X835660Y642620D01*
X886460Y642620D01*
X955040Y574040D01*
X955040Y508000D01*
X975360Y487680D01*
X730400Y594360D02*
X619760Y594360D01*
X487680Y462280D01*
X473710Y462280D01*
X730400Y602360D02*
X609980Y602360D01*
X495300Y487680D01*
X473710Y487680D01*
X730400Y610360D02*
X600200Y610360D01*
X502920Y513080D01*
X473710Y513080D01*
X730400Y618360D02*
X592960Y618360D01*
X513080Y538480D01*
X473710Y538480D01*
X730400Y634360D02*
X588640Y634360D01*
X518160Y563880D01*
X473710Y563880D01*
X653800Y562360D02*
X502920Y411480D01*
X730400Y562360D02*
X653800Y562360D01*
X473710Y411480D02*
X502920Y411480D01*
X661040Y554360D02*
X505460Y398780D01*
X467360Y398780D02*
X505460Y398780D01*
X730400Y554360D02*
X661040Y554360D01*
X659280Y537360D02*
X508000Y386080D01*
X473710Y386080D02*
X508000Y386080D01*
X747400Y537360D02*
X659280Y537360D01*
X587860Y651360D02*
X747400Y651360D01*
X587860Y651360D02*
X525780Y589280D01*
X473710Y589280D01*
X755400Y651360D02*
X755400Y661920D01*
X751840Y665480D01*
X581660Y665480D01*
X530860Y614680D01*
X473710Y614680D01*
X763400Y651360D02*
X763400Y664080D01*
X754380Y673100D01*
X571500Y673100D01*
X538480Y640080D01*
X473710Y640080D01*
X771400Y651360D02*
X771400Y668780D01*
X759460Y680720D01*
X464820Y680720D01*
X373380Y589280D01*
X321310Y589280D01*
X779400Y651360D02*
X779400Y670940D01*
X762000Y688340D01*
X452120Y688340D01*
X378460Y614680D01*
X321310Y614680D01*
X787400Y651360D02*
X787400Y675640D01*
X767080Y695960D01*
X439420Y695960D01*
X383540Y640080D01*
X321310Y640080D01*
X795400Y651360D02*
X795400Y680340D01*
X772160Y703580D01*
X426720Y703580D01*
X388620Y665480D01*
X321310Y665480D01*
X304800Y200660D02*
X304800Y101060D01*
X566420Y269240D02*
X566420Y383540D01*
X474980Y231140D02*
X467360Y223520D01*
X617220Y246380D02*
X533400Y162560D01*
X617220Y314960D02*
X617220Y246380D01*
X533400Y162560D02*
X533400Y101060D01*
X642620Y246380D02*
X558800Y162560D01*
X642620Y314960D02*
X642620Y246380D01*
X558800Y162560D02*
X558800Y101060D01*
X668020Y246380D02*
X584200Y162560D01*
X668020Y314960D02*
X668020Y246380D01*
X584200Y162560D02*
X584200Y101060D01*
X838200Y231140D02*
X838200Y307340D01*
X827400Y651360D02*
X827400Y678820D01*
X825500Y680720D01*
X439420Y345440D02*
X439420Y431800D01*
X473710Y311150D02*
X439420Y345440D01*
X439420Y431800D02*
X457200Y449580D01*
G54D13*
X330200Y105140D02*
X332740Y102600D01*
X406400Y101060D02*
X403860Y103600D01*
X190500Y55880D02*
X190500Y131318D01*
X190500Y55880D02*
X274320Y55880D01*
X1028700Y55880D02*
X944880Y55880D01*
X1028700Y55880D02*
X1028700Y131318D01*
X1028700Y810260D02*
X1028700Y734822D01*
X1028700Y810260D02*
X944880Y810260D01*
X190500Y810260D02*
X274320Y810260D01*
X190500Y810260D02*
X190500Y734822D01*
X140500Y55880D02*
X40500Y55880D01*
X90500Y5880D02*
X90500Y105880D01*
X53000Y55880D02*
G75*
D01*
G02X53000Y55880I37500J0*
G01*
X1078700Y55880D02*
X1178700Y55880D01*
X1128700Y5880D02*
X1128700Y105880D01*
X1091200Y55880D02*
G75*
D01*
G02X1091200Y55880I37500J0*
G01*
X1116200Y55880D02*
G75*
D01*
G02X1116200Y55880I12500J0*
G01*
X140500Y810260D02*
X40500Y810260D01*
X90500Y760260D02*
X90500Y860260D01*
X53000Y810260D02*
G75*
D01*
G02X53000Y810260I37500J0*
G01*
X65500Y810260D02*
G75*
D01*
G02X65500Y810260I25000J0*
G01*
X78000Y810260D02*
G75*
D01*
G02X78000Y810260I12500J0*
G01*
X281940Y58420D02*
X937260Y58420D01*
X279400Y137160D02*
X279400Y60960D01*
X939800Y60960D02*
X939800Y137160D01*
X276860Y139700D02*
X279400Y137160D01*
X279400Y60960D02*
X281940Y58420D01*
X937260Y58420D02*
X939800Y60960D01*
X939800Y137160D02*
X942340Y139700D01*
X1016000Y139700D02*
X1026160Y149860D01*
X942340Y139700D02*
X1016000Y139700D01*
X1026160Y797560D02*
X1016000Y807720D01*
X1026160Y149860D02*
X1026160Y797560D01*
X193040Y797560D02*
X193040Y149860D01*
X203200Y139700D01*
X203200Y807720D02*
X193040Y797560D01*
X203200Y139700D02*
X276860Y139700D01*
X1016000Y807720D02*
X203200Y807720D01*
X190500Y55880D02*
X190500Y131318D01*
X190500Y55880D02*
X274320Y55880D01*
X1028700Y55880D02*
X944880Y55880D01*
X1028700Y55880D02*
X1028700Y131318D01*
X1028700Y810260D02*
X1028700Y734822D01*
X1028700Y810260D02*
X944880Y810260D01*
X190500Y810260D02*
X274320Y810260D01*
X190500Y810260D02*
X190500Y734822D01*
X140500Y55880D02*
X40500Y55880D01*
X90500Y5880D02*
X90500Y105880D01*
X53000Y55880D02*
G75*
D01*
G02X53000Y55880I37500J0*
G01*
X1078700Y55880D02*
X1178700Y55880D01*
X1128700Y5880D02*
X1128700Y105880D01*
X1091200Y55880D02*
G75*
D01*
G02X1091200Y55880I37500J0*
G01*
X1116200Y55880D02*
G75*
D01*
G02X1116200Y55880I12500J0*
G01*
X140500Y810260D02*
X40500Y810260D01*
X90500Y760260D02*
X90500Y860260D01*
X53000Y810260D02*
G75*
D01*
G02X53000Y810260I37500J0*
G01*
X65500Y810260D02*
G75*
D01*
G02X65500Y810260I25000J0*
G01*
X78000Y810260D02*
G75*
D01*
G02X78000Y810260I12500J0*
G01*
G54D14*
X771400Y537360D02*
X771400Y558040D01*
X772160Y558800D01*
X844400Y594360D02*
X822960Y594360D01*
X914400Y185420D02*
X914400Y101060D01*
X914400Y185420D02*
X919480Y190500D01*
X919480Y212725D01*
X844400Y578360D02*
X811020Y578360D01*
X803400Y585980D02*
X811020Y578360D01*
X803400Y651360D02*
X803400Y585980D01*
X730400Y626360D02*
X802380Y626360D01*
X803400Y627380D01*
X811400Y651360D02*
X811400Y631320D01*
X812800Y629920D01*
X875877Y257810D02*
X875877Y239183D01*
X880110Y213360D02*
X880110Y234950D01*
X876300Y238760D01*
X899160Y257810D02*
X899160Y274320D01*
X913160Y288320D01*
X980440Y288320D01*
X980440Y329353D01*
X979593Y330200D01*
X979593Y407247D01*
X975360Y411480D01*
X979593Y213360D02*
X979593Y259473D01*
X980440Y260320D01*
X956280Y260320D01*
X955040Y259080D01*
X960967Y330200D02*
X942340Y330200D01*
X730400Y626320D02*
X730400Y626360D01*
G54D15*
X975360Y487680D03*
X975360Y436880D03*
X975360Y538480D03*
X975360Y462280D03*
X975360Y513080D03*
X321310Y360680D03*
X473710Y360680D03*
X473710Y665480D03*
X473710Y513080D03*
X473710Y589280D03*
X473710Y640080D03*
X473710Y614680D03*
X473710Y563880D03*
X473710Y538480D03*
X473710Y436880D03*
X473710Y462280D03*
X473710Y487680D03*
X473710Y386080D03*
X473710Y411480D03*
X473710Y309880D03*
X473710Y335280D03*
X473710Y284480D03*
X321310Y513080D03*
X321310Y589280D03*
X321310Y614680D03*
X321310Y640080D03*
X321310Y538480D03*
X321310Y563880D03*
X321310Y436880D03*
X321310Y462280D03*
X321310Y487680D03*
X321310Y386080D03*
X321310Y411480D03*
X321310Y284480D03*
X321310Y309880D03*
X321310Y335280D03*
X580390Y355600D03*
X758190Y355600D03*
X631190Y355600D03*
X605790Y355600D03*
X656590Y355600D03*
X707390Y355600D03*
X681990Y355600D03*
X732790Y355600D03*
X605790Y279400D03*
X758190Y279400D03*
X681990Y279400D03*
X631190Y279400D03*
X656590Y279400D03*
X732790Y279400D03*
X707390Y279400D03*
G54D16*
X975360Y411480D03*
G54D17*
X972715Y408835D02*
X978005Y408835D01*
X978005Y414125D01*
X972715Y414125D01*
X972715Y408835D01*D02*
G54D18*
X979593Y330200D03*
X960967Y330200D03*
X979593Y213360D03*
X960967Y213360D03*
G54D19*
X976734Y324272D02*
X982452Y324272D01*
X982452Y336128D01*
X976734Y336128D01*
X976734Y324272D01*D02*
X958108Y324272D02*
X963826Y324272D01*
X963826Y336128D01*
X958108Y336128D01*
X958108Y324272D01*D02*
X976734Y207432D02*
X982452Y207432D01*
X982452Y219288D01*
X976734Y219288D01*
X976734Y207432D01*D02*
X958108Y207432D02*
X963826Y207432D01*
X963826Y219288D01*
X958108Y219288D01*
X958108Y207432D01*D02*
X877251Y204470D02*
X882969Y204470D01*
X882969Y222250D01*
X877251Y222250D01*
X877251Y204470D01*D02*
X915351Y204470D02*
X921069Y204470D01*
X921069Y222250D01*
X915351Y222250D01*
X915351Y204470D01*D02*
G54D20*
X487680Y218440D03*
X500380Y205740D03*
X513080Y193040D03*
X525780Y180340D03*
X556260Y241300D03*
X546100Y251460D03*
X535940Y261620D03*
X822960Y215900D03*
X807720Y198120D03*
X838200Y231140D03*
X828040Y490220D03*
X819420Y513080D03*
X812800Y500380D03*
X566420Y269240D03*
X467360Y223520D03*
X825500Y680720D03*
X304800Y200660D03*
X876300Y238760D03*
X955040Y259080D03*
X942340Y330200D03*
X772160Y558800D03*
X822960Y594360D03*
X812800Y629920D03*
X805180Y584200D03*
G54D21*
X321310Y665480D03*
X580390Y279400D03*
G54D22*
X317923Y662093D02*
X324697Y662093D01*
X324697Y668867D01*
X317923Y668867D01*
X317923Y662093D01*D02*
X577003Y276013D02*
X583777Y276013D01*
X583777Y282787D01*
X577003Y282787D01*
X577003Y276013D01*D02*
G54D23*
X880110Y213360D03*
X918210Y213360D03*
G54D24*
X304800Y101060D03*
X330200Y101060D03*
X355600Y101060D03*
X381000Y101060D03*
X406400Y101060D03*
X431800Y101060D03*
X457200Y101060D03*
X482600Y101060D03*
X508000Y101060D03*
X533400Y101060D03*
X558800Y101060D03*
X584200Y101060D03*
X609600Y101060D03*
X635000Y101060D03*
X660400Y101060D03*
X685800Y101060D03*
X711200Y101060D03*
X736600Y101060D03*
X762000Y101060D03*
X787400Y101060D03*
X812800Y101060D03*
X838200Y101060D03*
X863600Y101060D03*
X889000Y101060D03*
X914400Y101060D03*
G54D25*
X875877Y257810D03*
X922443Y257810D03*
X899160Y257810D03*
G54D26*
X872491Y253154D02*
X879263Y253154D01*
X879263Y262466D01*
X872491Y262466D01*
X872491Y253154D01*D02*
X919057Y253154D02*
X925829Y253154D01*
X925829Y262466D01*
X919057Y262466D01*
X919057Y253154D01*D02*
X882229Y315279D02*
X916091Y315279D01*
X916091Y327341D01*
X882229Y327341D01*
X882229Y315279D01*D02*
X895774Y253154D02*
X902546Y253154D01*
X902546Y262466D01*
X895774Y262466D01*
X895774Y253154D01*D02*
G54D27*
X899160Y321310D03*
G54D28*
X980440Y288320D03*
X980440Y260320D03*
G54D29*
X755400Y537360D03*
X747400Y537360D03*
X779400Y537360D03*
X771400Y537360D03*
X763400Y537360D03*
X795400Y537360D03*
X787400Y537360D03*
X819400Y537360D03*
X811400Y537360D03*
X803400Y537360D03*
X827400Y537360D03*
X747400Y651360D03*
X755400Y651360D03*
X763400Y651360D03*
X771400Y651360D03*
X779400Y651360D03*
X787400Y651360D03*
X795400Y651360D03*
X803400Y651360D03*
X811400Y651360D03*
X819400Y651360D03*
X827400Y651360D03*
G54D30*
X730400Y554360D03*
X844400Y554360D03*
X730400Y562360D03*
X730400Y570360D03*
X730400Y578360D03*
X844400Y578360D03*
X844400Y570360D03*
X844400Y562360D03*
X730400Y586360D03*
X730400Y594360D03*
X844400Y594360D03*
X844400Y586360D03*
X730400Y602360D03*
X730400Y610360D03*
X730400Y618360D03*
X844400Y618360D03*
X844400Y610360D03*
X844400Y602360D03*
X730400Y626360D03*
X730400Y634360D03*
X844400Y634360D03*
X844400Y626360D03*

M02*
