G04 Generated by Ultiboard 14.0 *
%FSLAX34Y34*%
%MOMM*%

%ADD10C,0.0001*%
%ADD11C,0.2667*%
%ADD12C,0.1556*%
%ADD13C,0.2032*%
%ADD14C,0.1778*%
%ADD15C,0.2222*%
%ADD16C,0.0010*%
%ADD17C,0.1667*%
%ADD18C,0.1270*%
%ADD19C,0.50000*%
%ADD20C,0.67000*%


G04 ColorRGB FFFF00 for the following layer *
%LNSilkscreen Top*%
%LPD*%
G54D10*
G54D11*
X211583Y573053D02*
X228726Y573053D01*
X220154Y573053D02*
X220154Y571347D01*
X228726Y562813D01*
X220154Y571347D02*
X211583Y562813D01*
X211583Y547453D02*
X211583Y557693D01*
X220154Y557693D01*
X228726Y557693D01*
X228726Y547453D01*
X220154Y557693D02*
X220154Y550867D01*
X228726Y542333D02*
X220154Y537213D01*
X228726Y532093D01*
X220154Y537213D02*
X211583Y537213D01*
X211583Y526973D02*
X211583Y520147D01*
X215011Y516733D01*
X216726Y516733D01*
X220154Y520147D01*
X223583Y516733D01*
X225297Y516733D01*
X228726Y520147D01*
X228726Y525267D01*
X228726Y526973D01*
X220154Y525267D02*
X220154Y520147D01*
X228726Y525267D02*
X211583Y525267D01*
X215011Y511613D02*
X211583Y508200D01*
X211583Y504787D01*
X215011Y501373D01*
X225297Y501373D01*
X228726Y504787D01*
X228726Y508200D01*
X225297Y511613D01*
X215011Y511613D01*
X211583Y496253D02*
X221869Y496253D01*
X228726Y492840D01*
X228726Y489427D01*
X221869Y486013D01*
X211583Y486013D01*
X216726Y496253D02*
X216726Y486013D01*
X211583Y480893D02*
X228726Y480893D01*
X228726Y474067D01*
X225297Y470653D01*
X223583Y470653D01*
X220154Y474067D01*
X220154Y480893D01*
X220154Y479187D02*
X211583Y470653D01*
X211583Y465533D02*
X211583Y458707D01*
X215011Y455293D01*
X225297Y455293D01*
X228726Y458707D01*
X228726Y465533D01*
X228726Y463827D02*
X211583Y463827D01*
X211583Y424573D02*
X211583Y434813D01*
X220154Y434813D01*
X228726Y434813D01*
X228726Y424573D01*
X220154Y434813D02*
X220154Y427987D01*
X211583Y419453D02*
X228726Y419453D01*
X211583Y409213D01*
X228726Y409213D01*
X211583Y404093D02*
X211583Y397267D01*
X215011Y393853D01*
X225297Y393853D01*
X228726Y397267D01*
X228726Y404093D01*
X228726Y402387D02*
X211583Y402387D01*
G54D12*
X966196Y384700D02*
X968187Y382700D01*
X970178Y382700D01*
X972169Y384700D01*
X972169Y392700D01*
X975156Y390700D02*
X977147Y392700D01*
X979138Y392700D01*
X981129Y390700D01*
X981129Y389700D01*
X975156Y382700D01*
X981129Y382700D01*
X981129Y383700D01*
X969629Y346600D02*
X967638Y344600D01*
X965647Y344600D01*
X963656Y346600D01*
X963656Y352600D01*
X965647Y354600D01*
X967638Y354600D01*
X969629Y352600D01*
X978589Y354600D02*
X972616Y354600D01*
X972616Y350600D01*
X976598Y350600D01*
X978589Y348600D01*
X978589Y346600D01*
X976598Y344600D01*
X972616Y344600D01*
X969629Y189120D02*
X967638Y187120D01*
X965647Y187120D01*
X963656Y189120D01*
X963656Y195120D01*
X965647Y197120D01*
X967638Y197120D01*
X969629Y195120D01*
X973611Y196120D02*
X974607Y197120D01*
X976598Y197120D01*
X978589Y195120D01*
X978589Y193120D01*
X977593Y192120D01*
X978589Y191120D01*
X978589Y189120D01*
X976598Y187120D01*
X974607Y187120D01*
X973611Y188120D01*
X974607Y192120D02*
X977593Y192120D01*
X898509Y186580D02*
X896518Y184580D01*
X894527Y184580D01*
X892536Y186580D01*
X892536Y192580D01*
X894527Y194580D01*
X896518Y194580D01*
X898509Y192580D01*
X906473Y194580D02*
X903487Y194580D01*
X901496Y192580D01*
X901496Y188580D01*
X901496Y186580D01*
X903487Y184580D01*
X905478Y184580D01*
X907469Y186580D01*
X907469Y188580D01*
X905478Y190580D01*
X903487Y190580D01*
X901496Y188580D01*
X936552Y281596D02*
X944552Y281596D01*
X946552Y283587D01*
X946552Y285578D01*
X944552Y287569D01*
X936552Y287569D01*
X937552Y291551D02*
X936552Y292547D01*
X936552Y294538D01*
X938552Y296529D01*
X940552Y296529D01*
X941552Y295533D01*
X942552Y296529D01*
X944552Y296529D01*
X946552Y294538D01*
X946552Y292547D01*
X945552Y291551D01*
X941552Y292547D02*
X941552Y295533D01*
X964040Y276209D02*
X966040Y274218D01*
X966040Y272227D01*
X964040Y270236D01*
X958040Y270236D01*
X956040Y272227D01*
X956040Y274218D01*
X958040Y276209D01*
X962040Y285169D02*
X962040Y279196D01*
X956040Y284173D01*
X966040Y284173D01*
X966040Y283178D02*
X966040Y285169D01*
G54D13*
X988060Y551180D02*
X988060Y398780D01*
X962660Y519430D02*
X962660Y424180D01*
X962660Y398780D02*
X988060Y398780D01*
X962660Y422063D02*
X971127Y422063D01*
X962660Y417830D02*
X962660Y398780D01*
X964777Y419947D02*
X962660Y422063D01*
X971127Y523663D02*
X971119Y523847D01*
X971095Y524031D01*
X971055Y524211D01*
X970999Y524387D01*
X970928Y524558D01*
X970843Y524721D01*
X970744Y524877D01*
X970631Y525024D01*
X970507Y525160D01*
X970371Y525284D01*
X970224Y525397D01*
X970068Y525496D01*
X969905Y525581D01*
X969734Y525652D01*
X969558Y525708D01*
X969378Y525748D01*
X969194Y525772D01*
X969010Y525780D01*
X968826Y525772D01*
X968642Y525748D01*
X968462Y525708D01*
X968286Y525652D01*
X968115Y525581D01*
X967952Y525496D01*
X967796Y525397D01*
X967649Y525284D01*
X967513Y525160D01*
X967389Y525024D01*
X967276Y524877D01*
X967177Y524721D01*
X967092Y524558D01*
X967021Y524387D01*
X966965Y524211D01*
X966925Y524031D01*
X966901Y523847D01*
X966893Y523663D01*
X966893Y521547D02*
X962660Y521547D01*
X966893Y521547D02*
X966893Y523663D01*
X962660Y551180D02*
X988060Y551180D01*
X971127Y521547D02*
X971127Y523663D01*
X962660Y551180D02*
X962660Y527897D01*
X962660Y525780D02*
X962660Y521547D01*
X953347Y340783D02*
X987213Y340783D01*
X987213Y319617D02*
X953347Y319617D01*
X953347Y340783D01*
X987213Y340783D02*
X987213Y319617D01*
X987213Y202777D02*
X953347Y202777D01*
X953347Y223943D02*
X987213Y223943D01*
X987213Y202777D01*
X953347Y202777D02*
X953347Y223943D01*
X334010Y271780D02*
X334010Y678180D01*
X461010Y678180D02*
X461010Y271780D01*
X384810Y678180D02*
X384858Y677073D01*
X385003Y675975D01*
X385243Y674893D01*
X385576Y673836D01*
X386000Y672813D01*
X386511Y671830D01*
X387107Y670896D01*
X387781Y670017D01*
X388530Y669200D01*
X389347Y668451D01*
X390226Y667777D01*
X391160Y667181D01*
X392143Y666670D01*
X393166Y666246D01*
X394223Y665913D01*
X395305Y665673D01*
X396403Y665528D01*
X397510Y665480D01*
X398617Y665528D01*
X399715Y665673D01*
X400797Y665913D01*
X401854Y666246D01*
X402877Y666670D01*
X403860Y667181D01*
X404794Y667777D01*
X405673Y668451D01*
X406490Y669200D01*
X407239Y670017D01*
X407913Y670896D01*
X408509Y671830D01*
X409020Y672813D01*
X409444Y673836D01*
X409777Y674893D01*
X410017Y675975D01*
X410162Y677073D01*
X410210Y678180D01*
X452543Y671830D02*
X452359Y671822D01*
X452175Y671798D01*
X451995Y671758D01*
X451819Y671702D01*
X451648Y671631D01*
X451485Y671546D01*
X451329Y671447D01*
X451182Y671334D01*
X451046Y671210D01*
X450922Y671074D01*
X450809Y670927D01*
X450710Y670771D01*
X450625Y670608D01*
X450554Y670437D01*
X450498Y670261D01*
X450458Y670081D01*
X450434Y669897D01*
X450426Y669713D01*
X450434Y669529D01*
X450458Y669345D01*
X450498Y669165D01*
X450554Y668989D01*
X450625Y668818D01*
X450710Y668655D01*
X450809Y668499D01*
X450922Y668352D01*
X451046Y668216D01*
X451182Y668092D01*
X451329Y667979D01*
X451485Y667880D01*
X451648Y667795D01*
X451819Y667724D01*
X451995Y667668D01*
X452175Y667628D01*
X452359Y667604D01*
X452543Y667596D01*
X452727Y667604D01*
X452911Y667628D01*
X453091Y667668D01*
X453267Y667724D01*
X453438Y667795D01*
X453601Y667880D01*
X453757Y667979D01*
X453904Y668092D01*
X454040Y668216D01*
X454164Y668352D01*
X454277Y668499D01*
X454376Y668655D01*
X454461Y668818D01*
X454532Y668989D01*
X454588Y669165D01*
X454628Y669345D01*
X454652Y669529D01*
X454660Y669713D01*
X454668Y669529D01*
X454692Y669345D01*
X454732Y669165D01*
X454788Y668989D01*
X454859Y668818D01*
X454944Y668655D01*
X455043Y668499D01*
X455156Y668352D01*
X455280Y668216D01*
X455416Y668092D01*
X455563Y667979D01*
X455719Y667880D01*
X455882Y667795D01*
X456053Y667724D01*
X456229Y667668D01*
X456409Y667628D01*
X456593Y667604D01*
X456777Y667596D01*
X456961Y667604D01*
X457145Y667628D01*
X457325Y667668D01*
X457501Y667724D01*
X457672Y667795D01*
X457835Y667880D01*
X457991Y667979D01*
X458138Y668092D01*
X458274Y668216D01*
X458398Y668352D01*
X458511Y668499D01*
X458610Y668655D01*
X458695Y668818D01*
X458766Y668989D01*
X458822Y669165D01*
X458862Y669345D01*
X458886Y669529D01*
X458894Y669713D01*
X458886Y669897D01*
X458862Y670081D01*
X458822Y670261D01*
X458766Y670437D01*
X458695Y670608D01*
X458610Y670771D01*
X458511Y670927D01*
X458398Y671074D01*
X458274Y671210D01*
X458138Y671334D01*
X457991Y671447D01*
X457835Y671546D01*
X457672Y671631D01*
X457501Y671702D01*
X457325Y671758D01*
X457145Y671798D01*
X456961Y671822D01*
X456777Y671830D01*
X410210Y678180D02*
X461010Y678180D01*
X334010Y678180D02*
X384810Y678180D01*
X336127Y665480D02*
X344593Y665480D01*
X342477Y667597D01*
X336126Y563880D02*
X336134Y563696D01*
X336158Y563512D01*
X336198Y563332D01*
X336254Y563156D01*
X336325Y562985D01*
X336410Y562822D01*
X336509Y562666D01*
X336622Y562519D01*
X336746Y562383D01*
X336882Y562259D01*
X337029Y562146D01*
X337185Y562047D01*
X337348Y561962D01*
X337519Y561891D01*
X337695Y561835D01*
X337875Y561795D01*
X338059Y561771D01*
X338243Y561763D01*
X338427Y561771D01*
X338611Y561795D01*
X338791Y561835D01*
X338967Y561891D01*
X339138Y561962D01*
X339301Y562047D01*
X339457Y562146D01*
X339604Y562259D01*
X339740Y562383D01*
X339864Y562519D01*
X339977Y562666D01*
X340076Y562822D01*
X340161Y562985D01*
X340232Y563156D01*
X340288Y563332D01*
X340328Y563512D01*
X340352Y563696D01*
X340360Y563880D01*
X336127Y565997D02*
X336127Y563880D01*
X340360Y565997D02*
X340360Y563880D01*
X344593Y565997D02*
X344593Y561763D01*
X340360Y565997D02*
X344593Y565997D01*
X344593Y438997D02*
X342477Y441113D01*
X342477Y432647D02*
X338243Y436880D01*
X342477Y432646D02*
X342661Y432654D01*
X342845Y432678D01*
X343025Y432718D01*
X343201Y432774D01*
X343372Y432845D01*
X343535Y432930D01*
X343691Y433029D01*
X343838Y433142D01*
X343974Y433266D01*
X344098Y433402D01*
X344211Y433549D01*
X344310Y433705D01*
X344395Y433868D01*
X344466Y434039D01*
X344522Y434215D01*
X344562Y434395D01*
X344586Y434579D01*
X344594Y434763D01*
X344586Y434947D01*
X344562Y435131D01*
X344522Y435311D01*
X344466Y435487D01*
X344395Y435658D01*
X344310Y435821D01*
X344211Y435977D01*
X344098Y436124D01*
X343974Y436260D01*
X343838Y436384D01*
X343691Y436497D01*
X343535Y436596D01*
X343372Y436681D01*
X343201Y436752D01*
X343025Y436808D01*
X342845Y436848D01*
X342661Y436872D01*
X342477Y436880D01*
X342477Y432647D02*
X338243Y432647D01*
X338243Y436880D02*
X342477Y436880D01*
X336127Y438997D02*
X344593Y438997D01*
X338243Y436880D02*
X338059Y436872D01*
X337875Y436848D01*
X337695Y436808D01*
X337519Y436752D01*
X337348Y436681D01*
X337185Y436596D01*
X337029Y436497D01*
X336882Y436384D01*
X336746Y436260D01*
X336622Y436124D01*
X336509Y435977D01*
X336410Y435821D01*
X336325Y435658D01*
X336254Y435487D01*
X336198Y435311D01*
X336158Y435131D01*
X336134Y434947D01*
X336126Y434763D01*
X336134Y434579D01*
X336158Y434395D01*
X336198Y434215D01*
X336254Y434039D01*
X336325Y433868D01*
X336410Y433705D01*
X336509Y433549D01*
X336622Y433402D01*
X336746Y433266D01*
X336882Y433142D01*
X337029Y433029D01*
X337185Y432930D01*
X337348Y432845D01*
X337519Y432774D01*
X337695Y432718D01*
X337875Y432678D01*
X338059Y432654D01*
X338243Y432646D01*
X450427Y661247D02*
X450427Y665480D01*
X452543Y665480D01*
X454660Y663363D02*
X454668Y663179D01*
X454692Y662995D01*
X454732Y662815D01*
X454788Y662639D01*
X454859Y662468D01*
X454944Y662305D01*
X455043Y662149D01*
X455156Y662002D01*
X455280Y661866D01*
X455416Y661742D01*
X455563Y661629D01*
X455719Y661530D01*
X455882Y661445D01*
X456053Y661374D01*
X456229Y661318D01*
X456409Y661278D01*
X456593Y661254D01*
X456777Y661246D01*
X456961Y661254D01*
X457145Y661278D01*
X457325Y661318D01*
X457501Y661374D01*
X457672Y661445D01*
X457835Y661530D01*
X457991Y661629D01*
X458138Y661742D01*
X458274Y661866D01*
X458398Y662002D01*
X458511Y662149D01*
X458610Y662305D01*
X458695Y662468D01*
X458766Y662639D01*
X458822Y662815D01*
X458862Y662995D01*
X458886Y663179D01*
X458894Y663363D01*
X458886Y663547D01*
X458862Y663731D01*
X458822Y663911D01*
X458766Y664087D01*
X458695Y664258D01*
X458610Y664421D01*
X458511Y664577D01*
X458398Y664724D01*
X458274Y664860D01*
X458138Y664984D01*
X457991Y665097D01*
X457835Y665196D01*
X457672Y665281D01*
X457501Y665352D01*
X457325Y665408D01*
X457145Y665448D01*
X456961Y665472D01*
X456777Y665480D01*
X454660Y663363D02*
X454652Y663547D01*
X454628Y663731D01*
X454588Y663911D01*
X454532Y664087D01*
X454461Y664258D01*
X454376Y664421D01*
X454277Y664577D01*
X454164Y664724D01*
X454040Y664860D01*
X453904Y664984D01*
X453757Y665097D01*
X453601Y665196D01*
X453438Y665281D01*
X453267Y665352D01*
X453091Y665408D01*
X452911Y665448D01*
X452727Y665472D01*
X452543Y665480D01*
X452543Y559646D02*
X452727Y559654D01*
X452911Y559678D01*
X453091Y559718D01*
X453267Y559774D01*
X453438Y559845D01*
X453601Y559930D01*
X453757Y560029D01*
X453904Y560142D01*
X454040Y560266D01*
X454164Y560402D01*
X454277Y560549D01*
X454376Y560705D01*
X454461Y560868D01*
X454532Y561039D01*
X454588Y561215D01*
X454628Y561395D01*
X454652Y561579D01*
X454660Y561763D01*
X454652Y561947D01*
X454628Y562131D01*
X454588Y562311D01*
X454532Y562487D01*
X454461Y562658D01*
X454376Y562821D01*
X454277Y562977D01*
X454164Y563124D01*
X454040Y563260D01*
X453904Y563384D01*
X453757Y563497D01*
X453601Y563596D01*
X453438Y563681D01*
X453267Y563752D01*
X453091Y563808D01*
X452911Y563848D01*
X452727Y563872D01*
X452543Y563880D01*
X452359Y563872D01*
X452175Y563848D01*
X451995Y563808D01*
X451819Y563752D01*
X451648Y563681D01*
X451485Y563596D01*
X451329Y563497D01*
X451182Y563384D01*
X451046Y563260D01*
X450922Y563124D01*
X450809Y562977D01*
X450710Y562821D01*
X450625Y562658D01*
X450554Y562487D01*
X450498Y562311D01*
X450458Y562131D01*
X450434Y561947D01*
X450426Y561763D01*
X450434Y561579D01*
X450458Y561395D01*
X450498Y561215D01*
X450554Y561039D01*
X450625Y560868D01*
X450710Y560705D01*
X450809Y560549D01*
X450922Y560402D01*
X451046Y560266D01*
X451182Y560142D01*
X451329Y560029D01*
X451485Y559930D01*
X451648Y559845D01*
X451819Y559774D01*
X451995Y559718D01*
X452175Y559678D01*
X452359Y559654D01*
X452543Y559646D01*
X450427Y565997D02*
X450427Y570230D01*
X452543Y570230D01*
X456777Y559646D02*
X456961Y559654D01*
X457145Y559678D01*
X457325Y559718D01*
X457501Y559774D01*
X457672Y559845D01*
X457835Y559930D01*
X457991Y560029D01*
X458138Y560142D01*
X458274Y560266D01*
X458398Y560402D01*
X458511Y560549D01*
X458610Y560705D01*
X458695Y560868D01*
X458766Y561039D01*
X458822Y561215D01*
X458862Y561395D01*
X458886Y561579D01*
X458894Y561763D01*
X458886Y561947D01*
X458862Y562131D01*
X458822Y562311D01*
X458766Y562487D01*
X458695Y562658D01*
X458610Y562821D01*
X458511Y562977D01*
X458398Y563124D01*
X458274Y563260D01*
X458138Y563384D01*
X457991Y563497D01*
X457835Y563596D01*
X457672Y563681D01*
X457501Y563752D01*
X457325Y563808D01*
X457145Y563848D01*
X456961Y563872D01*
X456777Y563880D01*
X456593Y563872D01*
X456409Y563848D01*
X456229Y563808D01*
X456053Y563752D01*
X455882Y563681D01*
X455719Y563596D01*
X455563Y563497D01*
X455416Y563384D01*
X455280Y563260D01*
X455156Y563124D01*
X455043Y562977D01*
X454944Y562821D01*
X454859Y562658D01*
X454788Y562487D01*
X454732Y562311D01*
X454692Y562131D01*
X454668Y561947D01*
X454660Y561763D01*
X454668Y561579D01*
X454692Y561395D01*
X454732Y561215D01*
X454788Y561039D01*
X454859Y560868D01*
X454944Y560705D01*
X455043Y560549D01*
X455156Y560402D01*
X455280Y560266D01*
X455416Y560142D01*
X455563Y560029D01*
X455719Y559930D01*
X455882Y559845D01*
X456053Y559774D01*
X456229Y559718D01*
X456409Y559678D01*
X456593Y559654D01*
X456777Y559646D01*
X454660Y568113D02*
X454668Y567929D01*
X454692Y567745D01*
X454732Y567565D01*
X454788Y567389D01*
X454859Y567218D01*
X454944Y567055D01*
X455043Y566899D01*
X455156Y566752D01*
X455280Y566616D01*
X455416Y566492D01*
X455563Y566379D01*
X455719Y566280D01*
X455882Y566195D01*
X456053Y566124D01*
X456229Y566068D01*
X456409Y566028D01*
X456593Y566004D01*
X456777Y565996D01*
X456961Y566004D01*
X457145Y566028D01*
X457325Y566068D01*
X457501Y566124D01*
X457672Y566195D01*
X457835Y566280D01*
X457991Y566379D01*
X458138Y566492D01*
X458274Y566616D01*
X458398Y566752D01*
X458511Y566899D01*
X458610Y567055D01*
X458695Y567218D01*
X458766Y567389D01*
X458822Y567565D01*
X458862Y567745D01*
X458886Y567929D01*
X458894Y568113D01*
X458886Y568297D01*
X458862Y568481D01*
X458822Y568661D01*
X458766Y568837D01*
X458695Y569008D01*
X458610Y569171D01*
X458511Y569327D01*
X458398Y569474D01*
X458274Y569610D01*
X458138Y569734D01*
X457991Y569847D01*
X457835Y569946D01*
X457672Y570031D01*
X457501Y570102D01*
X457325Y570158D01*
X457145Y570198D01*
X456961Y570222D01*
X456777Y570230D01*
X454660Y568113D02*
X454652Y568297D01*
X454628Y568481D01*
X454588Y568661D01*
X454532Y568837D01*
X454461Y569008D01*
X454376Y569171D01*
X454277Y569327D01*
X454164Y569474D01*
X454040Y569610D01*
X453904Y569734D01*
X453757Y569847D01*
X453601Y569946D01*
X453438Y570031D01*
X453267Y570102D01*
X453091Y570158D01*
X452911Y570198D01*
X452727Y570222D01*
X452543Y570230D01*
X450427Y438997D02*
X450427Y443230D01*
X452543Y443230D01*
X452543Y436880D02*
X452359Y436872D01*
X452175Y436848D01*
X451995Y436808D01*
X451819Y436752D01*
X451648Y436681D01*
X451485Y436596D01*
X451329Y436497D01*
X451182Y436384D01*
X451046Y436260D01*
X450922Y436124D01*
X450809Y435977D01*
X450710Y435821D01*
X450625Y435658D01*
X450554Y435487D01*
X450498Y435311D01*
X450458Y435131D01*
X450434Y434947D01*
X450426Y434763D01*
X450434Y434579D01*
X450458Y434395D01*
X450498Y434215D01*
X450554Y434039D01*
X450625Y433868D01*
X450710Y433705D01*
X450809Y433549D01*
X450922Y433402D01*
X451046Y433266D01*
X451182Y433142D01*
X451329Y433029D01*
X451485Y432930D01*
X451648Y432845D01*
X451819Y432774D01*
X451995Y432718D01*
X452175Y432678D01*
X452359Y432654D01*
X452543Y432646D01*
X452727Y432654D01*
X452911Y432678D01*
X453091Y432718D01*
X453267Y432774D01*
X453438Y432845D01*
X453601Y432930D01*
X453757Y433029D01*
X453904Y433142D01*
X454040Y433266D01*
X454164Y433402D01*
X454277Y433549D01*
X454376Y433705D01*
X454461Y433868D01*
X454532Y434039D01*
X454588Y434215D01*
X454628Y434395D01*
X454652Y434579D01*
X454660Y434763D01*
X454660Y441113D02*
X454668Y440929D01*
X454692Y440745D01*
X454732Y440565D01*
X454788Y440389D01*
X454859Y440218D01*
X454944Y440055D01*
X455043Y439899D01*
X455156Y439752D01*
X455280Y439616D01*
X455416Y439492D01*
X455563Y439379D01*
X455719Y439280D01*
X455882Y439195D01*
X456053Y439124D01*
X456229Y439068D01*
X456409Y439028D01*
X456593Y439004D01*
X456777Y438996D01*
X456961Y439004D01*
X457145Y439028D01*
X457325Y439068D01*
X457501Y439124D01*
X457672Y439195D01*
X457835Y439280D01*
X457991Y439379D01*
X458138Y439492D01*
X458274Y439616D01*
X458398Y439752D01*
X458511Y439899D01*
X458610Y440055D01*
X458695Y440218D01*
X458766Y440389D01*
X458822Y440565D01*
X458862Y440745D01*
X458886Y440929D01*
X458894Y441113D01*
X458886Y441297D01*
X458862Y441481D01*
X458822Y441661D01*
X458766Y441837D01*
X458695Y442008D01*
X458610Y442171D01*
X458511Y442327D01*
X458398Y442474D01*
X458274Y442610D01*
X458138Y442734D01*
X457991Y442847D01*
X457835Y442946D01*
X457672Y443031D01*
X457501Y443102D01*
X457325Y443158D01*
X457145Y443198D01*
X456961Y443222D01*
X456777Y443230D01*
X454660Y441113D02*
X454652Y441297D01*
X454628Y441481D01*
X454588Y441661D01*
X454532Y441837D01*
X454461Y442008D01*
X454376Y442171D01*
X454277Y442327D01*
X454164Y442474D01*
X454040Y442610D01*
X453904Y442734D01*
X453757Y442847D01*
X453601Y442946D01*
X453438Y443031D01*
X453267Y443102D01*
X453091Y443158D01*
X452911Y443198D01*
X452727Y443222D01*
X452543Y443230D01*
X454660Y434763D02*
X454668Y434579D01*
X454692Y434395D01*
X454732Y434215D01*
X454788Y434039D01*
X454859Y433868D01*
X454944Y433705D01*
X455043Y433549D01*
X455156Y433402D01*
X455280Y433266D01*
X455416Y433142D01*
X455563Y433029D01*
X455719Y432930D01*
X455882Y432845D01*
X456053Y432774D01*
X456229Y432718D01*
X456409Y432678D01*
X456593Y432654D01*
X456777Y432646D01*
X456961Y432654D01*
X457145Y432678D01*
X457325Y432718D01*
X457501Y432774D01*
X457672Y432845D01*
X457835Y432930D01*
X457991Y433029D01*
X458138Y433142D01*
X458274Y433266D01*
X458398Y433402D01*
X458511Y433549D01*
X458610Y433705D01*
X458695Y433868D01*
X458766Y434039D01*
X458822Y434215D01*
X458862Y434395D01*
X458886Y434579D01*
X458894Y434763D01*
X458886Y434947D01*
X458862Y435131D01*
X458822Y435311D01*
X458766Y435487D01*
X458695Y435658D01*
X458610Y435821D01*
X458511Y435977D01*
X458398Y436124D01*
X458274Y436260D01*
X458138Y436384D01*
X457991Y436497D01*
X457835Y436596D01*
X457672Y436681D01*
X457501Y436752D01*
X457325Y436808D01*
X457145Y436848D01*
X456961Y436872D01*
X456777Y436880D01*
X461010Y271780D02*
X334010Y271780D01*
X342477Y280246D02*
X342661Y280254D01*
X342845Y280278D01*
X343025Y280318D01*
X343201Y280374D01*
X343372Y280445D01*
X343535Y280530D01*
X343691Y280629D01*
X343838Y280742D01*
X343974Y280866D01*
X344098Y281002D01*
X344211Y281149D01*
X344310Y281305D01*
X344395Y281468D01*
X344466Y281639D01*
X344522Y281815D01*
X344562Y281995D01*
X344586Y282179D01*
X344594Y282363D01*
X344586Y282547D01*
X344562Y282731D01*
X344522Y282911D01*
X344466Y283087D01*
X344395Y283258D01*
X344310Y283421D01*
X344211Y283577D01*
X344098Y283724D01*
X343974Y283860D01*
X343838Y283984D01*
X343691Y284097D01*
X343535Y284196D01*
X343372Y284281D01*
X343201Y284352D01*
X343025Y284408D01*
X342845Y284448D01*
X342661Y284472D01*
X342477Y284480D01*
X338243Y280246D02*
X338427Y280254D01*
X338611Y280278D01*
X338791Y280318D01*
X338967Y280374D01*
X339138Y280445D01*
X339301Y280530D01*
X339457Y280629D01*
X339604Y280742D01*
X339740Y280866D01*
X339864Y281002D01*
X339977Y281149D01*
X340076Y281305D01*
X340161Y281468D01*
X340232Y281639D01*
X340288Y281815D01*
X340328Y281995D01*
X340352Y282179D01*
X340360Y282363D01*
X340352Y282547D01*
X340328Y282731D01*
X340288Y282911D01*
X340232Y283087D01*
X340161Y283258D01*
X340076Y283421D01*
X339977Y283577D01*
X339864Y283724D01*
X339740Y283860D01*
X339604Y283984D01*
X339457Y284097D01*
X339301Y284196D01*
X339138Y284281D01*
X338967Y284352D01*
X338791Y284408D01*
X338611Y284448D01*
X338427Y284472D01*
X338243Y284480D01*
X338059Y284472D01*
X337875Y284448D01*
X337695Y284408D01*
X337519Y284352D01*
X337348Y284281D01*
X337185Y284196D01*
X337029Y284097D01*
X336882Y283984D01*
X336746Y283860D01*
X336622Y283724D01*
X336509Y283577D01*
X336410Y283421D01*
X336325Y283258D01*
X336254Y283087D01*
X336198Y282911D01*
X336158Y282731D01*
X336134Y282547D01*
X336126Y282363D01*
X336134Y282179D01*
X336158Y281995D01*
X336198Y281815D01*
X336254Y281639D01*
X336325Y281468D01*
X336410Y281305D01*
X336509Y281149D01*
X336622Y281002D01*
X336746Y280866D01*
X336882Y280742D01*
X337029Y280629D01*
X337185Y280530D01*
X337348Y280445D01*
X337519Y280374D01*
X337695Y280318D01*
X337875Y280278D01*
X338059Y280254D01*
X338243Y280246D01*
X344593Y286597D02*
X342477Y288713D01*
X336127Y286597D02*
X344593Y286597D01*
X338243Y284480D02*
X342477Y284480D01*
X454660Y282363D02*
X450427Y282363D01*
X450427Y286597D02*
X458893Y286597D01*
X456777Y280247D02*
X454660Y282363D01*
X458893Y284480D02*
X458893Y280247D01*
X458893Y286597D02*
X456777Y288713D01*
X458893Y280247D02*
X456777Y280247D01*
X869527Y198543D02*
X930910Y198543D01*
X930910Y228177D02*
X869527Y228177D01*
X926677Y209127D02*
X926677Y217593D01*
X930910Y217593D01*
X930910Y228177D01*
X930910Y209127D02*
X926677Y209127D01*
X930910Y198543D02*
X930910Y209127D01*
X896620Y205740D02*
X896620Y220980D01*
X895350Y205740D02*
X895350Y220980D01*
X894080Y220980D02*
X894080Y205740D01*
X900430Y205740D02*
X900430Y220980D01*
X904240Y220980D02*
X904240Y205740D01*
X894080Y213360D02*
X890270Y213360D01*
X904240Y213360D02*
X908050Y213360D01*
X869527Y228177D02*
X869527Y198543D01*
X900430Y220980D02*
X904240Y220980D01*
X900430Y205740D02*
X904240Y205740D01*
X933027Y270510D02*
X867410Y270510D01*
X865293Y308610D02*
X933027Y308610D01*
X865293Y270510D02*
X865293Y308610D01*
X867410Y270510D02*
X865293Y270510D01*
X933027Y308610D02*
X933027Y270510D01*
X971440Y279320D02*
X971440Y269320D01*
X989440Y279320D02*
X989440Y269320D01*
X832400Y549360D02*
X742400Y549360D01*
X742400Y639360D02*
X832400Y639360D01*
X832400Y549360D01*
X742400Y549360D02*
X742400Y639360D01*
X567690Y292100D02*
X770890Y292100D01*
X770890Y342900D02*
X567690Y342900D01*
X567690Y304800D02*
X568797Y304848D01*
X569895Y304993D01*
X570977Y305233D01*
X572034Y305566D01*
X573057Y305990D01*
X574040Y306501D01*
X574974Y307097D01*
X575853Y307771D01*
X576670Y308520D01*
X577419Y309337D01*
X578093Y310216D01*
X578689Y311150D01*
X579200Y312133D01*
X579624Y313156D01*
X579957Y314213D01*
X580197Y315295D01*
X580342Y316393D01*
X580390Y317500D01*
X580342Y318607D01*
X580197Y319705D01*
X579957Y320787D01*
X579624Y321844D01*
X579200Y322867D01*
X578689Y323850D01*
X578093Y324784D01*
X577419Y325663D01*
X576670Y326480D01*
X575853Y327229D01*
X574974Y327903D01*
X574040Y328499D01*
X573057Y329010D01*
X572034Y329434D01*
X570977Y329767D01*
X569895Y330007D01*
X568797Y330152D01*
X567690Y330200D01*
X567690Y304800D02*
X567690Y292100D01*
X580390Y294217D02*
X580390Y302683D01*
X578273Y300567D01*
X567690Y342900D02*
X567690Y330200D01*
X584624Y334433D02*
X584616Y334617D01*
X584592Y334801D01*
X584552Y334981D01*
X584496Y335157D01*
X584425Y335328D01*
X584340Y335491D01*
X584241Y335647D01*
X584128Y335794D01*
X584004Y335930D01*
X583868Y336054D01*
X583721Y336167D01*
X583565Y336266D01*
X583402Y336351D01*
X583231Y336422D01*
X583055Y336478D01*
X582875Y336518D01*
X582691Y336542D01*
X582507Y336550D01*
X582323Y336542D01*
X582139Y336518D01*
X581959Y336478D01*
X581783Y336422D01*
X581612Y336351D01*
X581449Y336266D01*
X581293Y336167D01*
X581146Y336054D01*
X581010Y335930D01*
X580886Y335794D01*
X580773Y335647D01*
X580674Y335491D01*
X580589Y335328D01*
X580518Y335157D01*
X580462Y334981D01*
X580422Y334801D01*
X580398Y334617D01*
X580390Y334433D01*
X580398Y334249D01*
X580422Y334065D01*
X580462Y333885D01*
X580518Y333709D01*
X580589Y333538D01*
X580674Y333375D01*
X580773Y333219D01*
X580886Y333072D01*
X581010Y332936D01*
X581146Y332812D01*
X581293Y332699D01*
X581449Y332600D01*
X581612Y332515D01*
X581783Y332444D01*
X581959Y332388D01*
X582139Y332348D01*
X582323Y332324D01*
X582507Y332316D01*
X582691Y332324D01*
X582875Y332348D01*
X583055Y332388D01*
X583231Y332444D01*
X583402Y332515D01*
X583565Y332600D01*
X583721Y332699D01*
X583868Y332812D01*
X584004Y332936D01*
X584128Y333072D01*
X584241Y333219D01*
X584340Y333375D01*
X584425Y333538D01*
X584496Y333709D01*
X584552Y333885D01*
X584592Y334065D01*
X584616Y334249D01*
X584624Y334433D01*
X580390Y334433D02*
X580390Y338667D01*
X584624Y338667D02*
X584616Y338851D01*
X584592Y339035D01*
X584552Y339215D01*
X584496Y339391D01*
X584425Y339562D01*
X584340Y339725D01*
X584241Y339881D01*
X584128Y340028D01*
X584004Y340164D01*
X583868Y340288D01*
X583721Y340401D01*
X583565Y340500D01*
X583402Y340585D01*
X583231Y340656D01*
X583055Y340712D01*
X582875Y340752D01*
X582691Y340776D01*
X582507Y340784D01*
X582323Y340776D01*
X582139Y340752D01*
X581959Y340712D01*
X581783Y340656D01*
X581612Y340585D01*
X581449Y340500D01*
X581293Y340401D01*
X581146Y340288D01*
X581010Y340164D01*
X580886Y340028D01*
X580773Y339881D01*
X580674Y339725D01*
X580589Y339562D01*
X580518Y339391D01*
X580462Y339215D01*
X580422Y339035D01*
X580398Y338851D01*
X580390Y338667D01*
X578273Y332317D02*
X578273Y340783D01*
X576157Y338667D01*
X684107Y336550D02*
X684291Y336558D01*
X684475Y336582D01*
X684655Y336622D01*
X684831Y336678D01*
X685002Y336749D01*
X685165Y336834D01*
X685321Y336933D01*
X685468Y337046D01*
X685604Y337170D01*
X685728Y337306D01*
X685841Y337453D01*
X685940Y337609D01*
X686025Y337772D01*
X686096Y337943D01*
X686152Y338119D01*
X686192Y338299D01*
X686216Y338483D01*
X686224Y338667D01*
X686216Y338851D01*
X686192Y339035D01*
X686152Y339215D01*
X686096Y339391D01*
X686025Y339562D01*
X685940Y339725D01*
X685841Y339881D01*
X685728Y340028D01*
X685604Y340164D01*
X685468Y340288D01*
X685321Y340401D01*
X685165Y340500D01*
X685002Y340585D01*
X684831Y340656D01*
X684655Y340712D01*
X684475Y340752D01*
X684291Y340776D01*
X684107Y340784D01*
X683923Y340776D01*
X683739Y340752D01*
X683559Y340712D01*
X683383Y340656D01*
X683212Y340585D01*
X683049Y340500D01*
X682893Y340401D01*
X682746Y340288D01*
X682610Y340164D01*
X682486Y340028D01*
X682373Y339881D01*
X682274Y339725D01*
X682189Y339562D01*
X682118Y339391D01*
X682062Y339215D01*
X682022Y339035D01*
X681998Y338851D01*
X681990Y338667D01*
X686223Y332317D02*
X681990Y332317D01*
X656590Y294217D02*
X656590Y298450D01*
X658707Y296333D02*
X654473Y296333D01*
X654473Y298450D01*
X656590Y302683D01*
X679873Y332317D02*
X679873Y340783D01*
X684107Y336550D02*
X683923Y336542D01*
X683739Y336518D01*
X683559Y336478D01*
X683383Y336422D01*
X683212Y336351D01*
X683049Y336266D01*
X682893Y336167D01*
X682746Y336054D01*
X682610Y335930D01*
X682486Y335794D01*
X682373Y335647D01*
X682274Y335491D01*
X682189Y335328D01*
X682118Y335157D01*
X682062Y334981D01*
X682022Y334801D01*
X681998Y334617D01*
X681990Y334433D01*
X681990Y332317D02*
X681990Y334433D01*
X679873Y340783D02*
X677757Y338667D01*
X760307Y296333D02*
X760299Y296517D01*
X760275Y296701D01*
X760235Y296881D01*
X760179Y297057D01*
X760108Y297228D01*
X760023Y297391D01*
X759924Y297547D01*
X759811Y297694D01*
X759687Y297830D01*
X759551Y297954D01*
X759404Y298067D01*
X759248Y298166D01*
X759085Y298251D01*
X758914Y298322D01*
X758738Y298378D01*
X758558Y298418D01*
X758374Y298442D01*
X758190Y298450D01*
X758006Y298442D01*
X757822Y298418D01*
X757642Y298378D01*
X757466Y298322D01*
X757295Y298251D01*
X757132Y298166D01*
X756976Y298067D01*
X756829Y297954D01*
X756693Y297830D01*
X756569Y297694D01*
X756456Y297547D01*
X756357Y297391D01*
X756272Y297228D01*
X756201Y297057D01*
X756145Y296881D01*
X756105Y296701D01*
X756081Y296517D01*
X756073Y296333D01*
X756081Y296149D01*
X756105Y295965D01*
X756145Y295785D01*
X756201Y295609D01*
X756272Y295438D01*
X756357Y295275D01*
X756456Y295119D01*
X756569Y294972D01*
X756693Y294836D01*
X756829Y294712D01*
X756976Y294599D01*
X757132Y294500D01*
X757295Y294415D01*
X757466Y294344D01*
X757642Y294288D01*
X757822Y294248D01*
X758006Y294224D01*
X758190Y294216D01*
X758374Y294224D01*
X758558Y294248D01*
X758738Y294288D01*
X758914Y294344D01*
X759085Y294415D01*
X759248Y294500D01*
X759404Y294599D01*
X759551Y294712D01*
X759687Y294836D01*
X759811Y294972D01*
X759924Y295119D01*
X760023Y295275D01*
X760108Y295438D01*
X760179Y295609D01*
X760235Y295785D01*
X760275Y295965D01*
X760299Y296149D01*
X760307Y296333D01*
X760307Y300567D02*
X760299Y300751D01*
X760275Y300935D01*
X760235Y301115D01*
X760179Y301291D01*
X760108Y301462D01*
X760023Y301625D01*
X759924Y301781D01*
X759811Y301928D01*
X759687Y302064D01*
X759551Y302188D01*
X759404Y302301D01*
X759248Y302400D01*
X759085Y302485D01*
X758914Y302556D01*
X758738Y302612D01*
X758558Y302652D01*
X758374Y302676D01*
X758190Y302684D01*
X758006Y302676D01*
X757822Y302652D01*
X757642Y302612D01*
X757466Y302556D01*
X757295Y302485D01*
X757132Y302400D01*
X756976Y302301D01*
X756829Y302188D01*
X756693Y302064D01*
X756569Y301928D01*
X756456Y301781D01*
X756357Y301625D01*
X756272Y301462D01*
X756201Y301291D01*
X756145Y301115D01*
X756105Y300935D01*
X756081Y300751D01*
X756073Y300567D01*
X756081Y300383D01*
X756105Y300199D01*
X756145Y300019D01*
X756201Y299843D01*
X756272Y299672D01*
X756357Y299509D01*
X756456Y299353D01*
X756569Y299206D01*
X756693Y299070D01*
X756829Y298946D01*
X756976Y298833D01*
X757132Y298734D01*
X757295Y298649D01*
X757466Y298578D01*
X757642Y298522D01*
X757822Y298482D01*
X758006Y298458D01*
X758190Y298450D01*
X758374Y298458D01*
X758558Y298482D01*
X758738Y298522D01*
X758914Y298578D01*
X759085Y298649D01*
X759248Y298734D01*
X759404Y298833D01*
X759551Y298946D01*
X759687Y299070D01*
X759811Y299206D01*
X759924Y299353D01*
X760023Y299509D01*
X760108Y299672D01*
X760179Y299843D01*
X760235Y300019D01*
X760275Y300199D01*
X760299Y300383D01*
X760307Y300567D01*
X760307Y338667D02*
X760299Y338851D01*
X760275Y339035D01*
X760235Y339215D01*
X760179Y339391D01*
X760108Y339562D01*
X760023Y339725D01*
X759924Y339881D01*
X759811Y340028D01*
X759687Y340164D01*
X759551Y340288D01*
X759404Y340401D01*
X759248Y340500D01*
X759085Y340585D01*
X758914Y340656D01*
X758738Y340712D01*
X758558Y340752D01*
X758374Y340776D01*
X758190Y340784D01*
X758006Y340776D01*
X757822Y340752D01*
X757642Y340712D01*
X757466Y340656D01*
X757295Y340585D01*
X757132Y340500D01*
X756976Y340401D01*
X756829Y340288D01*
X756693Y340164D01*
X756569Y340028D01*
X756456Y339881D01*
X756357Y339725D01*
X756272Y339562D01*
X756201Y339391D01*
X756145Y339215D01*
X756105Y339035D01*
X756081Y338851D01*
X756073Y338667D01*
X756081Y338483D01*
X756105Y338299D01*
X756145Y338119D01*
X756201Y337943D01*
X756272Y337772D01*
X756357Y337609D01*
X756456Y337453D01*
X756569Y337306D01*
X756693Y337170D01*
X756829Y337046D01*
X756976Y336933D01*
X757132Y336834D01*
X757295Y336749D01*
X757466Y336678D01*
X757642Y336622D01*
X757822Y336582D01*
X758006Y336558D01*
X758190Y336550D01*
X758374Y336558D01*
X758558Y336582D01*
X758738Y336622D01*
X758914Y336678D01*
X759085Y336749D01*
X759248Y336834D01*
X759404Y336933D01*
X759551Y337046D01*
X759687Y337170D01*
X759811Y337306D01*
X759924Y337453D01*
X760023Y337609D01*
X760108Y337772D01*
X760179Y337943D01*
X760235Y338119D01*
X760275Y338299D01*
X760299Y338483D01*
X760307Y338667D01*
X756073Y334433D02*
X756081Y334249D01*
X756105Y334065D01*
X756145Y333885D01*
X756201Y333709D01*
X756272Y333538D01*
X756357Y333375D01*
X756456Y333219D01*
X756569Y333072D01*
X756693Y332936D01*
X756829Y332812D01*
X756976Y332699D01*
X757132Y332600D01*
X757295Y332515D01*
X757466Y332444D01*
X757642Y332388D01*
X757822Y332348D01*
X758006Y332324D01*
X758190Y332316D01*
X758374Y332324D01*
X758558Y332348D01*
X758738Y332388D01*
X758914Y332444D01*
X759085Y332515D01*
X759248Y332600D01*
X759404Y332699D01*
X759551Y332812D01*
X759687Y332936D01*
X759811Y333072D01*
X759924Y333219D01*
X760023Y333375D01*
X760108Y333538D01*
X760179Y333709D01*
X760235Y333885D01*
X760275Y334065D01*
X760299Y334249D01*
X760307Y334433D01*
X770890Y292100D02*
X770890Y342900D01*
G54D14*
X387218Y260477D02*
X387218Y251334D01*
X389493Y249049D01*
X391769Y249049D01*
X394044Y251334D01*
X394044Y260477D01*
X397458Y258191D02*
X399733Y260477D01*
X402009Y260477D01*
X404284Y258191D01*
X404284Y257049D01*
X397458Y249049D01*
X404284Y249049D01*
X404284Y250191D01*
X782198Y518557D02*
X782198Y509414D01*
X784473Y507129D01*
X786749Y507129D01*
X789024Y509414D01*
X789024Y518557D01*
X793576Y516271D02*
X795851Y518557D01*
X795851Y507129D01*
X792438Y507129D02*
X799264Y507129D01*
X778383Y308478D02*
X787526Y308478D01*
X789811Y310753D01*
X789811Y313029D01*
X787526Y315304D01*
X778383Y315304D01*
X785240Y325544D02*
X785240Y318718D01*
X778383Y324407D01*
X789811Y324407D01*
X789811Y323269D02*
X789811Y325544D01*
G54D15*
X607973Y758986D02*
X606551Y758986D01*
X603707Y761843D01*
X603707Y770414D01*
X606551Y773271D01*
X607973Y773271D01*
X622196Y761843D02*
X619351Y758986D01*
X616507Y758986D01*
X613662Y761843D01*
X613662Y770414D01*
X616507Y773271D01*
X619351Y773271D01*
X622196Y770414D01*
X627884Y773271D02*
X629307Y773271D01*
X632151Y770414D01*
X632151Y761843D01*
X629307Y758986D01*
X627884Y758986D01*
X652062Y758986D02*
X652062Y773271D01*
X657751Y773271D01*
X660596Y770414D01*
X660596Y768986D01*
X657751Y766129D01*
X652062Y766129D01*
X653484Y766129D02*
X660596Y758986D01*
X666284Y768986D02*
X670551Y768986D01*
X671973Y767557D01*
X671973Y760414D01*
X670551Y758986D01*
X666284Y758986D01*
X664862Y760414D01*
X664862Y763271D01*
X666284Y764700D01*
X671973Y764700D01*
X671973Y760414D02*
X673396Y758986D01*
X679084Y773271D02*
X679084Y761843D01*
X681929Y758986D01*
X691884Y773271D02*
X691884Y761843D01*
X694729Y758986D01*
X711796Y761843D02*
X708951Y758986D01*
X706107Y758986D01*
X703262Y761843D01*
X703262Y766129D01*
X706107Y768986D01*
X708951Y768986D01*
X711796Y766129D01*
X710373Y764700D01*
X703262Y764700D01*
X728862Y758986D02*
X728862Y773271D01*
X734551Y773271D01*
X737396Y770414D01*
X737396Y768986D01*
X734551Y766129D01*
X728862Y766129D01*
X743084Y768986D02*
X747351Y768986D01*
X748773Y767557D01*
X748773Y760414D01*
X747351Y758986D01*
X743084Y758986D01*
X741662Y760414D01*
X741662Y763271D01*
X743084Y764700D01*
X748773Y764700D01*
X748773Y760414D02*
X750196Y758986D01*
X755884Y773271D02*
X755884Y761843D01*
X758729Y758986D01*
X768684Y768986D02*
X772951Y768986D01*
X774373Y767557D01*
X774373Y760414D01*
X772951Y758986D01*
X768684Y758986D01*
X767262Y760414D01*
X767262Y763271D01*
X768684Y764700D01*
X774373Y764700D01*
X774373Y760414D02*
X775796Y758986D01*
X780062Y768986D02*
X784329Y758986D01*
X788596Y768986D01*
X801396Y761843D02*
X798551Y758986D01*
X795707Y758986D01*
X792862Y761843D01*
X792862Y766129D01*
X795707Y768986D01*
X798551Y768986D01*
X801396Y766129D01*
X799973Y764700D01*
X792862Y764700D01*
X814196Y761843D02*
X811351Y758986D01*
X808507Y758986D01*
X805662Y761843D01*
X805662Y766129D01*
X808507Y768986D01*
X811351Y768986D01*
X814196Y766129D01*
X812773Y764700D01*
X805662Y764700D01*
X818462Y768986D02*
X822729Y758986D01*
X826996Y768986D01*
X609396Y741843D02*
X606551Y738986D01*
X603707Y738986D01*
X600862Y741843D01*
X600862Y750414D01*
X603707Y753271D01*
X606551Y753271D01*
X609396Y750414D01*
X613662Y738986D02*
X613662Y753271D01*
X619351Y753271D01*
X622196Y750414D01*
X622196Y748986D01*
X619351Y746129D01*
X613662Y746129D01*
X626462Y753271D02*
X626462Y738986D01*
X634996Y738986D01*
X639262Y738986D02*
X644951Y738986D01*
X647796Y741843D01*
X647796Y750414D01*
X644951Y753271D01*
X639262Y753271D01*
X640684Y753271D02*
X640684Y738986D01*
X664862Y738986D02*
X664862Y753271D01*
X670551Y753271D01*
X673396Y750414D01*
X673396Y748986D01*
X670551Y746129D01*
X664862Y746129D01*
X666284Y746129D02*
X673396Y738986D01*
X686196Y738986D02*
X677662Y738986D01*
X677662Y746129D01*
X677662Y753271D01*
X686196Y753271D01*
X677662Y746129D02*
X683351Y746129D01*
X690462Y753271D02*
X694729Y738986D01*
X698996Y753271D01*
X707529Y738986D02*
X707529Y740414D01*
X728862Y738986D02*
X734551Y738986D01*
X737396Y741843D01*
X737396Y743271D01*
X734551Y746129D01*
X737396Y748986D01*
X737396Y750414D01*
X734551Y753271D01*
X730284Y753271D01*
X728862Y753271D01*
X730284Y746129D02*
X734551Y746129D01*
X730284Y753271D02*
X730284Y738986D01*
X741662Y734700D02*
X743084Y734700D01*
X750196Y748986D01*
X741662Y748986D02*
X745929Y740414D01*
X772951Y746129D02*
X775796Y746129D01*
X775796Y741843D01*
X772951Y738986D01*
X770107Y738986D01*
X767262Y741843D01*
X767262Y750414D01*
X770107Y753271D01*
X775796Y753271D01*
X780062Y741843D02*
X782907Y738986D01*
X785751Y738986D01*
X788596Y741843D01*
X780062Y750414D01*
X782907Y753271D01*
X785751Y753271D01*
X788596Y750414D01*
X792862Y753271D02*
X801396Y738986D01*
X792862Y738986D02*
X801396Y753271D01*
X818462Y741843D02*
X821307Y738986D01*
X824151Y738986D01*
X826996Y741843D01*
X818462Y750414D01*
X821307Y753271D01*
X824151Y753271D01*
X826996Y750414D01*
X838373Y740414D02*
X836951Y738986D01*
X835529Y740414D01*
X835529Y753271D01*
X832684Y748986D02*
X838373Y748986D01*
X844062Y748986D02*
X844062Y741843D01*
X846907Y738986D01*
X849751Y738986D01*
X852596Y741843D01*
X852596Y748986D01*
X852596Y741843D02*
X852596Y738986D01*
X865396Y741843D02*
X862551Y738986D01*
X859707Y738986D01*
X856862Y741843D01*
X856862Y744700D01*
X859707Y747557D01*
X862551Y747557D01*
X865396Y744700D01*
X865396Y753271D02*
X865396Y738986D01*
X873929Y738986D02*
X873929Y747557D01*
X873929Y750414D02*
X873929Y751843D01*
X882462Y741843D02*
X885307Y738986D01*
X888151Y738986D01*
X890996Y741843D01*
X890996Y746129D01*
X888151Y748986D01*
X885307Y748986D01*
X882462Y746129D01*
X882462Y741843D01*
X899529Y738986D02*
X899529Y740414D01*
X302564Y162814D02*
X305409Y165671D01*
X305409Y151386D01*
X301142Y151386D02*
X309676Y151386D01*
X903122Y162814D02*
X905967Y165671D01*
X908811Y165671D01*
X911656Y162814D01*
X911656Y161386D01*
X903122Y151386D01*
X911656Y151386D01*
X911656Y152814D01*
X924456Y165671D02*
X915922Y165671D01*
X915922Y159957D01*
X921611Y159957D01*
X924456Y157100D01*
X924456Y154243D01*
X921611Y151386D01*
X915922Y151386D01*
G54D16*
G36*
X346158Y768213D02*
X346158Y768213D01*
X346158Y752481D01*
X338602Y752481D01*
X346158Y768213D01*
D02*
G37*
X346158Y752481D01*
X338602Y752481D01*
X346158Y768213D01*
G36*
X346158Y768213D01*
X338602Y752481D01*
X338602Y774689D01*
X346158Y768213D01*
D02*
G37*
X338602Y752481D01*
X338602Y774689D01*
X346158Y768213D01*
G36*
X346158Y768213D01*
X338602Y774689D01*
X353434Y774689D01*
X346158Y768213D01*
D02*
G37*
X338602Y774689D01*
X353434Y774689D01*
X346158Y768213D01*
G36*
X346158Y768213D01*
X353434Y774689D01*
X351165Y768213D01*
X346158Y768213D01*
D02*
G37*
X353434Y774689D01*
X351165Y768213D01*
X346158Y768213D01*
G36*
X360990Y752481D02*
X360990Y752481D01*
X353434Y752481D01*
X354383Y774603D01*
X360990Y752481D01*
D02*
G37*
X353434Y752481D01*
X354383Y774603D01*
X360990Y752481D01*
G36*
X360990Y752481D01*
X354383Y774603D01*
X356202Y774024D01*
X360990Y752481D01*
D02*
G37*
X354383Y774603D01*
X356202Y774024D01*
X360990Y752481D01*
G36*
X360990Y752481D01*
X356202Y774024D01*
X357072Y773531D01*
X360990Y752481D01*
D02*
G37*
X356202Y774024D01*
X357072Y773531D01*
X360990Y752481D01*
G36*
X360990Y752481D01*
X357072Y773531D01*
X358629Y772251D01*
X360990Y752481D01*
D02*
G37*
X357072Y773531D01*
X358629Y772251D01*
X360990Y752481D01*
G36*
X360990Y752481D01*
X358629Y772251D01*
X359870Y770654D01*
X360990Y752481D01*
D02*
G37*
X358629Y772251D01*
X359870Y770654D01*
X360990Y752481D01*
G36*
X360990Y752481D01*
X359870Y770654D01*
X360347Y769764D01*
X360990Y752481D01*
D02*
G37*
X359870Y770654D01*
X360347Y769764D01*
X360990Y752481D01*
G36*
X360990Y752481D01*
X360347Y769764D01*
X360907Y767914D01*
X360990Y752481D01*
D02*
G37*
X360347Y769764D01*
X360907Y767914D01*
X360990Y752481D01*
G36*
X360990Y752481D01*
X360907Y767914D01*
X360990Y766953D01*
X360990Y752481D01*
D02*
G37*
X360907Y767914D01*
X360990Y766953D01*
X360990Y752481D01*
G36*
X353434Y765981D02*
X353434Y765981D01*
X353232Y766771D01*
X353434Y774689D01*
X353434Y765981D01*
D02*
G37*
X353232Y766771D01*
X353434Y774689D01*
X353434Y765981D01*
G36*
X353434Y765981D01*
X353434Y774689D01*
X354383Y774603D01*
X353434Y765981D01*
D02*
G37*
X353434Y774689D01*
X354383Y774603D01*
X353434Y765981D01*
G36*
X353434Y765981D01*
X354383Y774603D01*
X353434Y752481D01*
X353434Y765981D01*
D02*
G37*
X354383Y774603D01*
X353434Y752481D01*
X353434Y765981D01*
G36*
X353434Y774689D02*
X353434Y774689D01*
X353232Y766771D01*
X352705Y767489D01*
X353434Y774689D01*
D02*
G37*
X353232Y766771D01*
X352705Y767489D01*
X353434Y774689D01*
G36*
X353434Y774689D01*
X352705Y767489D01*
X351976Y768011D01*
X353434Y774689D01*
D02*
G37*
X352705Y767489D01*
X351976Y768011D01*
X353434Y774689D01*
G36*
X353434Y774689D01*
X351976Y768011D01*
X351165Y768213D01*
X353434Y774689D01*
D02*
G37*
X351976Y768011D01*
X351165Y768213D01*
X353434Y774689D01*
G36*
X387656Y772870D02*
X387656Y772870D01*
X388386Y760905D01*
X386844Y773492D01*
X387656Y772870D01*
D02*
G37*
X388386Y760905D01*
X386844Y773492D01*
X387656Y772870D01*
G36*
X388386Y760905D02*
X388386Y760905D01*
X387656Y772870D01*
X388983Y771368D01*
X388386Y760905D01*
D02*
G37*
X387656Y772870D01*
X388983Y771368D01*
X388386Y760905D01*
G36*
X388983Y771368D02*
X388983Y771368D01*
X389264Y762188D01*
X388386Y760905D01*
X388983Y771368D01*
D02*
G37*
X389264Y762188D01*
X388386Y760905D01*
X388983Y771368D01*
G36*
X389264Y762188D02*
X389264Y762188D01*
X388983Y771368D01*
X389498Y770489D01*
X389264Y762188D01*
D02*
G37*
X388983Y771368D01*
X389498Y770489D01*
X389264Y762188D01*
G36*
X389498Y770489D02*
X389498Y770489D01*
X389929Y763583D01*
X389264Y762188D01*
X389498Y770489D01*
D02*
G37*
X389929Y763583D01*
X389264Y762188D01*
X389498Y770489D01*
G36*
X389929Y763583D02*
X389929Y763583D01*
X389498Y770489D01*
X390208Y768584D01*
X389929Y763583D01*
D02*
G37*
X389498Y770489D01*
X390208Y768584D01*
X389929Y763583D01*
G36*
X390208Y768584D02*
X390208Y768584D01*
X390345Y765052D01*
X389929Y763583D01*
X390208Y768584D01*
D02*
G37*
X390345Y765052D01*
X389929Y763583D01*
X390208Y768584D01*
G36*
X390345Y765052D02*
X390345Y765052D01*
X390208Y768584D01*
X390474Y766557D01*
X390345Y765052D01*
D02*
G37*
X390208Y768584D01*
X390474Y766557D01*
X390345Y765052D01*
G36*
X388386Y760905D02*
X388386Y760905D01*
X381547Y752481D01*
X381864Y764332D01*
X388386Y760905D01*
D02*
G37*
X381547Y752481D01*
X381864Y764332D01*
X388386Y760905D01*
G36*
X388386Y760905D01*
X381864Y764332D01*
X382072Y764928D01*
X388386Y760905D01*
D02*
G37*
X381864Y764332D01*
X382072Y764928D01*
X388386Y760905D01*
G36*
X388386Y760905D01*
X382072Y764928D01*
X382172Y765511D01*
X388386Y760905D01*
D02*
G37*
X382072Y764928D01*
X382172Y765511D01*
X388386Y760905D01*
G36*
X388386Y760905D01*
X382172Y765511D01*
X382198Y766053D01*
X388386Y760905D01*
D02*
G37*
X382172Y765511D01*
X382198Y766053D01*
X388386Y760905D01*
G36*
X388386Y760905D01*
X382198Y766053D01*
X382702Y774689D01*
X388386Y760905D01*
D02*
G37*
X382198Y766053D01*
X382702Y774689D01*
X388386Y760905D01*
G36*
X388386Y760905D01*
X382702Y774689D01*
X383868Y774600D01*
X388386Y760905D01*
D02*
G37*
X382702Y774689D01*
X383868Y774600D01*
X388386Y760905D01*
G36*
X388386Y760905D01*
X383868Y774600D01*
X385939Y774002D01*
X388386Y760905D01*
D02*
G37*
X383868Y774600D01*
X385939Y774002D01*
X388386Y760905D01*
G36*
X388386Y760905D01*
X385939Y774002D01*
X386844Y773492D01*
X388386Y760905D01*
D02*
G37*
X385939Y774002D01*
X386844Y773492D01*
X388386Y760905D01*
G36*
X373054Y768789D02*
X373054Y768789D01*
X370677Y752481D01*
X370533Y774689D01*
X373054Y768789D01*
D02*
G37*
X370677Y752481D01*
X370533Y774689D01*
X373054Y768789D01*
G36*
X370677Y752481D02*
X370677Y752481D01*
X373054Y768789D01*
X377446Y758673D01*
X370677Y752481D01*
D02*
G37*
X373054Y768789D01*
X377446Y758673D01*
X370677Y752481D01*
G36*
X377446Y758673D02*
X377446Y758673D01*
X381547Y752481D01*
X370677Y752481D01*
X377446Y758673D01*
D02*
G37*
X381547Y752481D01*
X370677Y752481D01*
X377446Y758673D01*
G36*
X381547Y752481D02*
X381547Y752481D01*
X377446Y758673D01*
X381514Y763749D01*
X381547Y752481D01*
D02*
G37*
X377446Y758673D01*
X381514Y763749D01*
X381547Y752481D01*
G36*
X381514Y763749D02*
X381514Y763749D01*
X381864Y764332D01*
X381547Y752481D01*
X381514Y763749D01*
D02*
G37*
X381864Y764332D01*
X381547Y752481D01*
X381514Y763749D01*
G36*
X373306Y768213D02*
X373306Y768213D01*
X377446Y758673D01*
X373054Y768789D01*
X373306Y768213D01*
D02*
G37*
X377446Y758673D01*
X373054Y768789D01*
X373306Y768213D01*
G36*
X373306Y768213D01*
X373054Y768789D01*
X373126Y768789D01*
X373306Y768213D01*
D02*
G37*
X373054Y768789D01*
X373126Y768789D01*
X373306Y768213D01*
G36*
X373306Y768213D01*
X373126Y768789D01*
X382702Y774689D01*
X373306Y768213D01*
D02*
G37*
X373126Y768789D01*
X382702Y774689D01*
X373306Y768213D01*
G36*
X373306Y768213D01*
X382702Y774689D01*
X379930Y768213D01*
X373306Y768213D01*
D02*
G37*
X382702Y774689D01*
X379930Y768213D01*
X373306Y768213D01*
G36*
X382702Y774689D02*
X382702Y774689D01*
X382198Y766053D01*
X382021Y766922D01*
X382702Y774689D01*
D02*
G37*
X382198Y766053D01*
X382021Y766922D01*
X382702Y774689D01*
G36*
X382702Y774689D01*
X382021Y766922D01*
X381537Y767606D01*
X382702Y774689D01*
D02*
G37*
X382021Y766922D01*
X381537Y767606D01*
X382702Y774689D01*
G36*
X382702Y774689D01*
X381537Y767606D01*
X380816Y768053D01*
X382702Y774689D01*
D02*
G37*
X381537Y767606D01*
X380816Y768053D01*
X382702Y774689D01*
G36*
X382702Y774689D01*
X380816Y768053D01*
X379930Y768213D01*
X382702Y774689D01*
D02*
G37*
X380816Y768053D01*
X379930Y768213D01*
X382702Y774689D01*
G36*
X382702Y774689D01*
X373126Y768789D01*
X373126Y774689D01*
X382702Y774689D01*
D02*
G37*
X373126Y768789D01*
X373126Y774689D01*
X382702Y774689D01*
G36*
X370533Y774689D02*
X370533Y774689D01*
X370677Y752481D01*
X361750Y774689D01*
X370533Y774689D01*
D02*
G37*
X370677Y752481D01*
X361750Y774689D01*
X370533Y774689D01*
G36*
X399258Y752481D02*
X399258Y752481D01*
X391702Y752481D01*
X391871Y768073D01*
X399258Y752481D01*
D02*
G37*
X391702Y752481D01*
X391871Y768073D01*
X399258Y752481D01*
G36*
X399258Y752481D01*
X391871Y768073D01*
X392977Y771015D01*
X399258Y752481D01*
D02*
G37*
X391871Y768073D01*
X392977Y771015D01*
X399258Y752481D01*
G36*
X399258Y752481D01*
X392977Y771015D01*
X393915Y772261D01*
X399258Y752481D01*
D02*
G37*
X392977Y771015D01*
X393915Y772261D01*
X399258Y752481D01*
G36*
X399258Y752481D01*
X393915Y772261D01*
X395048Y773290D01*
X399258Y752481D01*
D02*
G37*
X393915Y772261D01*
X395048Y773290D01*
X399258Y752481D01*
G36*
X399258Y752481D01*
X395048Y773290D01*
X397720Y774504D01*
X399258Y752481D01*
D02*
G37*
X395048Y773290D01*
X397720Y774504D01*
X399258Y752481D01*
G36*
X399258Y752481D01*
X397720Y774504D01*
X399258Y774689D01*
X399258Y752481D01*
D02*
G37*
X397720Y774504D01*
X399258Y774689D01*
X399258Y752481D01*
G36*
X399258Y752481D01*
X399258Y774689D01*
X399258Y764541D01*
X399258Y752481D01*
D02*
G37*
X399258Y774689D01*
X399258Y764541D01*
X399258Y752481D01*
G36*
X405738Y774689D02*
X405738Y774689D01*
X405738Y768213D01*
X402714Y768213D01*
X405738Y774689D01*
D02*
G37*
X405738Y768213D01*
X402714Y768213D01*
X405738Y774689D01*
G36*
X405738Y774689D01*
X402714Y768213D01*
X402010Y768131D01*
X405738Y774689D01*
D02*
G37*
X402714Y768213D01*
X402010Y768131D01*
X405738Y774689D01*
G36*
X405738Y774689D01*
X402010Y768131D01*
X400789Y767591D01*
X405738Y774689D01*
D02*
G37*
X402010Y768131D01*
X400789Y767591D01*
X405738Y774689D01*
G36*
X405738Y774689D01*
X400789Y767591D01*
X400270Y767133D01*
X405738Y774689D01*
D02*
G37*
X400789Y767591D01*
X400270Y767133D01*
X405738Y774689D01*
G36*
X405738Y774689D01*
X400270Y767133D01*
X399841Y766582D01*
X405738Y774689D01*
D02*
G37*
X400270Y767133D01*
X399841Y766582D01*
X405738Y774689D01*
G36*
X405738Y774689D01*
X399841Y766582D01*
X399258Y774689D01*
X405738Y774689D01*
D02*
G37*
X399841Y766582D01*
X399258Y774689D01*
X405738Y774689D01*
G36*
X399335Y765286D02*
X399335Y765286D01*
X399258Y764541D01*
X399258Y774689D01*
X399335Y765286D01*
D02*
G37*
X399258Y764541D01*
X399258Y774689D01*
X399335Y765286D01*
G36*
X399335Y765286D01*
X399258Y774689D01*
X399841Y766582D01*
X399335Y765286D01*
D02*
G37*
X399258Y774689D01*
X399841Y766582D01*
X399335Y765286D01*
G36*
X391871Y768073D02*
X391871Y768073D01*
X391702Y752481D01*
X391702Y766377D01*
X391871Y768073D01*
D02*
G37*
X391702Y752481D01*
X391702Y766377D01*
X391871Y768073D01*
G36*
X416950Y759754D02*
X416950Y759754D01*
X417403Y752481D01*
X416232Y760339D01*
X416950Y759754D01*
D02*
G37*
X417403Y752481D01*
X416232Y760339D01*
X416950Y759754D01*
G36*
X417403Y752481D02*
X417403Y752481D01*
X416950Y759754D01*
X418670Y759063D01*
X417403Y752481D01*
D02*
G37*
X416950Y759754D01*
X418670Y759063D01*
X417403Y752481D01*
G36*
X418670Y759063D02*
X418670Y759063D01*
X422049Y752481D01*
X417403Y752481D01*
X418670Y759063D01*
D02*
G37*
X422049Y752481D01*
X417403Y752481D01*
X418670Y759063D01*
G36*
X422049Y752481D02*
X422049Y752481D01*
X418670Y759063D01*
X419672Y758957D01*
X422049Y752481D01*
D02*
G37*
X418670Y759063D01*
X419672Y758957D01*
X422049Y752481D01*
G36*
X419672Y758957D02*
X419672Y758957D01*
X422049Y758957D01*
X422049Y752481D01*
X419672Y758957D01*
D02*
G37*
X422049Y758957D01*
X422049Y752481D01*
X419672Y758957D01*
G36*
X415972Y752602D02*
X415972Y752602D01*
X413288Y753422D01*
X414846Y763639D01*
X415972Y752602D01*
D02*
G37*
X413288Y753422D01*
X414846Y763639D01*
X415972Y752602D01*
G36*
X415972Y752602D01*
X414846Y763639D01*
X414949Y762694D01*
X415972Y752602D01*
D02*
G37*
X414846Y763639D01*
X414949Y762694D01*
X415972Y752602D01*
G36*
X415972Y752602D01*
X414949Y762694D01*
X415643Y761044D01*
X415972Y752602D01*
D02*
G37*
X414949Y762694D01*
X415643Y761044D01*
X415972Y752602D01*
G36*
X415972Y752602D01*
X415643Y761044D01*
X416232Y760339D01*
X415972Y752602D01*
D02*
G37*
X415643Y761044D01*
X416232Y760339D01*
X415972Y752602D01*
G36*
X415972Y752602D01*
X416232Y760339D01*
X417403Y752481D01*
X415972Y752602D01*
D02*
G37*
X416232Y760339D01*
X417403Y752481D01*
X415972Y752602D01*
G36*
X431334Y774689D02*
X431334Y774689D01*
X431334Y752481D01*
X423778Y752481D01*
X431334Y774689D01*
D02*
G37*
X431334Y752481D01*
X423778Y752481D01*
X431334Y774689D01*
G36*
X431334Y774689D01*
X423778Y752481D01*
X423778Y768213D01*
X431334Y774689D01*
D02*
G37*
X423778Y752481D01*
X423778Y768213D01*
X431334Y774689D01*
G36*
X431334Y774689D01*
X423778Y768213D01*
X419600Y768213D01*
X431334Y774689D01*
D02*
G37*
X423778Y768213D01*
X419600Y768213D01*
X431334Y774689D01*
G36*
X431334Y774689D01*
X419600Y768213D01*
X418612Y768124D01*
X431334Y774689D01*
D02*
G37*
X419600Y768213D01*
X418612Y768124D01*
X431334Y774689D01*
G36*
X431334Y774689D01*
X418612Y768124D01*
X417331Y774689D01*
X431334Y774689D01*
D02*
G37*
X418612Y768124D01*
X417331Y774689D01*
X431334Y774689D01*
G36*
X416917Y767493D02*
X416917Y767493D01*
X417331Y774689D01*
X418612Y768124D01*
X416917Y767493D01*
D02*
G37*
X417331Y774689D01*
X418612Y768124D01*
X416917Y767493D01*
G36*
X417331Y774689D02*
X417331Y774689D01*
X416917Y767493D01*
X416210Y766953D01*
X417331Y774689D01*
D02*
G37*
X416917Y767493D01*
X416210Y766953D01*
X417331Y774689D01*
G36*
X416210Y766953D02*
X416210Y766953D01*
X415828Y774571D01*
X417331Y774689D01*
X416210Y766953D01*
D02*
G37*
X415828Y774571D01*
X417331Y774689D01*
X416210Y766953D01*
G36*
X415828Y774571D02*
X415828Y774571D01*
X416210Y766953D01*
X415629Y766284D01*
X415828Y774571D01*
D02*
G37*
X416210Y766953D01*
X415629Y766284D01*
X415828Y774571D01*
G36*
X415629Y766284D02*
X415629Y766284D01*
X414947Y764627D01*
X415828Y774571D01*
X415629Y766284D01*
D02*
G37*
X414947Y764627D01*
X415828Y774571D01*
X415629Y766284D01*
G36*
X406671Y765116D02*
X406671Y765116D01*
X406681Y762278D01*
X406570Y763711D01*
X406671Y765116D01*
D02*
G37*
X406681Y762278D01*
X406570Y763711D01*
X406671Y765116D01*
G36*
X406681Y762278D02*
X406681Y762278D01*
X406671Y765116D01*
X407386Y767787D01*
X406681Y762278D01*
D02*
G37*
X406671Y765116D01*
X407386Y767787D01*
X406681Y762278D01*
G36*
X407386Y767787D02*
X407386Y767787D01*
X407445Y759550D01*
X406681Y762278D01*
X407386Y767787D01*
D02*
G37*
X407445Y759550D01*
X406681Y762278D01*
X407386Y767787D01*
G36*
X407445Y759550D02*
X407445Y759550D01*
X407386Y767787D01*
X408000Y769054D01*
X407445Y759550D01*
D02*
G37*
X407386Y767787D01*
X408000Y769054D01*
X407445Y759550D01*
G36*
X408000Y769054D02*
X408000Y769054D01*
X408099Y758255D01*
X407445Y759550D01*
X408000Y769054D01*
D02*
G37*
X408099Y758255D01*
X407445Y759550D01*
X408000Y769054D01*
G36*
X408099Y758255D02*
X408099Y758255D01*
X408000Y769054D01*
X408764Y770239D01*
X408099Y758255D01*
D02*
G37*
X408000Y769054D01*
X408764Y770239D01*
X408099Y758255D01*
G36*
X408764Y770239D02*
X408764Y770239D01*
X408903Y757042D01*
X408099Y758255D01*
X408764Y770239D01*
D02*
G37*
X408903Y757042D01*
X408099Y758255D01*
X408764Y770239D01*
G36*
X408903Y757042D02*
X408903Y757042D01*
X408764Y770239D01*
X410675Y772257D01*
X408903Y757042D01*
D02*
G37*
X408764Y770239D01*
X410675Y772257D01*
X408903Y757042D01*
G36*
X410675Y772257D02*
X410675Y772257D01*
X410871Y754975D01*
X408903Y757042D01*
X410675Y772257D01*
D02*
G37*
X410871Y754975D01*
X408903Y757042D01*
X410675Y772257D01*
G36*
X410871Y754975D02*
X410871Y754975D01*
X410675Y772257D01*
X411822Y773091D01*
X410871Y754975D01*
D02*
G37*
X410675Y772257D01*
X411822Y773091D01*
X410871Y754975D01*
G36*
X411822Y773091D02*
X411822Y773091D01*
X412035Y754120D01*
X410871Y754975D01*
X411822Y773091D01*
D02*
G37*
X412035Y754120D01*
X410871Y754975D01*
X411822Y773091D01*
G36*
X412035Y754120D02*
X412035Y754120D01*
X411822Y773091D01*
X413074Y773773D01*
X412035Y754120D01*
D02*
G37*
X411822Y773091D01*
X413074Y773773D01*
X412035Y754120D01*
G36*
X413074Y773773D02*
X413074Y773773D01*
X413288Y753422D01*
X412035Y754120D01*
X413074Y773773D01*
D02*
G37*
X413288Y753422D01*
X412035Y754120D01*
X413074Y773773D01*
G36*
X413288Y753422D02*
X413288Y753422D01*
X413074Y773773D01*
X415828Y774571D01*
X413288Y753422D01*
D02*
G37*
X413074Y773773D01*
X415828Y774571D01*
X413288Y753422D01*
G36*
X415828Y774571D02*
X415828Y774571D01*
X414846Y763639D01*
X413288Y753422D01*
X415828Y774571D01*
D02*
G37*
X414846Y763639D01*
X413288Y753422D01*
X415828Y774571D01*
G36*
X414846Y763639D02*
X414846Y763639D01*
X415828Y774571D01*
X414947Y764627D01*
X414846Y763639D01*
D02*
G37*
X415828Y774571D01*
X414947Y764627D01*
X414846Y763639D01*
G36*
X440586Y768213D02*
X440586Y768213D01*
X440586Y752481D01*
X433030Y752481D01*
X440586Y768213D01*
D02*
G37*
X440586Y752481D01*
X433030Y752481D01*
X440586Y768213D01*
G36*
X440586Y768213D01*
X433030Y752481D01*
X433030Y774689D01*
X440586Y768213D01*
D02*
G37*
X433030Y752481D01*
X433030Y774689D01*
X440586Y768213D01*
G36*
X440586Y768213D01*
X433030Y774689D01*
X447106Y774689D01*
X440586Y768213D01*
D02*
G37*
X433030Y774689D01*
X447106Y774689D01*
X440586Y768213D01*
G36*
X440586Y768213D01*
X447106Y774689D01*
X444260Y768213D01*
X440586Y768213D01*
D02*
G37*
X447106Y774689D01*
X444260Y768213D01*
X440586Y768213D01*
G36*
X468810Y752481D02*
X468810Y752481D01*
X461254Y752481D01*
X462160Y774604D01*
X468810Y752481D01*
D02*
G37*
X461254Y752481D01*
X462160Y774604D01*
X468810Y752481D01*
G36*
X468810Y752481D01*
X462160Y774604D01*
X463976Y774030D01*
X468810Y752481D01*
D02*
G37*
X462160Y774604D01*
X463976Y774030D01*
X468810Y752481D01*
G36*
X468810Y752481D01*
X463976Y774030D01*
X464849Y773540D01*
X468810Y752481D01*
D02*
G37*
X463976Y774030D01*
X464849Y773540D01*
X468810Y752481D01*
G36*
X468810Y752481D01*
X464849Y773540D01*
X466417Y772256D01*
X468810Y752481D01*
D02*
G37*
X464849Y773540D01*
X466417Y772256D01*
X468810Y752481D01*
G36*
X468810Y752481D01*
X466417Y772256D01*
X467673Y770633D01*
X468810Y752481D01*
D02*
G37*
X466417Y772256D01*
X467673Y770633D01*
X468810Y752481D01*
G36*
X468810Y752481D01*
X467673Y770633D01*
X468157Y769719D01*
X468810Y752481D01*
D02*
G37*
X467673Y770633D01*
X468157Y769719D01*
X468810Y752481D01*
G36*
X468810Y752481D01*
X468157Y769719D01*
X468725Y767790D01*
X468810Y752481D01*
D02*
G37*
X468157Y769719D01*
X468725Y767790D01*
X468810Y752481D01*
G36*
X468810Y752481D01*
X468725Y767790D01*
X468810Y766773D01*
X468810Y752481D01*
D02*
G37*
X468725Y767790D01*
X468810Y766773D01*
X468810Y752481D01*
G36*
X461254Y765693D02*
X461254Y765693D01*
X461054Y766907D01*
X461218Y774689D01*
X461254Y765693D01*
D02*
G37*
X461054Y766907D01*
X461218Y774689D01*
X461254Y765693D01*
G36*
X461254Y765693D01*
X461218Y774689D01*
X462160Y774604D01*
X461254Y765693D01*
D02*
G37*
X461218Y774689D01*
X462160Y774604D01*
X461254Y765693D01*
G36*
X461254Y765693D01*
X462160Y774604D01*
X461254Y752481D01*
X461254Y765693D01*
D02*
G37*
X462160Y774604D01*
X461254Y752481D01*
X461254Y765693D01*
G36*
X461218Y774689D02*
X461218Y774689D01*
X461054Y766907D01*
X460489Y767682D01*
X461218Y774689D01*
D02*
G37*
X461054Y766907D01*
X460489Y767682D01*
X461218Y774689D01*
G36*
X461218Y774689D01*
X460489Y767682D01*
X459613Y768093D01*
X461218Y774689D01*
D02*
G37*
X460489Y767682D01*
X459613Y768093D01*
X461218Y774689D01*
G36*
X461218Y774689D01*
X459613Y768093D01*
X458481Y768213D01*
X461218Y774689D01*
D02*
G37*
X459613Y768093D01*
X458481Y768213D01*
X461218Y774689D01*
G36*
X461218Y774689D01*
X458481Y768213D01*
X454698Y768213D01*
X461218Y774689D01*
D02*
G37*
X458481Y768213D01*
X454698Y768213D01*
X461218Y774689D01*
G36*
X461218Y774689D01*
X454698Y768213D01*
X454698Y769005D01*
X461218Y774689D01*
D02*
G37*
X454698Y768213D01*
X454698Y769005D01*
X461218Y774689D01*
G36*
X461218Y774689D01*
X454698Y769005D01*
X454698Y774689D01*
X461218Y774689D01*
D02*
G37*
X454698Y769005D01*
X454698Y774689D01*
X461218Y774689D01*
G36*
X454698Y752481D02*
X454698Y752481D01*
X447106Y752481D01*
X448465Y774597D01*
X454698Y752481D01*
D02*
G37*
X447106Y752481D01*
X448465Y774597D01*
X454698Y752481D01*
G36*
X454698Y752481D01*
X448465Y774597D01*
X450855Y773878D01*
X454698Y752481D01*
D02*
G37*
X448465Y774597D01*
X450855Y773878D01*
X454698Y752481D01*
G36*
X454698Y752481D01*
X450855Y773878D01*
X451887Y773250D01*
X454698Y752481D01*
D02*
G37*
X450855Y773878D01*
X451887Y773250D01*
X454698Y752481D01*
G36*
X454698Y752481D01*
X451887Y773250D01*
X452796Y772447D01*
X454698Y752481D01*
D02*
G37*
X451887Y773250D01*
X452796Y772447D01*
X454698Y752481D01*
G36*
X454698Y752481D01*
X452796Y772447D01*
X454201Y770324D01*
X454698Y752481D01*
D02*
G37*
X452796Y772447D01*
X454201Y770324D01*
X454698Y752481D01*
G36*
X454698Y752481D01*
X454201Y770324D01*
X454698Y769005D01*
X454698Y752481D01*
D02*
G37*
X454201Y770324D01*
X454698Y769005D01*
X454698Y752481D01*
G36*
X454698Y752481D01*
X454698Y769005D01*
X454698Y768213D01*
X454698Y752481D01*
D02*
G37*
X454698Y769005D01*
X454698Y768213D01*
X454698Y752481D01*
G36*
X447106Y765693D02*
X447106Y765693D01*
X446920Y766801D01*
X447106Y774689D01*
X447106Y765693D01*
D02*
G37*
X446920Y766801D01*
X447106Y774689D01*
X447106Y765693D01*
G36*
X447106Y765693D01*
X447106Y774689D01*
X448465Y774597D01*
X447106Y765693D01*
D02*
G37*
X447106Y774689D01*
X448465Y774597D01*
X447106Y765693D01*
G36*
X447106Y765693D01*
X448465Y774597D01*
X447106Y752481D01*
X447106Y765693D01*
D02*
G37*
X448465Y774597D01*
X447106Y752481D01*
X447106Y765693D01*
G36*
X447106Y774689D02*
X447106Y774689D01*
X446920Y766801D01*
X446372Y767588D01*
X447106Y774689D01*
D02*
G37*
X446920Y766801D01*
X446372Y767588D01*
X447106Y774689D01*
G36*
X447106Y774689D01*
X446372Y767588D01*
X445480Y768058D01*
X447106Y774689D01*
D02*
G37*
X446372Y767588D01*
X445480Y768058D01*
X447106Y774689D01*
G36*
X447106Y774689D01*
X445480Y768058D01*
X444260Y768213D01*
X447106Y774689D01*
D02*
G37*
X445480Y768058D01*
X444260Y768213D01*
X447106Y774689D01*
G36*
X491451Y759719D02*
X491451Y759719D01*
X491671Y752481D01*
X490671Y760285D01*
X491451Y759719D01*
D02*
G37*
X491671Y752481D01*
X490671Y760285D01*
X491451Y759719D01*
G36*
X491671Y752481D02*
X491671Y752481D01*
X491451Y759719D01*
X493229Y759055D01*
X491671Y752481D01*
D02*
G37*
X491451Y759719D01*
X493229Y759055D01*
X491671Y752481D01*
G36*
X493229Y759055D02*
X493229Y759055D01*
X499266Y752481D01*
X491671Y752481D01*
X493229Y759055D01*
D02*
G37*
X499266Y752481D01*
X491671Y752481D01*
X493229Y759055D01*
G36*
X499266Y752481D02*
X499266Y752481D01*
X493229Y759055D01*
X494227Y758957D01*
X499266Y752481D01*
D02*
G37*
X493229Y759055D01*
X494227Y758957D01*
X499266Y752481D01*
G36*
X494227Y758957D02*
X494227Y758957D01*
X499266Y758957D01*
X499266Y752481D01*
X494227Y758957D01*
D02*
G37*
X499266Y758957D01*
X499266Y752481D01*
X494227Y758957D01*
G36*
X490108Y752591D02*
X490108Y752591D01*
X487280Y753358D01*
X487527Y773811D01*
X490108Y752591D01*
D02*
G37*
X487280Y753358D01*
X487527Y773811D01*
X490108Y752591D01*
G36*
X490108Y752591D01*
X487527Y773811D01*
X489114Y763639D01*
X490108Y752591D01*
D02*
G37*
X487527Y773811D01*
X489114Y763639D01*
X490108Y752591D01*
G36*
X490108Y752591D01*
X489114Y763639D01*
X489237Y762655D01*
X490108Y752591D01*
D02*
G37*
X489114Y763639D01*
X489237Y762655D01*
X490108Y752591D01*
G36*
X490108Y752591D01*
X489237Y762655D01*
X490016Y760978D01*
X490108Y752591D01*
D02*
G37*
X489237Y762655D01*
X490016Y760978D01*
X490108Y752591D01*
G36*
X490108Y752591D01*
X490016Y760978D01*
X490671Y760285D01*
X490108Y752591D01*
D02*
G37*
X490016Y760978D01*
X490671Y760285D01*
X490108Y752591D01*
G36*
X490108Y752591D01*
X490671Y760285D01*
X491671Y752481D01*
X490108Y752591D01*
D02*
G37*
X490671Y760285D01*
X491671Y752481D01*
X490108Y752591D01*
G36*
X487280Y753358D02*
X487280Y753358D01*
X486277Y773155D01*
X487527Y773811D01*
X487280Y753358D01*
D02*
G37*
X486277Y773155D01*
X487527Y773811D01*
X487280Y753358D01*
G36*
X486277Y773155D02*
X486277Y773155D01*
X487280Y753358D01*
X486016Y754016D01*
X486277Y773155D01*
D02*
G37*
X487280Y753358D01*
X486016Y754016D01*
X486277Y773155D01*
G36*
X486016Y754016D02*
X486016Y754016D01*
X485117Y772346D01*
X486277Y773155D01*
X486016Y754016D01*
D02*
G37*
X485117Y772346D01*
X486277Y773155D01*
X486016Y754016D01*
G36*
X485117Y772346D02*
X485117Y772346D01*
X486016Y754016D01*
X484867Y754831D01*
X485117Y772346D01*
D02*
G37*
X486016Y754016D01*
X484867Y754831D01*
X485117Y772346D01*
G36*
X484867Y754831D02*
X484867Y754831D01*
X483158Y770360D01*
X485117Y772346D01*
X484867Y754831D01*
D02*
G37*
X483158Y770360D01*
X485117Y772346D01*
X484867Y754831D01*
G36*
X483158Y770360D02*
X483158Y770360D01*
X484867Y754831D01*
X482971Y756846D01*
X483158Y770360D01*
D02*
G37*
X484867Y754831D01*
X482971Y756846D01*
X483158Y770360D01*
G36*
X482971Y756846D02*
X482971Y756846D01*
X482358Y769182D01*
X483158Y770360D01*
X482971Y756846D01*
D02*
G37*
X482358Y769182D01*
X483158Y770360D01*
X482971Y756846D01*
G36*
X482358Y769182D02*
X482358Y769182D01*
X482971Y756846D01*
X482223Y758047D01*
X482358Y769182D01*
D02*
G37*
X482971Y756846D01*
X482223Y758047D01*
X482358Y769182D01*
G36*
X482223Y758047D02*
X482223Y758047D01*
X481708Y767910D01*
X482358Y769182D01*
X482223Y758047D01*
D02*
G37*
X481708Y767910D01*
X482358Y769182D01*
X482223Y758047D01*
G36*
X481708Y767910D02*
X481708Y767910D01*
X482223Y758047D01*
X481626Y759351D01*
X481708Y767910D01*
D02*
G37*
X482223Y758047D01*
X481626Y759351D01*
X481708Y767910D01*
G36*
X481626Y759351D02*
X481626Y759351D01*
X480948Y765175D01*
X481708Y767910D01*
X481626Y759351D01*
D02*
G37*
X480948Y765175D01*
X481708Y767910D01*
X481626Y759351D01*
G36*
X480948Y765175D02*
X480948Y765175D01*
X481626Y759351D01*
X480933Y762182D01*
X480948Y765175D01*
D02*
G37*
X481626Y759351D01*
X480933Y762182D01*
X480948Y765175D01*
G36*
X480933Y762182D02*
X480933Y762182D01*
X480838Y763711D01*
X480948Y765175D01*
X480933Y762182D01*
D02*
G37*
X480838Y763711D01*
X480948Y765175D01*
X480933Y762182D01*
G36*
X494226Y768213D02*
X494226Y768213D01*
X499266Y774689D01*
X499266Y768213D01*
X494226Y768213D01*
D02*
G37*
X499266Y774689D01*
X499266Y768213D01*
X494226Y768213D01*
G36*
X499266Y774689D02*
X499266Y774689D01*
X494226Y768213D01*
X493170Y768128D01*
X499266Y774689D01*
D02*
G37*
X494226Y768213D01*
X493170Y768128D01*
X499266Y774689D01*
G36*
X493170Y768128D02*
X493170Y768128D01*
X491635Y774689D01*
X499266Y774689D01*
X493170Y768128D01*
D02*
G37*
X491635Y774689D01*
X499266Y774689D01*
X493170Y768128D01*
G36*
X491635Y774689D02*
X491635Y774689D01*
X493170Y768128D01*
X491352Y767511D01*
X491635Y774689D01*
D02*
G37*
X493170Y768128D01*
X491352Y767511D01*
X491635Y774689D01*
G36*
X491352Y767511D02*
X491352Y767511D01*
X490590Y766980D01*
X491635Y774689D01*
X491352Y767511D01*
D02*
G37*
X490590Y766980D01*
X491635Y774689D01*
X491352Y767511D01*
G36*
X490206Y774578D02*
X490206Y774578D01*
X491635Y774689D01*
X490590Y766980D01*
X490206Y774578D01*
D02*
G37*
X491635Y774689D01*
X490590Y766980D01*
X490206Y774578D01*
G36*
X490206Y774578D01*
X490590Y766980D01*
X489963Y766317D01*
X490206Y774578D01*
D02*
G37*
X490590Y766980D01*
X489963Y766317D01*
X490206Y774578D01*
G36*
X490206Y774578D01*
X489963Y766317D01*
X489225Y764647D01*
X490206Y774578D01*
D02*
G37*
X489963Y766317D01*
X489225Y764647D01*
X490206Y774578D01*
G36*
X490206Y774578D01*
X489225Y764647D01*
X489114Y763639D01*
X490206Y774578D01*
D02*
G37*
X489225Y764647D01*
X489114Y763639D01*
X490206Y774578D01*
G36*
X490206Y774578D01*
X489114Y763639D01*
X487527Y773811D01*
X490206Y774578D01*
D02*
G37*
X489114Y763639D01*
X487527Y773811D01*
X490206Y774578D01*
G36*
X510982Y759754D02*
X510982Y759754D01*
X511435Y752481D01*
X510264Y760339D01*
X510982Y759754D01*
D02*
G37*
X511435Y752481D01*
X510264Y760339D01*
X510982Y759754D01*
G36*
X511435Y752481D02*
X511435Y752481D01*
X510982Y759754D01*
X512702Y759063D01*
X511435Y752481D01*
D02*
G37*
X510982Y759754D01*
X512702Y759063D01*
X511435Y752481D01*
G36*
X512702Y759063D02*
X512702Y759063D01*
X516081Y752481D01*
X511435Y752481D01*
X512702Y759063D01*
D02*
G37*
X516081Y752481D01*
X511435Y752481D01*
X512702Y759063D01*
G36*
X516081Y752481D02*
X516081Y752481D01*
X512702Y759063D01*
X513704Y758957D01*
X516081Y752481D01*
D02*
G37*
X512702Y759063D01*
X513704Y758957D01*
X516081Y752481D01*
G36*
X513704Y758957D02*
X513704Y758957D01*
X516081Y758957D01*
X516081Y752481D01*
X513704Y758957D01*
D02*
G37*
X516081Y758957D01*
X516081Y752481D01*
X513704Y758957D01*
G36*
X510004Y752602D02*
X510004Y752602D01*
X507320Y753422D01*
X508878Y763639D01*
X510004Y752602D01*
D02*
G37*
X507320Y753422D01*
X508878Y763639D01*
X510004Y752602D01*
G36*
X510004Y752602D01*
X508878Y763639D01*
X508981Y762694D01*
X510004Y752602D01*
D02*
G37*
X508878Y763639D01*
X508981Y762694D01*
X510004Y752602D01*
G36*
X510004Y752602D01*
X508981Y762694D01*
X509675Y761044D01*
X510004Y752602D01*
D02*
G37*
X508981Y762694D01*
X509675Y761044D01*
X510004Y752602D01*
G36*
X510004Y752602D01*
X509675Y761044D01*
X510264Y760339D01*
X510004Y752602D01*
D02*
G37*
X509675Y761044D01*
X510264Y760339D01*
X510004Y752602D01*
G36*
X510004Y752602D01*
X510264Y760339D01*
X511435Y752481D01*
X510004Y752602D01*
D02*
G37*
X510264Y760339D01*
X511435Y752481D01*
X510004Y752602D01*
G36*
X525366Y774689D02*
X525366Y774689D01*
X525366Y752481D01*
X517810Y752481D01*
X525366Y774689D01*
D02*
G37*
X525366Y752481D01*
X517810Y752481D01*
X525366Y774689D01*
G36*
X525366Y774689D01*
X517810Y752481D01*
X517810Y768213D01*
X525366Y774689D01*
D02*
G37*
X517810Y752481D01*
X517810Y768213D01*
X525366Y774689D01*
G36*
X525366Y774689D01*
X517810Y768213D01*
X513632Y768213D01*
X525366Y774689D01*
D02*
G37*
X517810Y768213D01*
X513632Y768213D01*
X525366Y774689D01*
G36*
X525366Y774689D01*
X513632Y768213D01*
X512644Y768124D01*
X525366Y774689D01*
D02*
G37*
X513632Y768213D01*
X512644Y768124D01*
X525366Y774689D01*
G36*
X525366Y774689D01*
X512644Y768124D01*
X511363Y774689D01*
X525366Y774689D01*
D02*
G37*
X512644Y768124D01*
X511363Y774689D01*
X525366Y774689D01*
G36*
X510949Y767493D02*
X510949Y767493D01*
X511363Y774689D01*
X512644Y768124D01*
X510949Y767493D01*
D02*
G37*
X511363Y774689D01*
X512644Y768124D01*
X510949Y767493D01*
G36*
X511363Y774689D02*
X511363Y774689D01*
X510949Y767493D01*
X510242Y766953D01*
X511363Y774689D01*
D02*
G37*
X510949Y767493D01*
X510242Y766953D01*
X511363Y774689D01*
G36*
X510242Y766953D02*
X510242Y766953D01*
X509860Y774571D01*
X511363Y774689D01*
X510242Y766953D01*
D02*
G37*
X509860Y774571D01*
X511363Y774689D01*
X510242Y766953D01*
G36*
X509860Y774571D02*
X509860Y774571D01*
X510242Y766953D01*
X509661Y766284D01*
X509860Y774571D01*
D02*
G37*
X510242Y766953D01*
X509661Y766284D01*
X509860Y774571D01*
G36*
X509661Y766284D02*
X509661Y766284D01*
X508979Y764627D01*
X509860Y774571D01*
X509661Y766284D01*
D02*
G37*
X508979Y764627D01*
X509860Y774571D01*
X509661Y766284D01*
G36*
X500703Y765116D02*
X500703Y765116D01*
X500713Y762278D01*
X500602Y763711D01*
X500703Y765116D01*
D02*
G37*
X500713Y762278D01*
X500602Y763711D01*
X500703Y765116D01*
G36*
X500713Y762278D02*
X500713Y762278D01*
X500703Y765116D01*
X501418Y767787D01*
X500713Y762278D01*
D02*
G37*
X500703Y765116D01*
X501418Y767787D01*
X500713Y762278D01*
G36*
X501418Y767787D02*
X501418Y767787D01*
X501477Y759550D01*
X500713Y762278D01*
X501418Y767787D01*
D02*
G37*
X501477Y759550D01*
X500713Y762278D01*
X501418Y767787D01*
G36*
X501477Y759550D02*
X501477Y759550D01*
X501418Y767787D01*
X502032Y769054D01*
X501477Y759550D01*
D02*
G37*
X501418Y767787D01*
X502032Y769054D01*
X501477Y759550D01*
G36*
X502032Y769054D02*
X502032Y769054D01*
X502131Y758255D01*
X501477Y759550D01*
X502032Y769054D01*
D02*
G37*
X502131Y758255D01*
X501477Y759550D01*
X502032Y769054D01*
G36*
X502131Y758255D02*
X502131Y758255D01*
X502032Y769054D01*
X502796Y770239D01*
X502131Y758255D01*
D02*
G37*
X502032Y769054D01*
X502796Y770239D01*
X502131Y758255D01*
G36*
X502796Y770239D02*
X502796Y770239D01*
X502935Y757042D01*
X502131Y758255D01*
X502796Y770239D01*
D02*
G37*
X502935Y757042D01*
X502131Y758255D01*
X502796Y770239D01*
G36*
X502935Y757042D02*
X502935Y757042D01*
X502796Y770239D01*
X504707Y772257D01*
X502935Y757042D01*
D02*
G37*
X502796Y770239D01*
X504707Y772257D01*
X502935Y757042D01*
G36*
X504707Y772257D02*
X504707Y772257D01*
X504903Y754975D01*
X502935Y757042D01*
X504707Y772257D01*
D02*
G37*
X504903Y754975D01*
X502935Y757042D01*
X504707Y772257D01*
G36*
X504903Y754975D02*
X504903Y754975D01*
X504707Y772257D01*
X505854Y773091D01*
X504903Y754975D01*
D02*
G37*
X504707Y772257D01*
X505854Y773091D01*
X504903Y754975D01*
G36*
X505854Y773091D02*
X505854Y773091D01*
X506067Y754120D01*
X504903Y754975D01*
X505854Y773091D01*
D02*
G37*
X506067Y754120D01*
X504903Y754975D01*
X505854Y773091D01*
G36*
X506067Y754120D02*
X506067Y754120D01*
X505854Y773091D01*
X507106Y773773D01*
X506067Y754120D01*
D02*
G37*
X505854Y773091D01*
X507106Y773773D01*
X506067Y754120D01*
G36*
X507106Y773773D02*
X507106Y773773D01*
X507320Y753422D01*
X506067Y754120D01*
X507106Y773773D01*
D02*
G37*
X507320Y753422D01*
X506067Y754120D01*
X507106Y773773D01*
G36*
X507320Y753422D02*
X507320Y753422D01*
X507106Y773773D01*
X509860Y774571D01*
X507320Y753422D01*
D02*
G37*
X507106Y773773D01*
X509860Y774571D01*
X507320Y753422D01*
G36*
X509860Y774571D02*
X509860Y774571D01*
X508878Y763639D01*
X507320Y753422D01*
X509860Y774571D01*
D02*
G37*
X508878Y763639D01*
X507320Y753422D01*
X509860Y774571D01*
G36*
X508878Y763639D02*
X508878Y763639D01*
X509860Y774571D01*
X508979Y764627D01*
X508878Y763639D01*
D02*
G37*
X509860Y774571D01*
X508979Y764627D01*
X508878Y763639D01*
G36*
X534618Y752481D02*
X534618Y752481D01*
X527062Y752481D01*
X527231Y768073D01*
X534618Y752481D01*
D02*
G37*
X527062Y752481D01*
X527231Y768073D01*
X534618Y752481D01*
G36*
X534618Y752481D01*
X527231Y768073D01*
X528337Y771015D01*
X534618Y752481D01*
D02*
G37*
X527231Y768073D01*
X528337Y771015D01*
X534618Y752481D01*
G36*
X534618Y752481D01*
X528337Y771015D01*
X529275Y772261D01*
X534618Y752481D01*
D02*
G37*
X528337Y771015D01*
X529275Y772261D01*
X534618Y752481D01*
G36*
X534618Y752481D01*
X529275Y772261D01*
X530408Y773290D01*
X534618Y752481D01*
D02*
G37*
X529275Y772261D01*
X530408Y773290D01*
X534618Y752481D01*
G36*
X534618Y752481D01*
X530408Y773290D01*
X533080Y774504D01*
X534618Y752481D01*
D02*
G37*
X530408Y773290D01*
X533080Y774504D01*
X534618Y752481D01*
G36*
X534618Y752481D01*
X533080Y774504D01*
X534618Y774689D01*
X534618Y752481D01*
D02*
G37*
X533080Y774504D01*
X534618Y774689D01*
X534618Y752481D01*
G36*
X534618Y752481D01*
X534618Y774689D01*
X534618Y764541D01*
X534618Y752481D01*
D02*
G37*
X534618Y774689D01*
X534618Y764541D01*
X534618Y752481D01*
G36*
X541098Y774689D02*
X541098Y774689D01*
X541098Y768213D01*
X538074Y768213D01*
X541098Y774689D01*
D02*
G37*
X541098Y768213D01*
X538074Y768213D01*
X541098Y774689D01*
G36*
X541098Y774689D01*
X538074Y768213D01*
X537370Y768131D01*
X541098Y774689D01*
D02*
G37*
X538074Y768213D01*
X537370Y768131D01*
X541098Y774689D01*
G36*
X541098Y774689D01*
X537370Y768131D01*
X536149Y767591D01*
X541098Y774689D01*
D02*
G37*
X537370Y768131D01*
X536149Y767591D01*
X541098Y774689D01*
G36*
X541098Y774689D01*
X536149Y767591D01*
X535630Y767133D01*
X541098Y774689D01*
D02*
G37*
X536149Y767591D01*
X535630Y767133D01*
X541098Y774689D01*
G36*
X541098Y774689D01*
X535630Y767133D01*
X535201Y766582D01*
X541098Y774689D01*
D02*
G37*
X535630Y767133D01*
X535201Y766582D01*
X541098Y774689D01*
G36*
X541098Y774689D01*
X535201Y766582D01*
X534618Y774689D01*
X541098Y774689D01*
D02*
G37*
X535201Y766582D01*
X534618Y774689D01*
X541098Y774689D01*
G36*
X534695Y765286D02*
X534695Y765286D01*
X534618Y764541D01*
X534618Y774689D01*
X534695Y765286D01*
D02*
G37*
X534618Y764541D01*
X534618Y774689D01*
X534695Y765286D01*
G36*
X534695Y765286D01*
X534618Y774689D01*
X535201Y766582D01*
X534695Y765286D01*
D02*
G37*
X534618Y774689D01*
X535201Y766582D01*
X534695Y765286D01*
G36*
X527231Y768073D02*
X527231Y768073D01*
X527062Y752481D01*
X527062Y766377D01*
X527231Y768073D01*
D02*
G37*
X527062Y752481D01*
X527062Y766377D01*
X527231Y768073D01*
G36*
X566730Y752481D02*
X566730Y752481D01*
X552619Y752481D01*
X553991Y759059D01*
X566730Y752481D01*
D02*
G37*
X552619Y752481D01*
X553991Y759059D01*
X566730Y752481D01*
G36*
X566730Y752481D01*
X553991Y759059D01*
X554960Y758957D01*
X566730Y752481D01*
D02*
G37*
X553991Y759059D01*
X554960Y758957D01*
X566730Y752481D01*
G36*
X566730Y752481D01*
X554960Y758957D01*
X559174Y758957D01*
X566730Y752481D01*
D02*
G37*
X554960Y758957D01*
X559174Y758957D01*
X566730Y752481D01*
G36*
X566730Y752481D01*
X559174Y758957D01*
X566730Y781169D01*
X566730Y752481D01*
D02*
G37*
X559174Y758957D01*
X566730Y781169D01*
X566730Y752481D01*
G36*
X551007Y760994D02*
X551007Y760994D01*
X551192Y752610D01*
X550312Y762626D01*
X551007Y760994D01*
D02*
G37*
X551192Y752610D01*
X550312Y762626D01*
X551007Y760994D01*
G36*
X551192Y752610D02*
X551192Y752610D01*
X551007Y760994D01*
X551597Y760303D01*
X551192Y752610D01*
D02*
G37*
X551007Y760994D01*
X551597Y760303D01*
X551192Y752610D01*
G36*
X551597Y760303D02*
X551597Y760303D01*
X552619Y752481D01*
X551192Y752610D01*
X551597Y760303D01*
D02*
G37*
X552619Y752481D01*
X551192Y752610D01*
X551597Y760303D01*
G36*
X552619Y752481D02*
X552619Y752481D01*
X551597Y760303D01*
X552310Y759732D01*
X552619Y752481D01*
D02*
G37*
X551597Y760303D01*
X552310Y759732D01*
X552619Y752481D01*
G36*
X552310Y759732D02*
X552310Y759732D01*
X553991Y759059D01*
X552619Y752481D01*
X552310Y759732D01*
D02*
G37*
X553991Y759059D01*
X552619Y752481D01*
X552310Y759732D01*
G36*
X550206Y763567D02*
X550206Y763567D01*
X550312Y762626D01*
X551192Y752610D01*
X550206Y763567D01*
D02*
G37*
X550312Y762626D01*
X551192Y752610D01*
X550206Y763567D01*
G36*
X550206Y763567D01*
X551192Y752610D01*
X548526Y753464D01*
X550206Y763567D01*
D02*
G37*
X551192Y752610D01*
X548526Y753464D01*
X550206Y763567D01*
G36*
X550206Y763567D01*
X548526Y753464D01*
X551007Y774580D01*
X550206Y763567D01*
D02*
G37*
X548526Y753464D01*
X551007Y774580D01*
X550206Y763567D01*
G36*
X550206Y763567D01*
X551007Y774580D01*
X550314Y764511D01*
X550206Y763567D01*
D02*
G37*
X551007Y774580D01*
X550314Y764511D01*
X550206Y763567D01*
G36*
X554996Y768213D02*
X554996Y768213D01*
X557445Y774689D01*
X557445Y768213D01*
X554996Y768213D01*
D02*
G37*
X557445Y774689D01*
X557445Y768213D01*
X554996Y768213D01*
G36*
X557445Y774689D02*
X557445Y774689D01*
X554996Y768213D01*
X554025Y768109D01*
X557445Y774689D01*
D02*
G37*
X554996Y768213D01*
X554025Y768109D01*
X557445Y774689D01*
G36*
X554025Y768109D02*
X554025Y768109D01*
X552475Y774689D01*
X557445Y774689D01*
X554025Y768109D01*
D02*
G37*
X552475Y774689D01*
X557445Y774689D01*
X554025Y768109D01*
G36*
X552475Y774689D02*
X552475Y774689D01*
X554025Y768109D01*
X552335Y767427D01*
X552475Y774689D01*
D02*
G37*
X554025Y768109D01*
X552335Y767427D01*
X552475Y774689D01*
G36*
X552335Y767427D02*
X552335Y767427D01*
X551615Y766849D01*
X552475Y774689D01*
X552335Y767427D01*
D02*
G37*
X551615Y766849D01*
X552475Y774689D01*
X552335Y767427D01*
G36*
X551018Y766152D02*
X551018Y766152D01*
X550314Y764511D01*
X551007Y774580D01*
X551018Y766152D01*
D02*
G37*
X550314Y764511D01*
X551007Y774580D01*
X551018Y766152D01*
G36*
X551018Y766152D01*
X551007Y774580D01*
X552475Y774689D01*
X551018Y766152D01*
D02*
G37*
X551007Y774580D01*
X552475Y774689D01*
X551018Y766152D01*
G36*
X551018Y766152D01*
X552475Y774689D01*
X551615Y766849D01*
X551018Y766152D01*
D02*
G37*
X552475Y774689D01*
X551615Y766849D01*
X551018Y766152D01*
G36*
X542029Y765134D02*
X542029Y765134D01*
X542038Y762289D01*
X541930Y763639D01*
X542029Y765134D01*
D02*
G37*
X542038Y762289D01*
X541930Y763639D01*
X542029Y765134D01*
G36*
X542038Y762289D02*
X542038Y762289D01*
X542029Y765134D01*
X542732Y767911D01*
X542038Y762289D01*
D02*
G37*
X542029Y765134D01*
X542732Y767911D01*
X542038Y762289D01*
G36*
X542732Y767911D02*
X542732Y767911D01*
X542783Y759658D01*
X542038Y762289D01*
X542732Y767911D01*
D02*
G37*
X542783Y759658D01*
X542038Y762289D01*
X542732Y767911D01*
G36*
X542783Y759658D02*
X542783Y759658D01*
X542732Y767911D01*
X543337Y769193D01*
X542783Y759658D01*
D02*
G37*
X542732Y767911D01*
X543337Y769193D01*
X542783Y759658D01*
G36*
X543337Y769193D02*
X543337Y769193D01*
X543421Y758377D01*
X542783Y759658D01*
X543337Y769193D01*
D02*
G37*
X543421Y758377D01*
X542783Y759658D01*
X543337Y769193D01*
G36*
X543421Y758377D02*
X543421Y758377D01*
X543337Y769193D01*
X544087Y770376D01*
X543421Y758377D01*
D02*
G37*
X543337Y769193D01*
X544087Y770376D01*
X543421Y758377D01*
G36*
X544087Y770376D02*
X544087Y770376D01*
X544208Y757164D01*
X543421Y758377D01*
X544087Y770376D01*
D02*
G37*
X544208Y757164D01*
X543421Y758377D01*
X544087Y770376D01*
G36*
X544208Y757164D02*
X544208Y757164D01*
X544087Y770376D01*
X545962Y772363D01*
X544208Y757164D01*
D02*
G37*
X544087Y770376D01*
X545962Y772363D01*
X544208Y757164D01*
G36*
X545962Y772363D02*
X545962Y772363D01*
X546141Y755070D01*
X544208Y757164D01*
X545962Y772363D01*
D02*
G37*
X546141Y755070D01*
X544208Y757164D01*
X545962Y772363D01*
G36*
X546141Y755070D02*
X546141Y755070D01*
X545962Y772363D01*
X547086Y773168D01*
X546141Y755070D01*
D02*
G37*
X545962Y772363D01*
X547086Y773168D01*
X546141Y755070D01*
G36*
X547086Y773168D02*
X547086Y773168D01*
X547288Y754190D01*
X546141Y755070D01*
X547086Y773168D01*
D02*
G37*
X547288Y754190D01*
X546141Y755070D01*
X547086Y773168D01*
G36*
X547288Y754190D02*
X547288Y754190D01*
X547086Y773168D01*
X548312Y773820D01*
X547288Y754190D01*
D02*
G37*
X547086Y773168D01*
X548312Y773820D01*
X547288Y754190D01*
G36*
X548312Y773820D02*
X548312Y773820D01*
X548526Y753464D01*
X547288Y754190D01*
X548312Y773820D01*
D02*
G37*
X548526Y753464D01*
X547288Y754190D01*
X548312Y773820D01*
G36*
X548526Y753464D02*
X548526Y753464D01*
X548312Y773820D01*
X551007Y774580D01*
X548526Y753464D01*
D02*
G37*
X548312Y773820D01*
X551007Y774580D01*
X548526Y753464D01*
G36*
X566730Y781169D02*
X566730Y781169D01*
X559174Y758957D01*
X559174Y781169D01*
X566730Y781169D01*
D02*
G37*
X559174Y758957D01*
X559174Y781169D01*
X566730Y781169D01*
G54D17*
X338887Y748229D02*
X342087Y737514D01*
X345287Y748229D01*
X348487Y746086D02*
X350620Y748229D01*
X352753Y748229D01*
X354887Y746086D01*
X354887Y745014D01*
X348487Y737514D01*
X354887Y737514D01*
X354887Y738586D01*
X361287Y737514D02*
X361287Y738586D01*
X367687Y746086D02*
X369820Y748229D01*
X371953Y748229D01*
X374087Y746086D01*
X374087Y739657D01*
X371953Y737514D01*
X369820Y737514D01*
X367687Y739657D01*
X367687Y746086D01*
X374087Y746086D02*
X367687Y739657D01*
G54D18*
X190500Y55880D02*
X190500Y131318D01*
X190500Y55880D02*
X274320Y55880D01*
X1028700Y55880D02*
X944880Y55880D01*
X1028700Y55880D02*
X1028700Y131318D01*
X1028700Y810260D02*
X1028700Y734822D01*
X1028700Y810260D02*
X944880Y810260D01*
X190500Y810260D02*
X274320Y810260D01*
X190500Y810260D02*
X190500Y734822D01*
X140500Y55880D02*
X40500Y55880D01*
X90500Y5880D02*
X90500Y105880D01*
X53000Y55880D02*
G75*
D01*
G02X53000Y55880I37500J0*
G01*
X1078700Y55880D02*
X1178700Y55880D01*
X1128700Y5880D02*
X1128700Y105880D01*
X1091200Y55880D02*
G75*
D01*
G02X1091200Y55880I37500J0*
G01*
X1116200Y55880D02*
G75*
D01*
G02X1116200Y55880I12500J0*
G01*
X140500Y810260D02*
X40500Y810260D01*
X90500Y760260D02*
X90500Y860260D01*
X53000Y810260D02*
G75*
D01*
G02X53000Y810260I37500J0*
G01*
X65500Y810260D02*
G75*
D01*
G02X65500Y810260I25000J0*
G01*
X78000Y810260D02*
G75*
D01*
G02X78000Y810260I12500J0*
G01*
X281940Y58420D02*
X937260Y58420D01*
X279400Y137160D02*
X279400Y60960D01*
X939800Y60960D02*
X939800Y137160D01*
X276860Y139700D02*
X279400Y137160D01*
X279400Y60960D02*
X281940Y58420D01*
X937260Y58420D02*
X939800Y60960D01*
X939800Y137160D02*
X942340Y139700D01*
X1016000Y139700D02*
X1026160Y149860D01*
X942340Y139700D02*
X1016000Y139700D01*
X1026160Y797560D02*
X1016000Y807720D01*
X1026160Y149860D02*
X1026160Y797560D01*
X193040Y797560D02*
X193040Y149860D01*
X203200Y139700D01*
X203200Y807720D02*
X193040Y797560D01*
X203200Y139700D02*
X276860Y139700D01*
X1016000Y807720D02*
X203200Y807720D01*
X190500Y55880D02*
X190500Y131318D01*
X190500Y55880D02*
X274320Y55880D01*
X1028700Y55880D02*
X944880Y55880D01*
X1028700Y55880D02*
X1028700Y131318D01*
X1028700Y810260D02*
X1028700Y734822D01*
X1028700Y810260D02*
X944880Y810260D01*
X190500Y810260D02*
X274320Y810260D01*
X190500Y810260D02*
X190500Y734822D01*
X140500Y55880D02*
X40500Y55880D01*
X90500Y5880D02*
X90500Y105880D01*
X53000Y55880D02*
G75*
D01*
G02X53000Y55880I37500J0*
G01*
X1078700Y55880D02*
X1178700Y55880D01*
X1128700Y5880D02*
X1128700Y105880D01*
X1091200Y55880D02*
G75*
D01*
G02X1091200Y55880I37500J0*
G01*
X1116200Y55880D02*
G75*
D01*
G02X1116200Y55880I12500J0*
G01*
X140500Y810260D02*
X40500Y810260D01*
X90500Y760260D02*
X90500Y860260D01*
X53000Y810260D02*
G75*
D01*
G02X53000Y810260I37500J0*
G01*
X65500Y810260D02*
G75*
D01*
G02X65500Y810260I25000J0*
G01*
X78000Y810260D02*
G75*
D01*
G02X78000Y810260I12500J0*
G01*
G54D19*
X736014Y531503D03*
G54D20*
X752480Y558950D03*

M02*
