M48
METRIC,TZ
VER,1
FMAT,2
DETECT,ON
ATC,ON
T1C0.9000
T2C0.3000
T3C0.8890
T4C0.8466
%
T1
X975360Y487680
Y436880
Y411480
Y538480
Y462280
Y513080
T2
X487680Y218440
X500380Y205740
X513080Y193040
X525780Y180340
X556260Y241300
X546100Y251460
X535940Y261620
X822960Y215900
X807720Y198120
X838200Y231140
X828040Y490220
X819420Y513080
X812800Y500380
X566420Y269240
X467360Y223520
X825500Y680720
X304800Y200660
X876300Y238760
X955040Y259080
X942340Y330200
X772160Y558800
X822960Y594360
X812800Y629920
X805180Y584200
T3
X321310Y360680
X473710
Y665480
Y513080
Y589280
Y640080
Y614680
Y563880
Y538480
Y436880
Y462280
Y487680
Y386080
Y411480
Y309880
Y335280
Y284480
X321310Y513080
Y589280
Y614680
Y640080
Y538480
Y563880
Y436880
Y462280
Y487680
Y386080
Y411480
Y284480
Y309880
Y335280
X580390Y355600
X758190
X631190
X605790
X656590
X707390
X681990
X732790
X605790Y279400
X758190
X681990
X631190
X656590
X732790
X707390
T4
X321310Y665480
X580390Y279400
M30
