G04 Generated by Ultiboard 14.0 *
%FSLAX34Y34*%
%MOMM*%

%ADD10C,0.0001*%
%ADD11C,0.0010*%
%ADD12C,0.1270*%
%ADD13C,1.6088*%
%ADD14R,0.5291X0.5291*%
%ADD15C,0.9949*%
%ADD16R,0.5718X1.1857*%
%ADD17C,0.4232*%
%ADD18C,0.3000*%
%ADD19R,0.6774X0.6774*%
%ADD20C,0.8466*%
%ADD21R,0.5718X1.7780*%
%ADD22O,1.5240X8.0000*%
%ADD23R,0.6772X0.9312*%
%ADD24C,0.5928*%
%ADD25R,3.3863X1.2062*%
%ADD26R,1.8000X1.6000*%
%ADD27R,0.5000X1.5500*%
%ADD28R,1.5500X0.5000*%


G04 ColorRGB FF00CC for the following layer *
%LNSolder Mask Top*%
%LPD*%
G54D10*
G54D11*
G36*
X279400Y58420D02*
X279400Y137160D01*
X939800Y137160D01*
X939800Y58420D01*
X279400Y58420D01*
G37*
G54D12*
X190500Y55880D02*
X190500Y131318D01*
X190500Y55880D02*
X274320Y55880D01*
X1028700Y55880D02*
X944880Y55880D01*
X1028700Y55880D02*
X1028700Y131318D01*
X1028700Y810260D02*
X1028700Y734822D01*
X1028700Y810260D02*
X944880Y810260D01*
X190500Y810260D02*
X274320Y810260D01*
X190500Y810260D02*
X190500Y734822D01*
X140500Y55880D02*
X40500Y55880D01*
X90500Y5880D02*
X90500Y105880D01*
X53000Y55880D02*
G75*
D01*
G02X53000Y55880I37500J0*
G01*
X1078700Y55880D02*
X1178700Y55880D01*
X1128700Y5880D02*
X1128700Y105880D01*
X1091200Y55880D02*
G75*
D01*
G02X1091200Y55880I37500J0*
G01*
X1116200Y55880D02*
G75*
D01*
G02X1116200Y55880I12500J0*
G01*
X140500Y810260D02*
X40500Y810260D01*
X90500Y760260D02*
X90500Y860260D01*
X53000Y810260D02*
G75*
D01*
G02X53000Y810260I37500J0*
G01*
X65500Y810260D02*
G75*
D01*
G02X65500Y810260I25000J0*
G01*
X78000Y810260D02*
G75*
D01*
G02X78000Y810260I12500J0*
G01*
X281940Y58420D02*
X937260Y58420D01*
X279400Y137160D02*
X279400Y60960D01*
X939800Y60960D02*
X939800Y137160D01*
X276860Y139700D02*
X279400Y137160D01*
X279400Y60960D02*
X281940Y58420D01*
X937260Y58420D02*
X939800Y60960D01*
X939800Y137160D02*
X942340Y139700D01*
X1016000Y139700D02*
X1026160Y149860D01*
X942340Y139700D02*
X1016000Y139700D01*
X1026160Y797560D02*
X1016000Y807720D01*
X1026160Y149860D02*
X1026160Y797560D01*
X193040Y797560D02*
X193040Y149860D01*
X203200Y139700D01*
X203200Y807720D02*
X193040Y797560D01*
X203200Y139700D02*
X276860Y139700D01*
X1016000Y807720D02*
X203200Y807720D01*
X190500Y55880D02*
X190500Y131318D01*
X190500Y55880D02*
X274320Y55880D01*
X1028700Y55880D02*
X944880Y55880D01*
X1028700Y55880D02*
X1028700Y131318D01*
X1028700Y810260D02*
X1028700Y734822D01*
X1028700Y810260D02*
X944880Y810260D01*
X190500Y810260D02*
X274320Y810260D01*
X190500Y810260D02*
X190500Y734822D01*
X140500Y55880D02*
X40500Y55880D01*
X90500Y5880D02*
X90500Y105880D01*
X53000Y55880D02*
G75*
D01*
G02X53000Y55880I37500J0*
G01*
X1078700Y55880D02*
X1178700Y55880D01*
X1128700Y5880D02*
X1128700Y105880D01*
X1091200Y55880D02*
G75*
D01*
G02X1091200Y55880I37500J0*
G01*
X1116200Y55880D02*
G75*
D01*
G02X1116200Y55880I12500J0*
G01*
X140500Y810260D02*
X40500Y810260D01*
X90500Y760260D02*
X90500Y860260D01*
X53000Y810260D02*
G75*
D01*
G02X53000Y810260I37500J0*
G01*
X65500Y810260D02*
G75*
D01*
G02X65500Y810260I25000J0*
G01*
X78000Y810260D02*
G75*
D01*
G02X78000Y810260I12500J0*
G01*
G54D13*
X975360Y487680D03*
X975360Y436880D03*
X975360Y538480D03*
X975360Y462280D03*
X975360Y513080D03*
X321310Y360680D03*
X473710Y360680D03*
X473710Y665480D03*
X473710Y513080D03*
X473710Y589280D03*
X473710Y640080D03*
X473710Y614680D03*
X473710Y563880D03*
X473710Y538480D03*
X473710Y436880D03*
X473710Y462280D03*
X473710Y487680D03*
X473710Y386080D03*
X473710Y411480D03*
X473710Y309880D03*
X473710Y335280D03*
X473710Y284480D03*
X321310Y513080D03*
X321310Y589280D03*
X321310Y614680D03*
X321310Y640080D03*
X321310Y538480D03*
X321310Y563880D03*
X321310Y436880D03*
X321310Y462280D03*
X321310Y487680D03*
X321310Y386080D03*
X321310Y411480D03*
X321310Y284480D03*
X321310Y309880D03*
X321310Y335280D03*
X580390Y355600D03*
X758190Y355600D03*
X631190Y355600D03*
X605790Y355600D03*
X656590Y355600D03*
X707390Y355600D03*
X681990Y355600D03*
X732790Y355600D03*
X605790Y279400D03*
X758190Y279400D03*
X681990Y279400D03*
X631190Y279400D03*
X656590Y279400D03*
X732790Y279400D03*
X707390Y279400D03*
G54D14*
X975360Y411480D03*
G54D15*
X972715Y408835D02*
X978005Y408835D01*
X978005Y414125D01*
X972715Y414125D01*
X972715Y408835D01*D02*
G54D16*
X979593Y330200D03*
X960967Y330200D03*
X979593Y213360D03*
X960967Y213360D03*
G54D17*
X976734Y324272D02*
X982452Y324272D01*
X982452Y336128D01*
X976734Y336128D01*
X976734Y324272D01*D02*
X958108Y324272D02*
X963826Y324272D01*
X963826Y336128D01*
X958108Y336128D01*
X958108Y324272D01*D02*
X976734Y207432D02*
X982452Y207432D01*
X982452Y219288D01*
X976734Y219288D01*
X976734Y207432D01*D02*
X958108Y207432D02*
X963826Y207432D01*
X963826Y219288D01*
X958108Y219288D01*
X958108Y207432D01*D02*
X877251Y204470D02*
X882969Y204470D01*
X882969Y222250D01*
X877251Y222250D01*
X877251Y204470D01*D02*
X915351Y204470D02*
X921069Y204470D01*
X921069Y222250D01*
X915351Y222250D01*
X915351Y204470D01*D02*
G54D18*
X487680Y218440D03*
X500380Y205740D03*
X513080Y193040D03*
X525780Y180340D03*
X556260Y241300D03*
X546100Y251460D03*
X535940Y261620D03*
X822960Y215900D03*
X807720Y198120D03*
X838200Y231140D03*
X828040Y490220D03*
X819420Y513080D03*
X812800Y500380D03*
X566420Y269240D03*
X467360Y223520D03*
X825500Y680720D03*
X304800Y200660D03*
X876300Y238760D03*
X955040Y259080D03*
X942340Y330200D03*
X772160Y558800D03*
X822960Y594360D03*
X812800Y629920D03*
X805180Y584200D03*
G54D19*
X321310Y665480D03*
X580390Y279400D03*
G54D20*
X317923Y662093D02*
X324697Y662093D01*
X324697Y668867D01*
X317923Y668867D01*
X317923Y662093D01*D02*
X577003Y276013D02*
X583777Y276013D01*
X583777Y282787D01*
X577003Y282787D01*
X577003Y276013D01*D02*
G54D21*
X880110Y213360D03*
X918210Y213360D03*
G54D22*
X304800Y101060D03*
X330200Y101060D03*
X355600Y101060D03*
X381000Y101060D03*
X406400Y101060D03*
X431800Y101060D03*
X457200Y101060D03*
X482600Y101060D03*
X508000Y101060D03*
X533400Y101060D03*
X558800Y101060D03*
X584200Y101060D03*
X609600Y101060D03*
X635000Y101060D03*
X660400Y101060D03*
X685800Y101060D03*
X711200Y101060D03*
X736600Y101060D03*
X762000Y101060D03*
X787400Y101060D03*
X812800Y101060D03*
X838200Y101060D03*
X863600Y101060D03*
X889000Y101060D03*
X914400Y101060D03*
G54D23*
X875877Y257810D03*
X922443Y257810D03*
X899160Y257810D03*
G54D24*
X872491Y253154D02*
X879263Y253154D01*
X879263Y262466D01*
X872491Y262466D01*
X872491Y253154D01*D02*
X919057Y253154D02*
X925829Y253154D01*
X925829Y262466D01*
X919057Y262466D01*
X919057Y253154D01*D02*
X882229Y315279D02*
X916091Y315279D01*
X916091Y327341D01*
X882229Y327341D01*
X882229Y315279D01*D02*
X895774Y253154D02*
X902546Y253154D01*
X902546Y262466D01*
X895774Y262466D01*
X895774Y253154D01*D02*
G54D25*
X899160Y321310D03*
G54D26*
X980440Y288320D03*
X980440Y260320D03*
G54D27*
X755400Y537360D03*
X747400Y537360D03*
X779400Y537360D03*
X771400Y537360D03*
X763400Y537360D03*
X795400Y537360D03*
X787400Y537360D03*
X819400Y537360D03*
X811400Y537360D03*
X803400Y537360D03*
X827400Y537360D03*
X747400Y651360D03*
X755400Y651360D03*
X763400Y651360D03*
X771400Y651360D03*
X779400Y651360D03*
X787400Y651360D03*
X795400Y651360D03*
X803400Y651360D03*
X811400Y651360D03*
X819400Y651360D03*
X827400Y651360D03*
G54D28*
X730400Y554360D03*
X844400Y554360D03*
X730400Y562360D03*
X730400Y570360D03*
X730400Y578360D03*
X844400Y578360D03*
X844400Y570360D03*
X844400Y562360D03*
X730400Y586360D03*
X730400Y594360D03*
X844400Y594360D03*
X844400Y586360D03*
X730400Y602360D03*
X730400Y610360D03*
X730400Y618360D03*
X844400Y618360D03*
X844400Y610360D03*
X844400Y602360D03*
X730400Y626360D03*
X730400Y634360D03*
X844400Y634360D03*
X844400Y626360D03*

M02*
