G04 Generated by Ultiboard 14.0 *
%FSLAX34Y34*%
%MOMM*%

%ADD10C,0.0001*%
%ADD11C,0.0010*%
%ADD12C,0.2540*%
%ADD13C,0.3810*%
%ADD14C,0.1270*%
%ADD15C,1.6088*%
%ADD16R,0.5291X0.5291*%
%ADD17C,0.9949*%
%ADD18R,1.1857X0.5718*%
%ADD19C,0.4232*%
%ADD20C,0.6000*%
%ADD21R,0.5718X1.1857*%
%ADD22R,0.6774X0.6774*%
%ADD23C,0.8466*%
%ADD24O,1.5240X8.0000*%


G04 ColorRGB 800080 for the following layer *
%LNCopper Bottom*%
%LPD*%
G54D10*
G36*
X965562Y406400D02*
G75*
D01*
G03X972715Y401279I7153J2435*
G01*
X972715Y401279D01*
X978005Y401279D01*
G74*
D01*
G03X985158Y406400I0J7556*
G01*
X985158Y406400D01*
X1023603Y406400D01*
X1023603Y233680D01*
X878523Y233680D01*
G74*
D01*
G03X881755Y237765I2223J5080*
G01*
X881755Y237765D01*
X877422Y237765D01*
G75*
D01*
G03X877422Y239755I-1121J995*
G01*
X877422Y239755D01*
X881755Y239755D01*
G74*
D01*
G03X877295Y244215I5455J995*
G01*
X877295Y244215D01*
X877295Y239882D01*
G75*
D01*
G03X875305Y239882I-995J-1121*
G01*
X875305Y239882D01*
X875305Y244215D01*
G74*
D01*
G03X870845Y239755I995J5455*
G01*
X870845Y239755D01*
X875178Y239755D01*
G75*
D01*
G03X875178Y237765I1121J-995*
G01*
X875178Y237765D01*
X870845Y237765D01*
G74*
D01*
G03X874077Y233680I5455J995*
G01*
X874077Y233680D01*
X843129Y233680D01*
G75*
D01*
G03X834194Y234973I-4928J-2539*
G01*
X834194Y234973D01*
X833120Y234973D01*
X833120Y406400D01*
X965562Y406400D01*
D02*
G37*
%LPC*%
G36*
X956162Y260075D02*
X956162Y260075D01*
X960495Y260075D01*
G74*
D01*
G03X956035Y264535I5455J995*
G01*
X956035Y264535D01*
X956035Y260202D01*
G75*
D01*
G03X954045Y260202I-995J-1121*
G01*
X954045Y260202D01*
X954045Y264535D01*
G74*
D01*
G03X949585Y260075I995J5455*
G01*
X949585Y260075D01*
X953918Y260075D01*
G75*
D01*
G03X953918Y258085I1121J-995*
G01*
X953918Y258085D01*
X949585Y258085D01*
G74*
D01*
G03X954045Y253625I5455J995*
G01*
X954045Y253625D01*
X954045Y257958D01*
G75*
D01*
G03X956035Y257958I995J1121*
G01*
X956035Y257958D01*
X956035Y253625D01*
G74*
D01*
G03X960495Y258085I995J5455*
G01*
X960495Y258085D01*
X956162Y258085D01*
G75*
D01*
G03X956162Y260075I-1121J995*
G01*
D02*
G37*
G36*
X943462Y331195D02*
X943462Y331195D01*
X947795Y331195D01*
G74*
D01*
G03X943335Y335655I5455J995*
G01*
X943335Y335655D01*
X943335Y331322D01*
G75*
D01*
G03X941345Y331322I-995J-1121*
G01*
X941345Y331322D01*
X941345Y335655D01*
G74*
D01*
G03X936885Y331195I995J5455*
G01*
X936885Y331195D01*
X941218Y331195D01*
G75*
D01*
G03X941218Y329205I1121J-995*
G01*
X941218Y329205D01*
X936885Y329205D01*
G74*
D01*
G03X941345Y324745I5455J995*
G01*
X941345Y324745D01*
X941345Y329078D01*
G75*
D01*
G03X943335Y329078I995J1121*
G01*
X943335Y329078D01*
X943335Y324745D01*
G74*
D01*
G03X947795Y329205I995J5455*
G01*
X947795Y329205D01*
X943462Y329205D01*
G75*
D01*
G03X943462Y331195I-1121J995*
G01*
D02*
G37*
%LPD*%
G36*
X401082Y579285D02*
G74*
D01*
G03X398011Y574888I1612J4397*
G01*
X398011Y574888D01*
X398011Y563032D01*
G75*
D01*
G03X402695Y558348I4684J0*
G01*
X402695Y558348D01*
X408412Y558348D01*
G75*
D01*
G03X413095Y563032I-1J4684*
G01*
X413095Y563032D01*
X413095Y574888D01*
G74*
D01*
G03X410025Y579285I4683J1*
G01*
X410025Y579285D01*
X410025Y591878D01*
X463444Y591878D01*
G75*
D01*
G03X483976Y591878I10266J-2595*
G01*
X483976Y591878D01*
X772168Y591878D01*
X772168Y560300D01*
G75*
D01*
G03X771165Y559922I-7J-1500*
G01*
X771165Y559922D01*
X771165Y564255D01*
G74*
D01*
G03X766705Y559795I995J5455*
G01*
X766705Y559795D01*
X771038Y559795D01*
G75*
D01*
G03X771038Y557805I1121J-995*
G01*
X771038Y557805D01*
X766705Y557805D01*
G74*
D01*
G03X771165Y553345I5455J995*
G01*
X771165Y553345D01*
X771165Y557678D01*
G75*
D01*
G03X772168Y557300I995J1121*
G01*
X772168Y557300D01*
X772168Y535940D01*
X483990Y535940D01*
G75*
D01*
G03X463430Y535940I-10280J2539*
G01*
X463430Y535940D01*
X377716Y535940D01*
X355600Y558056D01*
X355600Y572244D01*
X375234Y591878D01*
X401082Y591878D01*
X401082Y579285D01*
D02*
G37*
%LPC*%
G36*
X463121Y563880D02*
G75*
D01*
G03X463121Y563880I10589J0*
G01*
D02*
G37*
G36*
X384068Y579572D02*
G75*
D01*
G03X379385Y574888I1J-4684*
G01*
X379385Y574888D01*
X379385Y569955D01*
X385932Y569955D01*
X385932Y579572D01*
X384068Y579572D01*
D02*
G37*
G36*
X394469Y574888D02*
G74*
D01*
G03X389785Y579572I4684J0*
G01*
X389785Y579572D01*
X387922Y579572D01*
X387922Y569955D01*
X394469Y569955D01*
X394469Y574888D01*
D02*
G37*
G36*
X389785Y558348D02*
G75*
D01*
G03X394469Y563032I0J4684*
G01*
X394469Y563032D01*
X394469Y567965D01*
X387922Y567965D01*
X387922Y558348D01*
X389785Y558348D01*
D02*
G37*
G36*
X384068Y558348D02*
X384068Y558348D01*
X385932Y558348D01*
X385932Y567965D01*
X379385Y567965D01*
X379385Y563032D01*
G75*
D01*
G03X384068Y558348I4683J-1*
G01*
D02*
G37*
%LPD*%
G36*
X878828Y233825D02*
G74*
D01*
G02X877295Y233305I2528J4934*
G01*
X877295Y233305D01*
X877295Y233825D01*
X875305Y233825D01*
X875305Y233305D01*
G74*
D01*
G02X873772Y233825I996J5455*
G01*
X873772Y233825D01*
X863600Y233825D01*
X863600Y143654D01*
G74*
D01*
G02X871671Y139700I0J10214*
G01*
X871671Y139700D01*
X880929Y139700D01*
G75*
D01*
G02X897071Y139700I8071J-6260*
G01*
X897071Y139700D01*
X906329Y139700D01*
G74*
D01*
G02X913405Y143606I8071J6259*
G01*
X913405Y143606D01*
X913405Y139700D01*
X915395Y139700D01*
X915395Y143606D01*
G74*
D01*
G02X922471Y139700I995J10165*
G01*
X922471Y139700D01*
X938723Y139700D01*
X940532Y141508D01*
G75*
D01*
G02X942346Y142257I1808J-1807*
G01*
X942346Y142257D01*
X1014941Y142257D01*
X1023603Y150919D01*
X1023603Y233825D01*
X878828Y233825D01*
D02*
G37*
G36*
X1023603Y576580D02*
X1023603Y576580D01*
X1023603Y640080D01*
X833120Y640080D01*
X833120Y576580D01*
X1023603Y576580D01*
D02*
G37*
G36*
X828040Y407008D02*
X828040Y407008D01*
X833120Y407008D01*
X833120Y238760D01*
X772160Y238760D01*
X772160Y436880D01*
X800708Y436880D01*
X800708Y434352D01*
G75*
D01*
G03X802018Y431178I4472J-12*
G01*
X802018Y431178D01*
X824878Y408318D01*
G74*
D01*
G03X827740Y407019I3161J3162*
G01*
G75*
D01*
G03X828040Y407008I314J4460*
G01*
D02*
G37*
G36*
X797725Y580575D02*
G74*
D01*
G02X793328Y577505I4396J1613*
G01*
X793328Y577505D01*
X781472Y577505D01*
G75*
D01*
G02X776788Y582188I-1J4683*
G01*
X776788Y582188D01*
X776788Y587905D01*
G75*
D01*
G02X781472Y592589I4684J0*
G01*
X781472Y592589D01*
X793328Y592589D01*
G74*
D01*
G02X797725Y589518I1J4684*
G01*
X797725Y589518D01*
X803610Y589518D01*
G75*
D01*
G02X809652Y580921I1573J-5316*
G01*
X809652Y580921D01*
X809652Y553266D01*
X833120Y576734D01*
X833120Y640080D01*
X790094Y640080D01*
X742469Y592455D01*
X741680Y592455D01*
X741680Y548640D01*
X800708Y548640D01*
X800708Y580575D01*
X797725Y580575D01*
D02*
G37*
%LPC*%
G36*
X773282Y559795D02*
G75*
D01*
G02X773282Y557805I-1121J-995*
G01*
X773282Y557805D01*
X777615Y557805D01*
G74*
D01*
G02X773155Y553345I5455J995*
G01*
X773155Y553345D01*
X773155Y557678D01*
G75*
D01*
G02X771165Y557678I-995J1121*
G01*
X771165Y557678D01*
X771165Y553345D01*
G74*
D01*
G02X766705Y557805I995J5455*
G01*
X766705Y557805D01*
X771038Y557805D01*
G75*
D01*
G02X771038Y559795I1121J995*
G01*
X771038Y559795D01*
X766705Y559795D01*
G74*
D01*
G02X771165Y564255I5455J995*
G01*
X771165Y564255D01*
X771165Y559922D01*
G75*
D01*
G02X773155Y559922I995J-1121*
G01*
X773155Y559922D01*
X773155Y564255D01*
G74*
D01*
G02X777615Y559795I995J5455*
G01*
X777615Y559795D01*
X773282Y559795D01*
D02*
G37*
G36*
X776788Y600815D02*
X776788Y600815D01*
X776788Y602678D01*
X786405Y602678D01*
X786405Y596131D01*
X781472Y596131D01*
G75*
D01*
G02X776788Y600815I0J4684*
G01*
D02*
G37*
G36*
X781472Y611215D02*
X781472Y611215D01*
X786405Y611215D01*
X786405Y604668D01*
X776788Y604668D01*
X776788Y606532D01*
G75*
D01*
G02X781472Y611215I4684J-1*
G01*
D02*
G37*
G36*
X798012Y606532D02*
X798012Y606532D01*
X798012Y604668D01*
X788395Y604668D01*
X788395Y611215D01*
X793328Y611215D01*
G74*
D01*
G02X798012Y606532I1J4683*
G01*
D02*
G37*
G36*
X798012Y600815D02*
G75*
D01*
G02X793328Y596131I-4684J0*
G01*
X793328Y596131D01*
X788395Y596131D01*
X788395Y602678D01*
X798012Y602678D01*
X798012Y600815D01*
D02*
G37*
G36*
X824082Y595355D02*
G75*
D01*
G02X824082Y593365I-1121J-995*
G01*
X824082Y593365D01*
X828415Y593365D01*
G74*
D01*
G02X823955Y588905I5455J995*
G01*
X823955Y588905D01*
X823955Y593238D01*
G75*
D01*
G02X821965Y593238I-995J1121*
G01*
X821965Y593238D01*
X821965Y588905D01*
G74*
D01*
G02X817505Y593365I995J5455*
G01*
X817505Y593365D01*
X821838Y593365D01*
G75*
D01*
G02X821838Y595355I1121J995*
G01*
X821838Y595355D01*
X817505Y595355D01*
G74*
D01*
G02X821965Y599815I5455J995*
G01*
X821965Y599815D01*
X821965Y595482D01*
G75*
D01*
G02X823955Y595482I995J-1121*
G01*
X823955Y595482D01*
X823955Y599815D01*
G74*
D01*
G02X828415Y595355I995J5455*
G01*
X828415Y595355D01*
X824082Y595355D01*
D02*
G37*
G36*
X813922Y630915D02*
G75*
D01*
G02X813922Y628925I-1121J-995*
G01*
X813922Y628925D01*
X818255Y628925D01*
G74*
D01*
G02X813795Y624465I5455J995*
G01*
X813795Y624465D01*
X813795Y628798D01*
G75*
D01*
G02X811805Y628798I-995J1121*
G01*
X811805Y628798D01*
X811805Y624465D01*
G74*
D01*
G02X807345Y628925I995J5455*
G01*
X807345Y628925D01*
X811678Y628925D01*
G75*
D01*
G02X811678Y630915I1121J995*
G01*
X811678Y630915D01*
X807345Y630915D01*
G74*
D01*
G02X811805Y635375I5455J995*
G01*
X811805Y635375D01*
X811805Y631042D01*
G75*
D01*
G02X813795Y631042I995J-1121*
G01*
X813795Y631042D01*
X813795Y635375D01*
G74*
D01*
G02X818255Y630915I995J5455*
G01*
X818255Y630915D01*
X813922Y630915D01*
D02*
G37*
%LPD*%
G36*
X985520Y408044D02*
X985520Y408044D01*
X985520Y406313D01*
X1023603Y406313D01*
X1023603Y576580D01*
X985520Y576580D01*
X985520Y541465D01*
G75*
D01*
G02X985520Y535495I-10160J-2985*
G01*
X985520Y535495D01*
X985520Y516065D01*
G75*
D01*
G02X985520Y510095I-10160J-2985*
G01*
X985520Y510095D01*
X985520Y490665D01*
G75*
D01*
G02X985520Y484695I-10160J-2985*
G01*
X985520Y484695D01*
X985520Y465265D01*
G75*
D01*
G02X985520Y459295I-10160J-2985*
G01*
X985520Y459295D01*
X985520Y439865D01*
G74*
D01*
G02X985902Y437875I10160J2982*
G01*
X985902Y437875D01*
X985520Y437875D01*
X985520Y435885D01*
X985902Y435885D01*
G74*
D01*
G02X985520Y433895I10541J992*
G01*
X985520Y433895D01*
X985520Y414916D01*
G74*
D01*
G02X985561Y414125I7515J786*
G01*
X985561Y414125D01*
X985561Y408835D01*
G75*
D01*
G02X985520Y408044I-7556J-5*
G01*
D02*
G37*
G36*
X311173Y287543D02*
X311173Y287543D01*
X311173Y295592D01*
X316191Y300610D01*
G75*
D01*
G03X325579Y300190I5118J9270*
G01*
X325579Y300190D01*
X387179Y238589D01*
G75*
D01*
G03X389896Y237467I2710J2711*
G01*
X389896Y237467D01*
X391160Y237467D01*
X391160Y226060D01*
X358481Y226060D01*
X311173Y273368D01*
X311173Y281417D01*
G74*
D01*
G03X313152Y277729I10136J3064*
G01*
X313152Y277729D01*
X317543Y282120D01*
G74*
D01*
G03X318950Y280713I3767J2360*
G01*
X318950Y280713D01*
X314559Y276322D01*
G75*
D01*
G03X328061Y276322I6751J8158*
G01*
X328061Y276322D01*
X323670Y280713D01*
G74*
D01*
G03X325077Y282120I2360J3767*
G01*
X325077Y282120D01*
X329468Y277729D01*
G75*
D01*
G03X329468Y291231I-8158J6751*
G01*
X329468Y291231D01*
X325077Y286840D01*
G74*
D01*
G03X323670Y288247I3767J2360*
G01*
X323670Y288247D01*
X328061Y292638D01*
G75*
D01*
G03X314559Y292638I-6751J-8158*
G01*
X314559Y292638D01*
X318950Y288247D01*
G74*
D01*
G03X317543Y286840I2360J3767*
G01*
X317543Y286840D01*
X313152Y291231D01*
G74*
D01*
G03X311173Y287543I8157J6752*
G01*
D02*
G37*
G36*
X601986Y234973D02*
X601986Y234973D01*
X833120Y234973D01*
X833120Y238760D01*
X561189Y238760D01*
G75*
D01*
G02X552254Y237467I-4928J2539*
G01*
X552254Y237467D01*
X391160Y237467D01*
X391160Y226060D01*
X462431Y226060D01*
G75*
D01*
G02X472289Y226060I4929J-2538*
G01*
X472289Y226060D01*
X591479Y226060D01*
X599269Y233851D01*
G75*
D01*
G02X601986Y234973I2710J-2711*
G01*
D02*
G37*
G36*
X561583Y239747D02*
G74*
D01*
G02X561340Y239077I5323J1551*
G01*
X561340Y239077D01*
X561340Y238760D01*
X772160Y238760D01*
X772160Y264160D01*
X585996Y264160D01*
X561583Y239747D01*
D02*
G37*
G36*
X800708Y436880D02*
X800708Y436880D01*
X800708Y548640D01*
X772160Y548640D01*
X772160Y436880D01*
X800708Y436880D01*
D02*
G37*
G36*
X970856Y452696D02*
G75*
D01*
G03X984944Y466784I4505J9583*
G01*
X984944Y466784D01*
X988060Y469900D01*
X988060Y414020D01*
X985561Y414020D01*
X985561Y414125D01*
G74*
D01*
G03X978005Y421681I7556J0*
G01*
X978005Y421681D01*
X972715Y421681D01*
G75*
D01*
G03X965383Y415952I0J-7556*
G01*
X965383Y415952D01*
X934112Y415952D01*
X970856Y452696D01*
D02*
G37*
%LPC*%
G36*
X979749Y437875D02*
X979749Y437875D01*
X985902Y437875D01*
G74*
D01*
G03X976355Y447422I10541J994*
G01*
X976355Y447422D01*
X976355Y441269D01*
G75*
D01*
G03X974365Y441269I-995J-4389*
G01*
X974365Y441269D01*
X974365Y447422D01*
G74*
D01*
G03X964818Y437875I994J10541*
G01*
X964818Y437875D01*
X970971Y437875D01*
G75*
D01*
G03X970971Y435885I4389J-995*
G01*
X970971Y435885D01*
X964818Y435885D01*
G74*
D01*
G03X974365Y426338I10541J994*
G01*
X974365Y426338D01*
X974365Y432491D01*
G75*
D01*
G03X976355Y432491I995J4389*
G01*
X976355Y432491D01*
X976355Y426338D01*
G74*
D01*
G03X985902Y435885I994J10541*
G01*
X985902Y435885D01*
X979749Y435885D01*
G75*
D01*
G03X979749Y437875I-4389J995*
G01*
D02*
G37*
%LPD*%
G36*
X740886Y286226D02*
G75*
D01*
G02X725964Y271304I-8091J-6831*
G01*
X725964Y271304D01*
X718820Y264160D01*
X772160Y264160D01*
X772160Y317500D01*
X740886Y286226D01*
D02*
G37*
%LPC*%
G36*
X755830Y283167D02*
X755830Y283167D01*
X751439Y287558D01*
G75*
D01*
G02X764941Y287558I6751J-8158*
G01*
X764941Y287558D01*
X760550Y283167D01*
G74*
D01*
G02X761957Y281760I2360J3767*
G01*
X761957Y281760D01*
X766348Y286151D01*
G75*
D01*
G02X766348Y272649I-8158J-6751*
G01*
X766348Y272649D01*
X761957Y277040D01*
G74*
D01*
G02X760550Y275633I3767J2360*
G01*
X760550Y275633D01*
X764941Y271242D01*
G75*
D01*
G02X751439Y271242I-6751J8158*
G01*
X751439Y271242D01*
X755830Y275633D01*
G74*
D01*
G02X754423Y277040I2360J3767*
G01*
X754423Y277040D01*
X750032Y272649D01*
G75*
D01*
G02X750032Y286151I8158J6751*
G01*
X750032Y286151D01*
X754423Y281760D01*
G74*
D01*
G02X755830Y283167I3767J2360*
G01*
D02*
G37*
%LPD*%
G36*
X985941Y538059D02*
G75*
D01*
G03X974939Y549061I-10581J421*
G01*
X974939Y549061D01*
X947420Y576580D01*
X988060Y576580D01*
X988060Y535940D01*
X985941Y538059D01*
D02*
G37*
G36*
X772160Y535940D02*
X772160Y535940D01*
X772160Y505460D01*
X741680Y535940D01*
X772160Y535940D01*
D02*
G37*
G36*
X863600Y233680D02*
X863600Y233680D01*
X863600Y213360D01*
X843280Y233680D01*
X863600Y233680D01*
D02*
G37*
G36*
X875305Y237638D02*
X875305Y237638D01*
X875305Y233680D01*
X877295Y233680D01*
X877295Y237638D01*
G75*
D01*
G02X875305Y237638I-995J1121*
G01*
D02*
G37*
G54D11*
X311173Y287543D02*
X311173Y295592D01*
X316191Y300610D01*
G75*
D01*
G03X325579Y300190I5118J9270*
G01*
X387179Y238589D01*
G75*
D01*
G03X389896Y237467I2710J2711*
G01*
X391160Y237467D01*
X391160Y226060D01*
X358481Y226060D01*
X311173Y273368D01*
X311173Y281417D01*
G74*
D01*
G03X313152Y277729I10136J3064*
G01*
X317543Y282120D01*
G74*
D01*
G03X318950Y280713I3767J2360*
G01*
X314559Y276322D01*
G75*
D01*
G03X328061Y276322I6751J8158*
G01*
X323670Y280713D01*
G74*
D01*
G03X325077Y282120I2360J3767*
G01*
X329468Y277729D01*
G75*
D01*
G03X329468Y291231I-8158J6751*
G01*
X325077Y286840D01*
G74*
D01*
G03X323670Y288247I3767J2360*
G01*
X328061Y292638D01*
G75*
D01*
G03X314559Y292638I-6751J-8158*
G01*
X318950Y288247D01*
G74*
D01*
G03X317543Y286840I2360J3767*
G01*
X313152Y291231D01*
G74*
D01*
G03X311173Y287543I8157J6752*
G01*
X878828Y233825D02*
G74*
D01*
G02X877295Y233305I2528J4934*
G01*
X877295Y233825D01*
X875305Y233825D01*
X875305Y233305D01*
G74*
D01*
G02X873772Y233825I996J5455*
G01*
X863600Y233825D01*
X863600Y143654D01*
G74*
D01*
G02X871671Y139700I0J10214*
G01*
X880929Y139700D01*
G75*
D01*
G02X897071Y139700I8071J-6260*
G01*
X906329Y139700D01*
G74*
D01*
G02X913405Y143606I8071J6259*
G01*
X913405Y139700D01*
X915395Y139700D01*
X915395Y143606D01*
G74*
D01*
G02X922471Y139700I995J10165*
G01*
X938723Y139700D01*
X940532Y141508D01*
G75*
D01*
G02X942346Y142257I1808J-1807*
G01*
X1014941Y142257D01*
X1023603Y150919D01*
X1023603Y233825D01*
X878828Y233825D01*
X601986Y234973D02*
X833120Y234973D01*
X833120Y238760D01*
X561189Y238760D01*
G75*
D01*
G02X552254Y237467I-4928J2539*
G01*
X391160Y237467D01*
X391160Y226060D01*
X462431Y226060D01*
G75*
D01*
G02X472289Y226060I4929J-2538*
G01*
X591479Y226060D01*
X599269Y233851D01*
G75*
D01*
G02X601986Y234973I2710J-2711*
G01*
X863600Y233680D02*
X863600Y213360D01*
X843280Y233680D01*
X863600Y233680D01*
X561583Y239747D02*
G74*
D01*
G02X561340Y239077I5323J1551*
G01*
X561340Y238760D01*
X772160Y238760D01*
X772160Y264160D01*
X585996Y264160D01*
X561583Y239747D01*
X755830Y283167D02*
X751439Y287558D01*
G75*
D01*
G02X764941Y287558I6751J-8158*
G01*
X760550Y283167D01*
G74*
D01*
G02X761957Y281760I2360J3767*
G01*
X766348Y286151D01*
G75*
D01*
G02X766348Y272649I-8158J-6751*
G01*
X761957Y277040D01*
G74*
D01*
G02X760550Y275633I3767J2360*
G01*
X764941Y271242D01*
G75*
D01*
G02X751439Y271242I-6751J8158*
G01*
X755830Y275633D01*
G74*
D01*
G02X754423Y277040I2360J3767*
G01*
X750032Y272649D01*
G75*
D01*
G02X750032Y286151I8158J6751*
G01*
X754423Y281760D01*
G74*
D01*
G02X755830Y283167I3767J2360*
G01*
X740886Y286226D02*
G75*
D01*
G02X725964Y271304I-8091J-6831*
G01*
X718820Y264160D01*
X772160Y264160D01*
X772160Y317500D01*
X740886Y286226D01*
X1023603Y576580D02*
X1023603Y640080D01*
X833120Y640080D01*
X833120Y576580D01*
X1023603Y576580D01*
X956162Y260075D02*
X960495Y260075D01*
G74*
D01*
G03X956035Y264535I5455J995*
G01*
X956035Y260202D01*
G75*
D01*
G03X954045Y260202I-995J-1121*
G01*
X954045Y264535D01*
G74*
D01*
G03X949585Y260075I995J5455*
G01*
X953918Y260075D01*
G75*
D01*
G03X953918Y258085I1121J-995*
G01*
X949585Y258085D01*
G74*
D01*
G03X954045Y253625I5455J995*
G01*
X954045Y257958D01*
G75*
D01*
G03X956035Y257958I995J1121*
G01*
X956035Y253625D01*
G74*
D01*
G03X960495Y258085I995J5455*
G01*
X956162Y258085D01*
G75*
D01*
G03X956162Y260075I-1121J995*
G01*
X943462Y331195D02*
X947795Y331195D01*
G74*
D01*
G03X943335Y335655I5455J995*
G01*
X943335Y331322D01*
G75*
D01*
G03X941345Y331322I-995J-1121*
G01*
X941345Y335655D01*
G74*
D01*
G03X936885Y331195I995J5455*
G01*
X941218Y331195D01*
G75*
D01*
G03X941218Y329205I1121J-995*
G01*
X936885Y329205D01*
G74*
D01*
G03X941345Y324745I5455J995*
G01*
X941345Y329078D01*
G75*
D01*
G03X943335Y329078I995J1121*
G01*
X943335Y324745D01*
G74*
D01*
G03X947795Y329205I995J5455*
G01*
X943462Y329205D01*
G75*
D01*
G03X943462Y331195I-1121J995*
G01*
X965562Y406400D02*
G75*
D01*
G03X972715Y401279I7153J2435*
G01*
X978005Y401279D01*
G74*
D01*
G03X985158Y406400I0J7556*
G01*
X1023603Y406400D01*
X1023603Y233680D01*
X878523Y233680D01*
G74*
D01*
G03X881755Y237765I2223J5080*
G01*
X877422Y237765D01*
G75*
D01*
G03X877422Y239755I-1121J995*
G01*
X881755Y239755D01*
G74*
D01*
G03X877295Y244215I5455J995*
G01*
X877295Y239882D01*
G75*
D01*
G03X875305Y239882I-995J-1121*
G01*
X875305Y244215D01*
G74*
D01*
G03X870845Y239755I995J5455*
G01*
X875178Y239755D01*
G75*
D01*
G03X875178Y237765I1121J-995*
G01*
X870845Y237765D01*
G74*
D01*
G03X874077Y233680I5455J995*
G01*
X843129Y233680D01*
G75*
D01*
G03X834194Y234973I-4928J-2539*
G01*
X833120Y234973D01*
X833120Y406400D01*
X965562Y406400D01*
X875305Y237638D02*
X875305Y233680D01*
X877295Y233680D01*
X877295Y237638D01*
G75*
D01*
G02X875305Y237638I-995J1121*
G01*
X985941Y538059D02*
G75*
D01*
G03X974939Y549061I-10581J421*
G01*
X947420Y576580D01*
X988060Y576580D01*
X988060Y535940D01*
X985941Y538059D01*
X979749Y437875D02*
X985902Y437875D01*
G74*
D01*
G03X976355Y447422I10541J994*
G01*
X976355Y441269D01*
G75*
D01*
G03X974365Y441269I-995J-4389*
G01*
X974365Y447422D01*
G74*
D01*
G03X964818Y437875I994J10541*
G01*
X970971Y437875D01*
G75*
D01*
G03X970971Y435885I4389J-995*
G01*
X964818Y435885D01*
G74*
D01*
G03X974365Y426338I10541J994*
G01*
X974365Y432491D01*
G75*
D01*
G03X976355Y432491I995J4389*
G01*
X976355Y426338D01*
G74*
D01*
G03X985902Y435885I994J10541*
G01*
X979749Y435885D01*
G75*
D01*
G03X979749Y437875I-4389J995*
G01*
X970856Y452696D02*
G75*
D01*
G03X984944Y466784I4505J9583*
G01*
X988060Y469900D01*
X988060Y414020D01*
X985561Y414020D01*
X985561Y414125D01*
G74*
D01*
G03X978005Y421681I7556J0*
G01*
X972715Y421681D01*
G75*
D01*
G03X965383Y415952I0J-7556*
G01*
X934112Y415952D01*
X970856Y452696D01*
X985520Y408044D02*
X985520Y406313D01*
X1023603Y406313D01*
X1023603Y576580D01*
X985520Y576580D01*
X985520Y541465D01*
G75*
D01*
G02X985520Y535495I-10160J-2985*
G01*
X985520Y516065D01*
G75*
D01*
G02X985520Y510095I-10160J-2985*
G01*
X985520Y490665D01*
G75*
D01*
G02X985520Y484695I-10160J-2985*
G01*
X985520Y465265D01*
G75*
D01*
G02X985520Y459295I-10160J-2985*
G01*
X985520Y439865D01*
G74*
D01*
G02X985902Y437875I10160J2982*
G01*
X985520Y437875D01*
X985520Y435885D01*
X985902Y435885D01*
G74*
D01*
G02X985520Y433895I10541J992*
G01*
X985520Y414916D01*
G74*
D01*
G02X985561Y414125I7515J786*
G01*
X985561Y408835D01*
G75*
D01*
G02X985520Y408044I-7556J-5*
G01*
X828040Y407008D02*
X833120Y407008D01*
X833120Y238760D01*
X772160Y238760D01*
X772160Y436880D01*
X800708Y436880D01*
X800708Y434352D01*
G75*
D01*
G03X802018Y431178I4472J-12*
G01*
X824878Y408318D01*
G74*
D01*
G03X827740Y407019I3161J3162*
G01*
G75*
D01*
G03X828040Y407008I314J4460*
G01*
X772160Y535940D02*
X772160Y505460D01*
X741680Y535940D01*
X772160Y535940D01*
X773282Y559795D02*
G75*
D01*
G02X773282Y557805I-1121J-995*
G01*
X777615Y557805D01*
G74*
D01*
G02X773155Y553345I5455J995*
G01*
X773155Y557678D01*
G75*
D01*
G02X771165Y557678I-995J1121*
G01*
X771165Y553345D01*
G74*
D01*
G02X766705Y557805I995J5455*
G01*
X771038Y557805D01*
G75*
D01*
G02X771038Y559795I1121J995*
G01*
X766705Y559795D01*
G74*
D01*
G02X771165Y564255I5455J995*
G01*
X771165Y559922D01*
G75*
D01*
G02X773155Y559922I995J-1121*
G01*
X773155Y564255D01*
G74*
D01*
G02X777615Y559795I995J5455*
G01*
X773282Y559795D01*
X776788Y600815D02*
X776788Y602678D01*
X786405Y602678D01*
X786405Y596131D01*
X781472Y596131D01*
G75*
D01*
G02X776788Y600815I0J4684*
G01*
X781472Y611215D02*
X786405Y611215D01*
X786405Y604668D01*
X776788Y604668D01*
X776788Y606532D01*
G75*
D01*
G02X781472Y611215I4684J-1*
G01*
X798012Y606532D02*
X798012Y604668D01*
X788395Y604668D01*
X788395Y611215D01*
X793328Y611215D01*
G74*
D01*
G02X798012Y606532I1J4683*
G01*
X798012Y600815D02*
G75*
D01*
G02X793328Y596131I-4684J0*
G01*
X788395Y596131D01*
X788395Y602678D01*
X798012Y602678D01*
X798012Y600815D01*
X824082Y595355D02*
G75*
D01*
G02X824082Y593365I-1121J-995*
G01*
X828415Y593365D01*
G74*
D01*
G02X823955Y588905I5455J995*
G01*
X823955Y593238D01*
G75*
D01*
G02X821965Y593238I-995J1121*
G01*
X821965Y588905D01*
G74*
D01*
G02X817505Y593365I995J5455*
G01*
X821838Y593365D01*
G75*
D01*
G02X821838Y595355I1121J995*
G01*
X817505Y595355D01*
G74*
D01*
G02X821965Y599815I5455J995*
G01*
X821965Y595482D01*
G75*
D01*
G02X823955Y595482I995J-1121*
G01*
X823955Y599815D01*
G74*
D01*
G02X828415Y595355I995J5455*
G01*
X824082Y595355D01*
X813922Y630915D02*
G75*
D01*
G02X813922Y628925I-1121J-995*
G01*
X818255Y628925D01*
G74*
D01*
G02X813795Y624465I5455J995*
G01*
X813795Y628798D01*
G75*
D01*
G02X811805Y628798I-995J1121*
G01*
X811805Y624465D01*
G74*
D01*
G02X807345Y628925I995J5455*
G01*
X811678Y628925D01*
G75*
D01*
G02X811678Y630915I1121J995*
G01*
X807345Y630915D01*
G74*
D01*
G02X811805Y635375I5455J995*
G01*
X811805Y631042D01*
G75*
D01*
G02X813795Y631042I995J-1121*
G01*
X813795Y635375D01*
G74*
D01*
G02X818255Y630915I995J5455*
G01*
X813922Y630915D01*
X797725Y580575D02*
G74*
D01*
G02X793328Y577505I4396J1613*
G01*
X781472Y577505D01*
G75*
D01*
G02X776788Y582188I-1J4683*
G01*
X776788Y587905D01*
G75*
D01*
G02X781472Y592589I4684J0*
G01*
X793328Y592589D01*
G74*
D01*
G02X797725Y589518I1J4684*
G01*
X803610Y589518D01*
G75*
D01*
G02X809652Y580921I1573J-5316*
G01*
X809652Y553266D01*
X833120Y576734D01*
X833120Y640080D01*
X790094Y640080D01*
X742469Y592455D01*
X741680Y592455D01*
X741680Y548640D01*
X800708Y548640D01*
X800708Y580575D01*
X797725Y580575D01*
X463121Y563880D02*
G75*
D01*
G03X463121Y563880I10589J0*
G01*
X384068Y579572D02*
G75*
D01*
G03X379385Y574888I1J-4684*
G01*
X379385Y569955D01*
X385932Y569955D01*
X385932Y579572D01*
X384068Y579572D01*
X394469Y574888D02*
G74*
D01*
G03X389785Y579572I4684J0*
G01*
X387922Y579572D01*
X387922Y569955D01*
X394469Y569955D01*
X394469Y574888D01*
X389785Y558348D02*
G75*
D01*
G03X394469Y563032I0J4684*
G01*
X394469Y567965D01*
X387922Y567965D01*
X387922Y558348D01*
X389785Y558348D01*
X384068Y558348D02*
X385932Y558348D01*
X385932Y567965D01*
X379385Y567965D01*
X379385Y563032D01*
G75*
D01*
G03X384068Y558348I4683J-1*
G01*
X401082Y579285D02*
G74*
D01*
G03X398011Y574888I1612J4397*
G01*
X398011Y563032D01*
G75*
D01*
G03X402695Y558348I4684J0*
G01*
X408412Y558348D01*
G75*
D01*
G03X413095Y563032I-1J4684*
G01*
X413095Y574888D01*
G74*
D01*
G03X410025Y579285I4683J1*
G01*
X410025Y591878D01*
X463444Y591878D01*
G75*
D01*
G03X483976Y591878I10266J-2595*
G01*
X772168Y591878D01*
X772168Y560300D01*
G75*
D01*
G03X771165Y559922I-7J-1500*
G01*
X771165Y564255D01*
G74*
D01*
G03X766705Y559795I995J5455*
G01*
X771038Y559795D01*
G75*
D01*
G03X771038Y557805I1121J-995*
G01*
X766705Y557805D01*
G74*
D01*
G03X771165Y553345I5455J995*
G01*
X771165Y557678D01*
G75*
D01*
G03X772168Y557300I995J1121*
G01*
X772168Y535940D01*
X483990Y535940D01*
G75*
D01*
G03X463430Y535940I-10280J2539*
G01*
X377716Y535940D01*
X355600Y558056D01*
X355600Y572244D01*
X375234Y591878D01*
X401082Y591878D01*
X401082Y579285D01*
X800708Y436880D02*
X800708Y548640D01*
X772160Y548640D01*
X772160Y436880D01*
X800708Y436880D01*
G54D12*
X321310Y335280D02*
X320040Y335280D01*
X321310Y309880D02*
X320040Y309880D01*
X580390Y279400D02*
X500380Y279400D01*
X482600Y297180D01*
X410210Y297180D01*
X321310Y386080D01*
X605790Y279400D02*
X605790Y280670D01*
X594360Y292100D01*
X510540Y292100D01*
X480060Y322580D01*
X410210Y322580D01*
X321310Y411480D01*
X631190Y279400D02*
X631190Y280670D01*
X482600Y347980D02*
X410210Y347980D01*
X321310Y436880D01*
X656590Y279400D02*
X655320Y279400D01*
X480060Y373380D02*
X410210Y373380D01*
X321310Y462280D01*
X681990Y279400D02*
X680720Y279400D01*
X490220Y391160D02*
X482600Y398780D01*
X410210Y398780D01*
X321310Y487680D01*
X707390Y279400D02*
X707390Y280670D01*
X482600Y424180D02*
X410210Y424180D01*
X321310Y513080D01*
X732790Y279400D02*
X732790Y280670D01*
X485140Y449580D02*
X408940Y449580D01*
X321310Y537210D01*
X321310Y538480D01*
X408940Y474980D02*
X321310Y562610D01*
X321310Y563880D01*
X381000Y198120D02*
X381000Y101060D01*
X355600Y198120D02*
X355600Y101060D01*
X307340Y297180D02*
X307340Y271780D01*
X320040Y309880D02*
X307340Y297180D01*
X307340Y271780D02*
X381000Y198120D01*
X299720Y314960D02*
X299720Y254000D01*
X320040Y335280D02*
X299720Y314960D01*
X299720Y254000D02*
X355600Y198120D01*
X321310Y359410D02*
X292100Y330200D01*
X292100Y236220D02*
X330200Y198120D01*
X330200Y101060D01*
X292100Y330200D02*
X292100Y236220D01*
X408940Y474980D02*
X511810Y474980D01*
X631190Y355600D01*
X605790Y355600D02*
X605790Y356870D01*
X500380Y462280D01*
X473710Y462280D01*
X732790Y280670D02*
X670560Y342900D01*
X707390Y280670D02*
X655320Y332740D01*
X609600Y302260D02*
X528320Y302260D01*
X482600Y347980D01*
X631190Y280670D02*
X609600Y302260D01*
X622300Y312420D02*
X541020Y312420D01*
X655320Y279400D02*
X622300Y312420D01*
X541020Y312420D02*
X480060Y373380D01*
X680720Y279400D02*
X637540Y322580D01*
X670560Y342900D02*
X571500Y342900D01*
X655320Y332740D02*
X561340Y332740D01*
X551180Y322580D02*
X490220Y383540D01*
X490220Y391160D01*
X637540Y322580D02*
X551180Y322580D01*
X321310Y309880D02*
X389890Y241300D01*
X321310Y335280D02*
X405130Y251460D01*
X321310Y359410D02*
X419100Y261620D01*
X405130Y251460D02*
X546100Y251460D01*
X525780Y180340D02*
X508000Y162560D01*
X508000Y101060D01*
X513080Y193040D02*
X482600Y162560D01*
X482600Y101060D01*
X500380Y205740D02*
X457200Y162560D01*
X457200Y101060D01*
X487680Y218440D02*
X431800Y162560D01*
X431800Y101060D01*
X406400Y162560D02*
X406400Y101060D01*
X389890Y241300D02*
X556260Y241300D01*
X419100Y261620D02*
X535940Y261620D01*
X807720Y198120D02*
X787400Y177800D01*
X787400Y101060D01*
X975360Y462280D02*
X855980Y462280D01*
X828040Y490220D01*
X975360Y513080D02*
X858520Y513080D01*
X975360Y538480D02*
X868680Y538480D01*
X843280Y513080D01*
X820420Y513080D01*
X812800Y500380D02*
X845820Y500380D01*
X858520Y513080D01*
X500380Y393700D02*
X500380Y406400D01*
X561340Y332740D02*
X500380Y393700D01*
X500380Y406400D02*
X482600Y424180D01*
X513080Y401320D02*
X513080Y421640D01*
X485140Y449580D01*
X571500Y342900D02*
X513080Y401320D01*
X566420Y269240D02*
X488950Y269240D01*
X473710Y284480D01*
X467360Y223520D02*
X406400Y162560D01*
X533400Y162560D02*
X601980Y231140D01*
X838200Y231140D01*
X533400Y101060D02*
X533400Y162560D01*
X558800Y162560D02*
X612140Y215900D01*
X822960Y215900D02*
X612140Y215900D01*
X558800Y101060D02*
X558800Y162560D01*
X825500Y680720D02*
X795020Y711200D01*
X314960Y711200D01*
X281940Y678180D01*
X281940Y223520D01*
X304800Y200660D01*
G54D13*
X914400Y101060D02*
X914400Y154940D01*
X876300Y193040D01*
X876300Y238760D01*
X405553Y568960D02*
X405553Y597323D01*
X473710Y665480D01*
X788247Y584200D02*
X787400Y585047D01*
X975360Y411480D02*
X828040Y411480D01*
X805180Y434340D01*
X787400Y585047D02*
X804333Y585047D01*
X805180Y584200D01*
X805180Y434340D02*
X805180Y584200D01*
G54D14*
X190500Y55880D02*
X190500Y131318D01*
X190500Y55880D02*
X274320Y55880D01*
X1028700Y55880D02*
X944880Y55880D01*
X1028700Y55880D02*
X1028700Y131318D01*
X1028700Y810260D02*
X1028700Y734822D01*
X1028700Y810260D02*
X944880Y810260D01*
X190500Y810260D02*
X274320Y810260D01*
X190500Y810260D02*
X190500Y734822D01*
X140500Y55880D02*
X40500Y55880D01*
X90500Y5880D02*
X90500Y105880D01*
X53000Y55880D02*
G75*
D01*
G02X53000Y55880I37500J0*
G01*
X1078700Y55880D02*
X1178700Y55880D01*
X1128700Y5880D02*
X1128700Y105880D01*
X1091200Y55880D02*
G75*
D01*
G02X1091200Y55880I37500J0*
G01*
X1116200Y55880D02*
G75*
D01*
G02X1116200Y55880I12500J0*
G01*
X140500Y810260D02*
X40500Y810260D01*
X90500Y760260D02*
X90500Y860260D01*
X53000Y810260D02*
G75*
D01*
G02X53000Y810260I37500J0*
G01*
X65500Y810260D02*
G75*
D01*
G02X65500Y810260I25000J0*
G01*
X78000Y810260D02*
G75*
D01*
G02X78000Y810260I12500J0*
G01*
X281940Y58420D02*
X937260Y58420D01*
X279400Y137160D02*
X279400Y60960D01*
X939800Y60960D02*
X939800Y137160D01*
X276860Y139700D02*
X279400Y137160D01*
X279400Y60960D02*
X281940Y58420D01*
X937260Y58420D02*
X939800Y60960D01*
X939800Y137160D02*
X942340Y139700D01*
X1016000Y139700D02*
X1026160Y149860D01*
X942340Y139700D02*
X1016000Y139700D01*
X1026160Y797560D02*
X1016000Y807720D01*
X1026160Y149860D02*
X1026160Y797560D01*
X193040Y797560D02*
X193040Y149860D01*
X203200Y139700D01*
X203200Y807720D02*
X193040Y797560D01*
X203200Y139700D02*
X276860Y139700D01*
X1016000Y807720D02*
X203200Y807720D01*
X190500Y55880D02*
X190500Y131318D01*
X190500Y55880D02*
X274320Y55880D01*
X1028700Y55880D02*
X944880Y55880D01*
X1028700Y55880D02*
X1028700Y131318D01*
X1028700Y810260D02*
X1028700Y734822D01*
X1028700Y810260D02*
X944880Y810260D01*
X190500Y810260D02*
X274320Y810260D01*
X190500Y810260D02*
X190500Y734822D01*
X140500Y55880D02*
X40500Y55880D01*
X90500Y5880D02*
X90500Y105880D01*
X53000Y55880D02*
G75*
D01*
G02X53000Y55880I37500J0*
G01*
X1078700Y55880D02*
X1178700Y55880D01*
X1128700Y5880D02*
X1128700Y105880D01*
X1091200Y55880D02*
G75*
D01*
G02X1091200Y55880I37500J0*
G01*
X1116200Y55880D02*
G75*
D01*
G02X1116200Y55880I12500J0*
G01*
X140500Y810260D02*
X40500Y810260D01*
X90500Y760260D02*
X90500Y860260D01*
X53000Y810260D02*
G75*
D01*
G02X53000Y810260I37500J0*
G01*
X65500Y810260D02*
G75*
D01*
G02X65500Y810260I25000J0*
G01*
X78000Y810260D02*
G75*
D01*
G02X78000Y810260I12500J0*
G01*
G54D15*
X975360Y487680D03*
X975360Y436880D03*
X975360Y538480D03*
X975360Y462280D03*
X975360Y513080D03*
X321310Y360680D03*
X473710Y360680D03*
X473710Y665480D03*
X473710Y513080D03*
X473710Y589280D03*
X473710Y640080D03*
X473710Y614680D03*
X473710Y563880D03*
X473710Y538480D03*
X473710Y436880D03*
X473710Y462280D03*
X473710Y487680D03*
X473710Y386080D03*
X473710Y411480D03*
X473710Y309880D03*
X473710Y335280D03*
X473710Y284480D03*
X321310Y513080D03*
X321310Y589280D03*
X321310Y614680D03*
X321310Y640080D03*
X321310Y538480D03*
X321310Y563880D03*
X321310Y436880D03*
X321310Y462280D03*
X321310Y487680D03*
X321310Y386080D03*
X321310Y411480D03*
X321310Y284480D03*
X321310Y309880D03*
X321310Y335280D03*
X580390Y355600D03*
X758190Y355600D03*
X631190Y355600D03*
X605790Y355600D03*
X656590Y355600D03*
X707390Y355600D03*
X681990Y355600D03*
X732790Y355600D03*
X605790Y279400D03*
X758190Y279400D03*
X681990Y279400D03*
X631190Y279400D03*
X656590Y279400D03*
X732790Y279400D03*
X707390Y279400D03*
G54D16*
X975360Y411480D03*
G54D17*
X972715Y408835D02*
X978005Y408835D01*
X978005Y414125D01*
X972715Y414125D01*
X972715Y408835D01*D02*
G54D18*
X787400Y585047D03*
X787400Y603673D03*
G54D19*
X781472Y582188D02*
X793328Y582188D01*
X793328Y587906D01*
X781472Y587906D01*
X781472Y582188D01*D02*
X781472Y600814D02*
X793328Y600814D01*
X793328Y606532D01*
X781472Y606532D01*
X781472Y600814D01*D02*
X402694Y563032D02*
X408412Y563032D01*
X408412Y574888D01*
X402694Y574888D01*
X402694Y563032D01*D02*
X384068Y563032D02*
X389786Y563032D01*
X389786Y574888D01*
X384068Y574888D01*
X384068Y563032D01*D02*
G54D20*
X487680Y218440D03*
X500380Y205740D03*
X513080Y193040D03*
X525780Y180340D03*
X556260Y241300D03*
X546100Y251460D03*
X535940Y261620D03*
X822960Y215900D03*
X807720Y198120D03*
X838200Y231140D03*
X828040Y490220D03*
X819420Y513080D03*
X812800Y500380D03*
X566420Y269240D03*
X467360Y223520D03*
X825500Y680720D03*
X304800Y200660D03*
X876300Y238760D03*
X955040Y259080D03*
X942340Y330200D03*
X772160Y558800D03*
X822960Y594360D03*
X812800Y629920D03*
X805180Y584200D03*
G54D21*
X405553Y568960D03*
X386927Y568960D03*
G54D22*
X321310Y665480D03*
X580390Y279400D03*
G54D23*
X317923Y662093D02*
X324697Y662093D01*
X324697Y668867D01*
X317923Y668867D01*
X317923Y662093D01*D02*
X577003Y276013D02*
X583777Y276013D01*
X583777Y282787D01*
X577003Y282787D01*
X577003Y276013D01*D02*
G54D24*
X304800Y101060D03*
X330200Y101060D03*
X355600Y101060D03*
X381000Y101060D03*
X406400Y101060D03*
X431800Y101060D03*
X457200Y101060D03*
X482600Y101060D03*
X508000Y101060D03*
X533400Y101060D03*
X558800Y101060D03*
X584200Y101060D03*
X609600Y101060D03*
X635000Y101060D03*
X660400Y101060D03*
X685800Y101060D03*
X711200Y101060D03*
X736600Y101060D03*
X762000Y101060D03*
X787400Y101060D03*
X812800Y101060D03*
X838200Y101060D03*
X863600Y101060D03*
X889000Y101060D03*
X914400Y101060D03*

M02*
